<mxfile modified="2023-11-29T07:07:13.538Z" host="app.diagrams.net" agent="Mozilla/5.0 (Windows NT 10.0; Win64; x64) AppleWebKit/537.36 (KHTML, like Gecko) Chrome/119.0.0.0 Safari/537.36" etag="-GgAu8Rt8seO6cut7hLY" version="22.1.4" type="device">
  <diagram id="Ht1M8jgEwFfnCIfOTk4-" name="Page-1">
    <mxGraphModel dx="2144" dy="704" grid="1" gridSize="10" guides="1" tooltips="1" connect="1" arrows="1" fold="1" page="1" pageScale="1" pageWidth="827" pageHeight="1169" math="0" shadow="0">
      <root>
        <mxCell id="0" />
        <mxCell id="1" parent="0" />
        <mxCell id="CEkO3Uq_BOmMnPw9GR2j-7" value="" style="rounded=0;whiteSpace=wrap;html=1;" parent="1" vertex="1">
          <mxGeometry x="-290" y="230" width="225.52" height="420" as="geometry" />
        </mxCell>
        <mxCell id="jZVaUwOg5UY3L9NAnvdq-146" value="" style="edgeStyle=elbowEdgeStyle;rounded=0;orthogonalLoop=1;jettySize=auto;html=1;endArrow=open;endFill=0;strokeColor=#545B64;strokeWidth=2;fontSize=14;" parent="1" edge="1">
          <mxGeometry relative="1" as="geometry">
            <mxPoint x="1210.0008871499738" y="756.5" as="sourcePoint" />
          </mxGeometry>
        </mxCell>
        <mxCell id="ZNpQD6KD1uZFFYSede-m-27" value="AWS Cloud" style="points=[[0,0],[0.25,0],[0.5,0],[0.75,0],[1,0],[1,0.25],[1,0.5],[1,0.75],[1,1],[0.75,1],[0.5,1],[0.25,1],[0,1],[0,0.75],[0,0.5],[0,0.25]];outlineConnect=0;gradientColor=none;html=1;whiteSpace=wrap;fontSize=12;fontStyle=0;container=1;pointerEvents=0;collapsible=0;recursiveResize=0;shape=mxgraph.aws4.group;grIcon=mxgraph.aws4.group_aws_cloud_alt;strokeColor=#232F3E;fillColor=none;verticalAlign=top;align=left;spacingLeft=30;fontColor=#232F3E;dashed=0;" parent="1" vertex="1">
          <mxGeometry x="40" y="190" width="700" height="750" as="geometry" />
        </mxCell>
        <mxCell id="ZNpQD6KD1uZFFYSede-m-29" value="ap-northeast-1&lt;br&gt;" style="points=[[0,0],[0.25,0],[0.5,0],[0.75,0],[1,0],[1,0.25],[1,0.5],[1,0.75],[1,1],[0.75,1],[0.5,1],[0.25,1],[0,1],[0,0.75],[0,0.5],[0,0.25]];outlineConnect=0;gradientColor=none;html=1;whiteSpace=wrap;fontSize=12;fontStyle=0;container=1;pointerEvents=0;collapsible=0;recursiveResize=0;shape=mxgraph.aws4.group;grIcon=mxgraph.aws4.group_region;strokeColor=#147EBA;fillColor=none;verticalAlign=top;align=left;spacingLeft=30;fontColor=#147EBA;dashed=1;" parent="ZNpQD6KD1uZFFYSede-m-27" vertex="1">
          <mxGeometry x="10" y="30" width="680" height="710" as="geometry" />
        </mxCell>
        <mxCell id="ZNpQD6KD1uZFFYSede-m-30" value="" style="points=[[0,0],[0.25,0],[0.5,0],[0.75,0],[1,0],[1,0.25],[1,0.5],[1,0.75],[1,1],[0.75,1],[0.5,1],[0.25,1],[0,1],[0,0.75],[0,0.5],[0,0.25]];outlineConnect=0;gradientColor=none;html=1;whiteSpace=wrap;fontSize=12;fontStyle=0;container=1;pointerEvents=0;collapsible=0;recursiveResize=0;shape=mxgraph.aws4.group;grIcon=mxgraph.aws4.group_vpc;strokeColor=#248814;fillColor=none;verticalAlign=top;align=left;spacingLeft=30;fontColor=#AAB7B8;dashed=0;" parent="ZNpQD6KD1uZFFYSede-m-29" vertex="1">
          <mxGeometry x="20" y="100" width="640" height="600" as="geometry" />
        </mxCell>
        <mxCell id="ZNpQD6KD1uZFFYSede-m-32" value="" style="sketch=0;outlineConnect=0;fontColor=#232F3E;gradientColor=none;fillColor=#4D27AA;strokeColor=none;dashed=0;verticalLabelPosition=bottom;verticalAlign=top;align=center;html=1;fontSize=12;fontStyle=0;aspect=fixed;pointerEvents=1;shape=mxgraph.aws4.internet_gateway;" parent="ZNpQD6KD1uZFFYSede-m-30" vertex="1">
          <mxGeometry x="296" y="-20" width="46" height="46" as="geometry" />
        </mxCell>
        <mxCell id="ZNpQD6KD1uZFFYSede-m-40" value="ap-northeast-1a" style="fillColor=none;strokeColor=#147EBA;dashed=1;verticalAlign=top;fontStyle=0;fontColor=#147EBA;whiteSpace=wrap;html=1;" parent="ZNpQD6KD1uZFFYSede-m-30" vertex="1">
          <mxGeometry x="30" y="40" width="270" height="550" as="geometry" />
        </mxCell>
        <mxCell id="ZNpQD6KD1uZFFYSede-m-41" value="ap-northeast-1c" style="fillColor=none;strokeColor=#147EBA;dashed=1;verticalAlign=top;fontStyle=0;fontColor=#147EBA;whiteSpace=wrap;html=1;" parent="ZNpQD6KD1uZFFYSede-m-30" vertex="1">
          <mxGeometry x="340" y="40" width="270" height="550" as="geometry" />
        </mxCell>
        <mxCell id="ZNpQD6KD1uZFFYSede-m-42" value="" style="fillColor=none;strokeColor=#DD3522;verticalAlign=top;fontStyle=0;fontColor=#DD3522;whiteSpace=wrap;html=1;" parent="ZNpQD6KD1uZFFYSede-m-30" vertex="1">
          <mxGeometry x="260" y="50" width="124" height="80" as="geometry" />
        </mxCell>
        <mxCell id="ZNpQD6KD1uZFFYSede-m-43" value="ec2 security group" style="fillColor=none;strokeColor=#DD3522;verticalAlign=top;fontStyle=0;fontColor=#DD3522;whiteSpace=wrap;html=1;" parent="ZNpQD6KD1uZFFYSede-m-30" vertex="1">
          <mxGeometry x="50" y="140" width="250" height="240" as="geometry" />
        </mxCell>
        <mxCell id="ZNpQD6KD1uZFFYSede-m-44" value="rds security group" style="fillColor=none;strokeColor=#DD3522;verticalAlign=top;fontStyle=0;fontColor=#DD3522;whiteSpace=wrap;html=1;" parent="ZNpQD6KD1uZFFYSede-m-30" vertex="1">
          <mxGeometry x="50" y="390" width="250" height="190" as="geometry" />
        </mxCell>
        <mxCell id="ZNpQD6KD1uZFFYSede-m-45" value="" style="sketch=0;outlineConnect=0;fontColor=#232F3E;gradientColor=none;fillColor=#4D27AA;strokeColor=none;dashed=0;verticalLabelPosition=bottom;verticalAlign=top;align=center;html=1;fontSize=12;fontStyle=0;aspect=fixed;pointerEvents=1;shape=mxgraph.aws4.application_load_balancer;" parent="ZNpQD6KD1uZFFYSede-m-30" vertex="1">
          <mxGeometry x="294" y="64" width="48" height="48" as="geometry" />
        </mxCell>
        <mxCell id="ZNpQD6KD1uZFFYSede-m-49" value="&lt;font style=&quot;font-size: 10px;&quot;&gt;public subnet&lt;/font&gt;" style="points=[[0,0],[0.25,0],[0.5,0],[0.75,0],[1,0],[1,0.25],[1,0.5],[1,0.75],[1,1],[0.75,1],[0.5,1],[0.25,1],[0,1],[0,0.75],[0,0.5],[0,0.25]];outlineConnect=0;gradientColor=none;html=1;whiteSpace=wrap;fontSize=12;fontStyle=0;container=1;pointerEvents=0;collapsible=0;recursiveResize=0;shape=mxgraph.aws4.group;grIcon=mxgraph.aws4.group_security_group;grStroke=0;strokeColor=#248814;fillColor=#E9F3E6;verticalAlign=top;align=left;spacingLeft=30;fontColor=#248814;dashed=0;" parent="ZNpQD6KD1uZFFYSede-m-30" vertex="1">
          <mxGeometry x="350" y="160" width="230" height="210" as="geometry" />
        </mxCell>
        <mxCell id="ZNpQD6KD1uZFFYSede-m-50" value="&lt;span style=&quot;font-size: 10px;&quot;&gt;private subnet&lt;/span&gt;" style="points=[[0,0],[0.25,0],[0.5,0],[0.75,0],[1,0],[1,0.25],[1,0.5],[1,0.75],[1,1],[0.75,1],[0.5,1],[0.25,1],[0,1],[0,0.75],[0,0.5],[0,0.25]];outlineConnect=0;gradientColor=none;html=1;whiteSpace=wrap;fontSize=12;fontStyle=0;container=1;pointerEvents=0;collapsible=0;recursiveResize=0;shape=mxgraph.aws4.group;grIcon=mxgraph.aws4.group_security_group;grStroke=0;strokeColor=#147EBA;fillColor=#E6F2F8;verticalAlign=top;align=left;spacingLeft=30;fontColor=#147EBA;dashed=0;" parent="ZNpQD6KD1uZFFYSede-m-30" vertex="1">
          <mxGeometry x="60" y="420" width="230" height="150" as="geometry" />
        </mxCell>
        <mxCell id="ZNpQD6KD1uZFFYSede-m-76" value="RDS MySQL" style="text;html=1;strokeColor=none;fillColor=none;align=center;verticalAlign=middle;whiteSpace=wrap;rounded=0;" parent="ZNpQD6KD1uZFFYSede-m-50" vertex="1">
          <mxGeometry x="72" y="29" width="86" height="30" as="geometry" />
        </mxCell>
        <mxCell id="ZNpQD6KD1uZFFYSede-m-53" value="" style="sketch=0;outlineConnect=0;fontColor=#232F3E;gradientColor=none;fillColor=#2E27AD;strokeColor=none;dashed=0;verticalLabelPosition=bottom;verticalAlign=top;align=center;html=1;fontSize=12;fontStyle=0;aspect=fixed;pointerEvents=1;shape=mxgraph.aws4.rds_mysql_instance;" parent="ZNpQD6KD1uZFFYSede-m-50" vertex="1">
          <mxGeometry x="86" y="59" width="58" height="58" as="geometry" />
        </mxCell>
        <mxCell id="ZNpQD6KD1uZFFYSede-m-51" value="&lt;font style=&quot;font-size: 10px;&quot;&gt;private subnet&lt;/font&gt;" style="points=[[0,0],[0.25,0],[0.5,0],[0.75,0],[1,0],[1,0.25],[1,0.5],[1,0.75],[1,1],[0.75,1],[0.5,1],[0.25,1],[0,1],[0,0.75],[0,0.5],[0,0.25]];outlineConnect=0;gradientColor=none;html=1;whiteSpace=wrap;fontSize=12;fontStyle=0;container=1;pointerEvents=0;collapsible=0;recursiveResize=0;shape=mxgraph.aws4.group;grIcon=mxgraph.aws4.group_security_group;grStroke=0;strokeColor=#147EBA;fillColor=#E6F2F8;verticalAlign=top;align=left;spacingLeft=30;fontColor=#147EBA;dashed=0;" parent="ZNpQD6KD1uZFFYSede-m-30" vertex="1">
          <mxGeometry x="350" y="420" width="230" height="150" as="geometry" />
        </mxCell>
        <mxCell id="ZNpQD6KD1uZFFYSede-m-59" value="" style="edgeStyle=orthogonalEdgeStyle;html=1;endArrow=none;elbow=vertical;startArrow=block;startFill=1;strokeColor=#545B64;rounded=0;" parent="ZNpQD6KD1uZFFYSede-m-30" target="ZNpQD6KD1uZFFYSede-m-32" edge="1">
          <mxGeometry width="100" relative="1" as="geometry">
            <mxPoint x="319" y="50" as="sourcePoint" />
            <mxPoint x="360" y="300" as="targetPoint" />
          </mxGeometry>
        </mxCell>
        <mxCell id="ZNpQD6KD1uZFFYSede-m-48" value="&lt;span style=&quot;font-size: 10px;&quot;&gt;public subnet&lt;/span&gt;" style="points=[[0,0],[0.25,0],[0.5,0],[0.75,0],[1,0],[1,0.25],[1,0.5],[1,0.75],[1,1],[0.75,1],[0.5,1],[0.25,1],[0,1],[0,0.75],[0,0.5],[0,0.25]];outlineConnect=0;gradientColor=none;html=1;whiteSpace=wrap;fontSize=12;fontStyle=0;container=1;pointerEvents=0;collapsible=0;recursiveResize=0;shape=mxgraph.aws4.group;grIcon=mxgraph.aws4.group_security_group;grStroke=0;strokeColor=#248814;fillColor=#E9F3E6;verticalAlign=top;align=left;spacingLeft=30;fontColor=#248814;dashed=0;" parent="ZNpQD6KD1uZFFYSede-m-30" vertex="1">
          <mxGeometry x="60" y="160" width="230" height="210" as="geometry" />
        </mxCell>
        <mxCell id="ZNpQD6KD1uZFFYSede-m-60" value="&lt;font style=&quot;font-size: 10px;&quot;&gt;EC2 instance contents&lt;/font&gt;" style="points=[[0,0],[0.25,0],[0.5,0],[0.75,0],[1,0],[1,0.25],[1,0.5],[1,0.75],[1,1],[0.75,1],[0.5,1],[0.25,1],[0,1],[0,0.75],[0,0.5],[0,0.25]];outlineConnect=0;gradientColor=none;html=1;whiteSpace=wrap;fontSize=12;fontStyle=0;container=1;pointerEvents=0;collapsible=0;recursiveResize=0;shape=mxgraph.aws4.group;grIcon=mxgraph.aws4.group_ec2_instance_contents;strokeColor=#D86613;fillColor=none;verticalAlign=top;align=left;spacingLeft=30;fontColor=#D86613;dashed=0;" parent="ZNpQD6KD1uZFFYSede-m-48" vertex="1">
          <mxGeometry x="86" y="20" width="144" height="190" as="geometry" />
        </mxCell>
        <mxCell id="ZNpQD6KD1uZFFYSede-m-64" value="&lt;font style=&quot;font-size: 10px;&quot;&gt;AP Server&lt;/font&gt;" style="points=[[0,0],[0.25,0],[0.5,0],[0.75,0],[1,0],[1,0.25],[1,0.5],[1,0.75],[1,1],[0.75,1],[0.5,1],[0.25,1],[0,1],[0,0.75],[0,0.5],[0,0.25]];outlineConnect=0;gradientColor=none;html=1;whiteSpace=wrap;fontSize=12;fontStyle=0;container=1;pointerEvents=0;collapsible=0;recursiveResize=0;shape=mxgraph.aws4.group;grIcon=mxgraph.aws4.group_on_premise;strokeColor=#5A6C86;fillColor=none;verticalAlign=top;align=left;spacingLeft=30;fontColor=#5A6C86;dashed=0;" parent="ZNpQD6KD1uZFFYSede-m-60" vertex="1">
          <mxGeometry x="7" y="110" width="130" height="70" as="geometry" />
        </mxCell>
        <mxCell id="ZNpQD6KD1uZFFYSede-m-52" value="" style="sketch=0;points=[[0,0,0],[0.25,0,0],[0.5,0,0],[0.75,0,0],[1,0,0],[0,1,0],[0.25,1,0],[0.5,1,0],[0.75,1,0],[1,1,0],[0,0.25,0],[0,0.5,0],[0,0.75,0],[1,0.25,0],[1,0.5,0],[1,0.75,0]];outlineConnect=0;fontColor=#232F3E;gradientColor=#F78E04;gradientDirection=north;fillColor=#D05C17;strokeColor=#ffffff;dashed=0;verticalLabelPosition=bottom;verticalAlign=top;align=center;html=1;fontSize=12;fontStyle=0;aspect=fixed;shape=mxgraph.aws4.resourceIcon;resIcon=mxgraph.aws4.ec2;" parent="ZNpQD6KD1uZFFYSede-m-30" vertex="1">
          <mxGeometry x="80" y="235" width="59" height="59" as="geometry" />
        </mxCell>
        <mxCell id="ZNpQD6KD1uZFFYSede-m-63" value="&lt;font style=&quot;font-size: 10px;&quot;&gt;Web Server&lt;/font&gt;" style="points=[[0,0],[0.25,0],[0.5,0],[0.75,0],[1,0],[1,0.25],[1,0.5],[1,0.75],[1,1],[0.75,1],[0.5,1],[0.25,1],[0,1],[0,0.75],[0,0.5],[0,0.25]];outlineConnect=0;gradientColor=none;html=1;whiteSpace=wrap;fontSize=12;fontStyle=0;container=1;pointerEvents=0;collapsible=0;recursiveResize=0;shape=mxgraph.aws4.group;grIcon=mxgraph.aws4.group_on_premise;strokeColor=#5A6C86;fillColor=none;verticalAlign=top;align=left;spacingLeft=30;fontColor=#5A6C86;dashed=0;" parent="ZNpQD6KD1uZFFYSede-m-30" vertex="1">
          <mxGeometry x="153" y="210" width="130" height="70" as="geometry" />
        </mxCell>
        <mxCell id="ZNpQD6KD1uZFFYSede-m-66" value="" style="shape=image;verticalLabelPosition=bottom;labelBackgroundColor=default;verticalAlign=top;aspect=fixed;imageAspect=0;image=data:image/png,iVBORw0KGgoAAAANSUhEUgAAANEAAADyCAMAAADk3NBFAAAAnFBMVEUAljn///8AlTVCqWIAkCYAjh/B4csAkzAAlDMAjyIAkSsAjyUAjRz5/fvA4Mn1+/fo6Oigz63J5NGLi4vX691Trm2DwpV2vIoon02u17rw+fOTyqPU6tvO59aZzailpaXz8/OWlpY0o1ZktXzm9OtVr29uuYMWm0Tg8Oa4uLja2tqt1rk4pFmWy6VGqWQAhwDExMSsrKzR0dGHh4c56wiyAAAKGElEQVR4nOWde3uiOhDGkwgNRLy2BS9trVov1dbT7fn+3+2Adq0XEiY3JJz3eXaf7h8r/IR5OzOECcJ1E7r1CRhXOUQPvTiJew+lHKsEok5MQ0YpZSGNO/YPZ5+oxxj6K8Z61o9nm+hu4KFTeYO+5SPaJXp7DAk6F/Ef36we0yZRK/YDdK3Aj1sWj2qRaItYDs8+nNDQ3mGtET3NmhyeTM3Zk60DWyIazaPLALoIp2g+snNoO0RjRoU8mSgbWzm2DaL2ihdAF+G0als4unmi9ceVY3NvvfBjbfz4polGSa5j8xT4ielwMkzUo8UBdC5KDSdGRonaK68Y4UreymhiZJBovfOhAXQuEi0MJkbGiDpJKBNA56KeucTIFNFpzaAiRk0lRmaI+gNRygNTOHs2ci4miN7migF0LuIbSYwMEMWerGPzZCQx0iYaUr0AOhdD2omRJtHzR2iQJ1O402wZaRGNzATQuYIw0eoY6RCNQ1MBdC7qvdyECFozqMgb3JVO9LAD1wwqIqFyYqRG1JGrGVSU1hlq4aRE1AMU3fpianWGAlF/oFIzqEipAStNlNMmtSeVcJIkasWR7QA6F5VuwMoRbYk9x+ZJtgErQyRuk9pT80OmAQsnKmyT2pNUAxZMNDZWM6hIos4AErW5zxnKErgBCyJ6aJTo2DyRsAFqwAKIRknJjs1TEEEasMVEPaNFqp4giVERUV+pTWpPxYmRmGj9aKFI1RPxH8XhJCJqxRptUnuioTAxEhBtg+oE0LkY2SoQPRtok9pTc8BtwHKIDLVJ7Yn4c06dkU9025QHJurlJ0Z5RMMb1AwqYiQvMbomSlOeW58qWGHjugF7SdRZVtKxeQrC5WXH6ILoxYEAOtdVA/aM6K5iKQ9M3uqOQ7Qus8tjUiQ8TYyORC37bVJ7CvykdUlUpZpBRb91xoHoodIpD0zNwcMvUa/iKQ9MxO/9JYqjW5+MIUXxgWhYF6AUaZgRjdy2hHPRUUqU1ImIJRi1XEwT+PJaqF0zojaKXUtNxaIxmrub++QpmKOd1i9XElAaGP31TPQ+j+xQQ/n/E9Zks0WyfBwwz1BZxULUWM5nrKn8caShTuStxseS+G04p572pWLo86cq6C9VvyJ1Inr5dLSz1V0U4I1PWqXrhVrurEzUnOc0arda9x67eNg69lU+RZXIi695suuk+MVmCq/68y8qPSlFIjrPBUr1qfTFpgpzWm9LhUuuSET4zwa2aol87nfUUcg41Yg80ZKJrVL/0sttYr/II6kRMQFQtjJS+gN5t7FCFq1ExI+igxby3yzvqi+kUzQlosL3jj+kI/ra6A6Sv+2UiLyipRIjJPuZPsdq5EsdNaLCVbEPsh7ucz7oripEuC3p4dUnwmO55MEBIjyXimkXiPBMxnidIOrIGJ4TRPhB4mzcIJIxPEeIJDI8V4jwEmp4zhCBMzx3iKCG5w4RXsNCySEi3AYlrS4RwTo6ThGBDM8tIojhOUYEMDzHiPC68L5zjQjfFWV4zhHhlwIPd4+oyPCqSiRaKb8TGl5ViXYCotZKdJyqEv2T/1TpoDfRyVWVyPdF/eO+IB2qLBGKRC8H9fhI1SVCTPTSNH9NVYWJyEpkeA2e4VWYCFElw6syEfISAdKac4aVJkJiw8vP8KpNhHyh4eVmeBUnKjC8vJOsOpHY8PIyvKoTiQ0P5xhe5YnEhvd2/Yu2+kQFhnflDg4QiTO87SWSC0RyhucEkZThOUGEaENA1FqdPXh2gwixpQDp7ewiOUKEQpHhPZ9meK4QIV/UBzs1PGeIkCcadxH/nq47RGLDezzGkjtEYsPDR8NziEhseCNK3CNCoWiS6HPoIBGKAIbnFhHE8BwjIivRGNH9WmrHiBD9EBDhQeAeUbHhOUckNrwn30EicYY3jBwk4r5HsFf8j4NEBIkMj9cNqzKROMPj0VaaSGx4ThKh8LNuRCiS3nmh6kSIye5IVXkiseG5SFSQ4blIJGt4t37rDbJsWM7wXCBCvozhOUEkzvCcJJIxPDeIZAzPESLECl7jdo8IhdCh984QgTM8B37DHj8DtrWWQ0RAw3PnrkMoGNSNCGZ4ThGhJsDw3CLaD22sFxGKCg2vLCLOdzuSHUJDSNEWHyURMU6JA3xT9ESFhtcrZ3JLwOmAbuWn6rCFmEh+AKLaBKQo/5G+/HCf1PBEL49gXNIEJM7AoJyljQAJV9ooXHXV2Wh5F2muNrwu4iN1ypuNRnOWod6p7oDgc2+8RXlEOfeKvNEd5e3yTXypMoVReWri5Rfb15kBGeQ91GwtlD5SfbKldzpsvxVrjnD3VtuL0BwStbDUmD4ahMuf5cLrT/1dUYhHk/Zxre76RXmbCJ15qoh63moxn9GmmXHa1GvS3TxJFtknqo+tbehN8SUB1fnv159HdYcCk10NJy3Xbxp2/SaWd2pG1Knh5H88qlMg7XdnqN8OGnXa5SRrmB12ornZfsMmRaLjTjQYP9Vit6DDyPO67uiEa7jrFq7fzmiZ6rZ7Xaa67TCIa7gLZObkNdupM5M7u6nmPSX5f+x4i2u4KzGu387Rmeq2uzeu4Q7sOEuMKhdOxH8ULzkUE1UvMfJWolEWEKKszqiOk//WDDpEeJRE1QinIEqKlgvAiPZbmN8+nEjYAK3ZBRFh3Ea3dnK2Aq4yBBLdOjGiDLoQFE6ER/ObdYxINC8KoO73pitLlCZGs9skRs2PJ/GJvb7fT97fJ/dfskRpYnSDOoNd7mV4pe79V+sANn2VJUoTo5KdnPrClOcA1P374/dUmiitM8rsGJFwIRoNddB0k0JNp9PJBuOvd3miNDHS3cASLG9WlPKk2kwOl6n1lV2r6asCUbbsrQwnh6Q8qd6//95495vsX0pEuGO/ARv4CewdmGk3I0otYZP99f2uRpTWGTur4QQKoB+ilKM7nUymk/QHvFEmShOjlT0n9wbwqeiT/TXadLuT9/Rf31/qRNluQHbCiXqgAPrRMY72t96fjQ4RHi0tlLhBCAygH3Wn6Z9/M2dI/3q9V3HvUz19mG7AhjvYay+/+vOFX7+yGEr/mnzrEmE8NPoojSHpd89Tb/g6wv1RyBmuFRurMyRqhjNNsnQBt76nmTcYIDLVgCV+Yc3A02aSZkHTP/v8zgQRxn0DiVE4K6gZxHp9/fnBDFGWGOmFEwuK33SByRRRmhhpNGCpV1gzgGWMKEuMFMOJROCUByCDRFlipBJO3gBQM8BllEhloQewZoDLMBEeydUZ4JoBLtNEaTjBG7DEh7VJpWSeCF5ngNukUrJBlNYZgLJdNeUpkh2i4gYsoE2qKEtEaZ0hbMA29VIekawRpXUG93lGcZtUQxaJcCvOdfKguE2qI5tEuQ1Y4j8aTHlyZJfougFrOOXJkW2i8zqD5b94alT2iXBnTENGKWUhHZtOeXJUAlGq/kucxC+277eDyiEqU/Uj+g8Z08IYu4agGAAAAABJRU5ErkJggg==;" parent="ZNpQD6KD1uZFFYSede-m-63" vertex="1">
          <mxGeometry x="50.7" y="23" width="34.55" height="40" as="geometry" />
        </mxCell>
        <mxCell id="ZNpQD6KD1uZFFYSede-m-73" value="ALB" style="text;html=1;strokeColor=none;fillColor=none;align=center;verticalAlign=middle;whiteSpace=wrap;rounded=0;" parent="ZNpQD6KD1uZFFYSede-m-30" vertex="1">
          <mxGeometry x="288" y="106" width="60" height="30" as="geometry" />
        </mxCell>
        <mxCell id="ZNpQD6KD1uZFFYSede-m-77" value="EC2" style="text;html=1;strokeColor=none;fillColor=none;align=center;verticalAlign=middle;whiteSpace=wrap;rounded=0;" parent="ZNpQD6KD1uZFFYSede-m-30" vertex="1">
          <mxGeometry x="63" y="212" width="60" height="30" as="geometry" />
        </mxCell>
        <mxCell id="ZNpQD6KD1uZFFYSede-m-86" value="vpc" style="text;html=1;strokeColor=none;fillColor=none;align=center;verticalAlign=middle;whiteSpace=wrap;rounded=0;" parent="ZNpQD6KD1uZFFYSede-m-30" vertex="1">
          <mxGeometry x="24" y="-4" width="56" height="30" as="geometry" />
        </mxCell>
        <mxCell id="ZNpQD6KD1uZFFYSede-m-87" value="10.0.0.144/28" style="text;html=1;strokeColor=none;fillColor=none;align=center;verticalAlign=middle;whiteSpace=wrap;rounded=0;" parent="ZNpQD6KD1uZFFYSede-m-30" vertex="1">
          <mxGeometry x="350" y="540" width="90" height="30" as="geometry" />
        </mxCell>
        <mxCell id="ZNpQD6KD1uZFFYSede-m-88" value="10.0.0.128/28" style="text;html=1;strokeColor=none;fillColor=none;align=center;verticalAlign=middle;whiteSpace=wrap;rounded=0;" parent="ZNpQD6KD1uZFFYSede-m-30" vertex="1">
          <mxGeometry x="60" y="540" width="90" height="30" as="geometry" />
        </mxCell>
        <mxCell id="ZNpQD6KD1uZFFYSede-m-89" value="10.0.0.0/28" style="text;html=1;strokeColor=none;fillColor=none;align=center;verticalAlign=middle;whiteSpace=wrap;rounded=0;" parent="ZNpQD6KD1uZFFYSede-m-30" vertex="1">
          <mxGeometry x="60" y="347" width="90" height="30" as="geometry" />
        </mxCell>
        <mxCell id="ZNpQD6KD1uZFFYSede-m-90" value="10.0.0.16/28" style="text;html=1;strokeColor=none;fillColor=none;align=center;verticalAlign=middle;whiteSpace=wrap;rounded=0;" parent="ZNpQD6KD1uZFFYSede-m-30" vertex="1">
          <mxGeometry x="350" y="340" width="90" height="30" as="geometry" />
        </mxCell>
        <mxCell id="ZNpQD6KD1uZFFYSede-m-91" value="10.0.0.0/24" style="text;html=1;strokeColor=none;fillColor=none;align=center;verticalAlign=middle;whiteSpace=wrap;rounded=0;" parent="ZNpQD6KD1uZFFYSede-m-30" vertex="1">
          <mxGeometry x="24" y="10" width="80" height="30" as="geometry" />
        </mxCell>
        <mxCell id="hSnK9M6xgHZ-ZspLLLny-1" value="&lt;font color=&quot;#ff3333&quot;&gt;alb security group&lt;/font&gt;" style="text;whiteSpace=wrap;html=1;" parent="ZNpQD6KD1uZFFYSede-m-30" vertex="1">
          <mxGeometry x="273" y="43" width="110" height="25" as="geometry" />
        </mxCell>
        <mxCell id="hSnK9M6xgHZ-ZspLLLny-2" value="" style="edgeStyle=orthogonalEdgeStyle;html=1;endArrow=block;elbow=vertical;startArrow=none;endFill=1;strokeColor=#545B64;rounded=0;entryX=0.75;entryY=0;entryDx=0;entryDy=0;entryPerimeter=0;" parent="ZNpQD6KD1uZFFYSede-m-30" source="ZNpQD6KD1uZFFYSede-m-45" target="ZNpQD6KD1uZFFYSede-m-52" edge="1">
          <mxGeometry width="100" relative="1" as="geometry">
            <mxPoint x="30" y="270" as="sourcePoint" />
            <mxPoint x="130" y="270" as="targetPoint" />
            <Array as="points">
              <mxPoint x="124" y="88" />
            </Array>
          </mxGeometry>
        </mxCell>
        <mxCell id="sWpOQSRF8GIG0QyO_1Pz-2" value="" style="shape=image;verticalLabelPosition=bottom;labelBackgroundColor=default;verticalAlign=top;aspect=fixed;imageAspect=0;image=data:image/png,iVBORw0KGgoAAAANSUhEUgAAAT4AAACfCAMAAABX0UX9AAAAxlBMVEX///9JmEhNTU1KSkrt7e3j4+NFRUVISEj7+/vn5+dERETx8fHr6+vv7+9BQUH8/PxElkNWVlbY2Ni5ublBlUDe3t5qampkZGQ6Ojqjo6Orq6vOzs6cnJyEhIR3d3dfX1/Dw8N/f3/i7uKPj4+/v7/r9OvO4s45kTiMjIyXl5fY6Ni92L211LVRnFBmp2X0+fR6snkyjzFaoFmfx56Mu4ypzKiJuIl2sXXT2tObxZojiyGBtYHG3caw0a/S4NGtya26z7qMtYtXJ3NbAAAMjUlEQVR4nO2ca2OiuhaGFTQgKoKiRfFuLdZWrbTW9tSZPfv//6mTrBUQ8DKOM7NRyfsJAqTxcSXrQmwmIyQkJCQkJCQkJCQkJCQkJJSsFg/fx7EmNZGBXKnGn/O3aaTl+XWR0FiuUsP3/3nPIRNcLa316mnzMJ0OxwLkCZp+WbP107iCZ89u1rAsI5udzWbe/OX1IT67heKazpdu9gtt8MnNbmUYljt7FwB/po3nWtbSW00rz1Y2JsvaJD28i9d4NbPorM2uvTg9aoNZwe+nGr9aFkO1R4Y7THp0V6Dx2356lN9crH8n6ME7wM/6SnpoV6HpAXxZ9ynpoV2DpgfoZQ1PxNA/10Hry1qfSY/tCvRwEF82+5D04C5fm8P4jHnSg7t8Pe3kHCHv8S3p0V28juHLzqY/7yDdCvC5lruDz5gL73tcG47P2GQ2uyG0FU8+FsPpZvX2Mvc8b75+26SeLve81hs73rU/y9tGz+PN6n3tGa5lGVRZViWcr1IOkIfNBpQI3nYXQsOdfT5tnlZva2PpQlU1ctWy0g1wgRhe4GR/FGOBDgU41jzV4eGcWZyLCIYHEB2VYb0m/BGS1NBzreUKjyt7SqcnyE1zdWv8+hbUludHUrgjsjwRIDK9nIcvaxipXgB97XG9gt/pej0XX9bwUrz++VqdjS9rvSQ9+OT17Xx8WVe4j9+wPhp6V5IeftI6f+3LBrF3inW25wXzWyc9/KS1PjPu4/xSvrXj27nckLqRaudb+dyt951G73WNkz7NO2MW6zMXPsNbjLFQDUXXdGo8Pzth+6IRDxqul1bzm87OdrruMzXdGR6m9NXm9NBOtVPwsXQDI0ZjlvQHSUTT2W9ELEv2toO/M0ll6Dw8MHEN4xSqmOyuU+s8FpEi8/Z4/jL3ZqCA5j6cuBWLb9Cfpe/F29s23jPc2dp/W249w9XKYjEeD4fT6fTh4eFry29rsVDqG3Pnkbpdldsdktbs62FRGXNj3LfBb7sd0PsMDvHGT3QeqUt8P7kdWdbrMNywb4Pa0NsiWwVGC9nGdImzN22hH7ciN/hpoF80Xe6uY4t1aGb73KnJsTvRaK3Vfzr4xDVGqzGegxZ/r4v7vHu3/y7Oomvc4sXnx8787TKzdFVNpwArXC1ZLLlRfe2S8H2Hy4pTCz9cxH3kq+Uh6DesDeCLvKkIdqrtrmN+QRXj4yDctiBbe55ZRto2BeJUtcKf2a/Z7zGk9wi+7c8xPTDU4adHQ59UOQ+cvG4Y39CPk3d9bzB5ubV+89fJtFaa0XVEw93glVHckALPG+Dmszm9P+Jaxl3H1idY8dkbhNTbTWmYs6R3lwGfqJHZ98Aj53XM9/IdgJHKwDvGe2mstTDx6C36KwQ+fa2YF53yWR02Naw4pPY3XL6lua8hU6t8QWu8fIyeNpZZoO/2/oOhXqR8RxGZksOdaJoJ87RZdJ0bQyLs/v2BXqheMfqIbpJCHxsL4qAxXlVBd+ym1Xew9+OAJbL64X/YiNXvZvtivAoEg6ms03M9UH5udPHf7KnfLay90SCkIqkNnJnGL8u3aJCC+KLhMDheLE+FBaFz+urMdN4xqUyL70Vf5XI5lyv/g/h+5EqBctBmvRfLeCM8qFYqqcKHvAJWOS56wAgFrDAa9j5Kha1g+6T1WshHVPgXmp+AZ9Kf7q8pQo1bma/cVj4+dMbvuRA95OT+2IvP/eGflsrFm8MYAXcCvu9YiPkRNr48qzUby4/9+D4ibYXiLVWdK7v0juLLvboG+71fIYLvyzJm838LcXw/XKplPtZ6WwZYUeMGeBTfj7nnzbyI8XFshTi+fP7j46NeD1leIVe8LXhcW7cRIrd38uZKHx/fP0pRfBGMuyqUcmzZU29p2h4UBixq1BrDzqN0AB4IGVP0PIJJBbKjqmylHpR/R9KDFRISEhISEhISEhISEhIS+h1B8i/y+7OUvx81TMm8647u80mP5epU70iEyCCimR0B8JfUkogsyZqua7IkSTKRWuViOV91+jdZRv/DUjs2g2Y2+07rTpHYsWZT6XaveGofhUFvVPqbg7xcjQgj1iuw41wD+KHkxqmOJNfTZL17Muxb0r3OUCkOntV9doQQvXFqH03Wh177W0O8YBV7bL1TBv4yB7ZI9dgeddqndjJgNktGf2mIl6w+GJ/W9M/RGCWp+iudAHPtZNo3JDAcSe/75wUb527/8CO7qurUc0v1Pz22y1exIQO+rbGdgy9ToyF3Gpe+vAn47Dg+pf9r/RSquT87sOtQ3QRauhO08LUPG+B1N7+AL8Rx/xVryzv3jp+fhO+jKtad+3unHotkaGs/3Ig5dqXar5b9zjOZUrXv5K8mXK+j9W3XPrQ+2cSFrNPtdhv8A/fpcbeV6TdoUy1Tn0i6rpsjMLrigF7q+GCKzQa7pkvdVoiD2mrItFFu+I3qhD7kqBOi2+1MnXXezqjtnq7b0uBaltESxC0hz1tEfDzk6xFZsTmWmq4oejtTs2VZb9Z0gvkJcM6Zikx6fPrWCOR+7Kpu9v1+qz1d9hvvoUVtEEW7H1Brt51MVVYUbeKYeBMJfZ2XrS54XmXgJxgOTF69hWcMboCPAiMUH7uhJ/vhtdKjxlSmNizfIb4RCa5RVgrvyJG2rbIGjSrzWl0wdTVTZRdM07/Jt/6LV4uvdf4q1tRg9GU8O4SPcdOQE0s2Qvia3PVQ4aoKplZFetTEgmcQH31Ot0cZxMfuINgr6fzXIM6Tit+40sVTXAsDT3IYn9JttnsKHKghfBiFE6k7mXQldhlS4SL0qkjdzsCEDJvFiICPLhO1phPg0xqP7QYsC/aVFG7vNQz0HtmKXmAlA5m0/IsH8Wk1envujtlPr7TFV4FZTTrMd6r1ASFSkz3dYn9DG1Sp386P2DGZ+NbHZyniUyaM9USJhlKXrTYu15o5ag80OnISivkO4SOP0ORoOO8DfPcktHDSmYyVVzA+MvD/HrvHLiA+3hHi4yWeIonGAheumqnxZUehy7oULjYftD4ob6HflusBvkpHYW5o+zzOQOaOmJFyMWzUewA+n1I1HD7BhetJYkotk8YKTLb0GHF5B/D5cU2xG8UHC6nsxPtva1szy2BVQukgPhu/B+55ucNiX8IV4as8EmXUr9VqTjzzOoBP4X5RZQWHEL4Sdbvy3U7OwO4K5TUFmKdFwKfxzqvYhidsel8PvmKXHKrVNWL4aHjN8PmmVInhq9tbywyJxZa+mWVYbRruRs8bwhcUHVnwdDX46g1N0g9EqYDPzya0LT6/tNeJ4qsyfN2dXrry7eKrm9GpFVHYbgBfC/AFOd4kiq+w3/qOTN4Ivg7H17oefJUOxLGNfqlcyterVaffv+8HlRT44DwCgw91fxRfUWORXCH+Nx5JOKsGR0zd803gw4SApU4gHWXbXbCWx9AizirypH8Un8qsNQSKqw+BS1CpgptaN4Iv9GYyLEWZVDLczUL0VgbO1aP4ML2Qg4Sh1gYgRZbxKv56WYNcLn8j+IIqR1w6da9VyMFYFqGySS73ysfx5SRIxHhFqqnoXQiWHxlVvQl0apC0DTK3gQ8/2n5+dZyNktJ4nJgKT1WP4uPmR+4eW62ORFiZoJ9h9UD4GsxOe8JLBtVbwVds6Hz+whahED6Nml/N5vkc5sX1n+FTuzwB1DSsTdlwK2Z6skJ4wYo13gY+urJ3WH3Xlk2zZ5qyrfv1TghBBiHjhFrAcXyZ4l3YmmWdB9g1O1QutWEZvBV8ZRrWjvoF/J8X5ZKDdTyWfpVZShKU3hVAUdNZsZ4/2iGyrETwZcodEngjzQyKL7wuweawhE8zfPIWnyyTAJ9+RfhqdDnqR1rKA3yRAduG1JZi65qm2z28qUatVPKpTCTTNOvwrkO58xNmp0HjH/YEmYSKN/UR64a2drhjVu/obcTHR/uRJgE++g1dB756V5exoB6SivvUeI2pUq21Wr+06bTYbzVbtWqsYKw6tNW5qX1YDjU9ubu3RkKn40191L8hEzOAuKAivCf5F4ooz+ISslsvgPdtJI1bpn5J8GJsDz7YcXY1b2sSE773iXuOTAZyr8bVbDVJSrCnYHeSOmxOa9cROiSpIm6qj1XoYNMfOXlnc4oFJQES3RQPdQK5J34c83M5ECCTbsj+8l1WmtKF3zhFuEVI0TsO+z9masEZsAKMfids7zS1ZNyipvTYvsce2xhF5FEqt9qeJZrhE1bnw58EygpN6g+8dxPaK2fUMHUokuhSb9ASlverYru2a61Wzamn9Id9QkJCQkJCQkJCQkJCQkJCqdX/AbM6HI/ILY/3AAAAAElFTkSuQmCC;clipPath=inset(2% 23% 6% 22.67%);" vertex="1" parent="ZNpQD6KD1uZFFYSede-m-30">
          <mxGeometry x="180" y="313" width="47.25" height="40" as="geometry" />
        </mxCell>
        <mxCell id="sWpOQSRF8GIG0QyO_1Pz-1" value="" style="shape=image;verticalLabelPosition=bottom;labelBackgroundColor=default;verticalAlign=top;aspect=fixed;imageAspect=0;image=data:image/png,iVBORw0KGgoAAAANSUhEUgAAAeAAAAHgCAMAAABKCk6nAAAC/VBMVEUAAAAAAAAAgAAAVVUAQEAAZjMAVVUASUkAQEAAVTkATU0ARkYAVUAATjsASUkAVUQAUEAASzwAR0cAUUMATUAAST0AUUYATkMASkAAUj0ATkUATEIASUAATz4ATUQASkIAUEAATT4AS0QAUEIATkAATD4ASkMATkEATUAASz4AT0MATUEAS0AATz4ATkMATEEASkAATj4ATUIAS0EATkAATEIAT0EATUAATD8AT0IATkEATUAASz8ATkIATUEATEAATj8ATUIATEEAT0AATj8ATUIAS0EATkAATT8ATEEATkEATUAATD8ATkEATUEATUAATD8ATkEATUEATEAATj8ATUEATEAATkAATT8ATUEATEAATkAATT8ATEEATkAATUAATD8ATkEATUAATUAATD8ATkEATUAATEAATj8ATUEATEAATkAATT8ATUEATkAATUAATT8ATEEATkAATUAATD8ATkEATUAATUAATj8ATUEATUAATEAATj8ATUEATEAATkAATT8ATUEATkAATUAATT8ATEEATUAATUAATD8ATkEATUAATUAATj8ATUEATUAATEAATT8ATUEATEAATkAATT8ATUEATkAATUAATT8ATEEATUAATUAATD8ATUEATUAATUAATj8ATUEATUAATkAATT8ATUEATEAATUAATT8ATUEATkAATUAATT8ATkAATUAATUAATD8ATUAATUAATUAATT8ATUAATUAATkAATT8ATUAATEAATUAATT8ATUAATUAATUAATT8ATkAATUAATUAATD8ATUAATUAATUAATT8ATUAATUAATkAATT8ATUAATkAATUAATT8ATUAATUAATUAATT8ATUAATUAATUAATj8ATUAATUAATUAATT8ATUAATUAATUAATT8ATUAATkAATUAATT8ATUAATUAATUAATT8ATUAATUAATUAATT8ATUAATUAATUAATT8ATUAATUAATUAATT8ATUAATUAATUAATT8ATUAATUAATUAATT8ATUAATUD1bFVYAAAA/nRSTlMAAQIDBAUGBwgJCgsMDQ4PEBESExQVFhcYGRobHB0eHyAhIiMkJSYnKCkqKywtLi8wMTIzNDY3ODk6Ozw9Pj9AQUJDREVGR0hJSktMTU5PUFFSU1RVVldYWVpbXF1eX2BhYmNkZWZnaGlqa2xtbm9wcXJzdHV2d3h5ent8fX5/gIGCg4SFhoeIiYqLjI2Oj5CRkpOUlZaXmJmam5ydnp+goaKjpKWmp6ipqqusra6vsLGys7S1tre4ubq7vL2+v8DBwsPExcbHyMnKy8zNzs/Q0dLT1NXW19jZ2tvc3d7f4OHi4+Tl5ufo6err7O3u7/Dx8vP09fb3+Pn6+/z9/nFq2V4AABTfSURBVHja7d17nA/1Hsfx2V3LZlMtJZeEbdEhcilODgnFSXRBIelyatVJthOSlLPlVJvKpYNscUQ3llB0YymdDnIpIiSrkpTboqW113mcdd3f/vb3/czMb+Z3md3X80++852Z7/v3m535XuanaQAAAAAAAAAAAAAAAAAAAAAAAAAAAAAAAAAAAAAAAAAAAAAAAAAAAAAAAAAAAAAAAAAAAAAAAAAAAAAAAAAAAAAAAAAAAAAAAAAAAAAAAAAAAAAAAAAAAAAAAAAAAAAAAAAAAAAAAAAAAAAAAAAAAEAYeED3rUShtroSLUjAIGAQMAgYBEzABEzABEzAIGAQMAgYBEzABEzABEzAIGAQMAgYBAwCJmACJmACJmAQMAgYBAw7AVeqr0QLloWAQcAgYBAwCBgEDAImYFqGgEHAIGAQMAId8MUpStb2VvmC+PjLWiXEx53r1PFXrhEf37BVq6bx9eIqB6G5zq3oQCU129xyz8DhT6aMHj44sd818RVDH3Abm8OFkQl/HTR+4ZqfjhZvl5Px6YxR3c7376ArNug6MHnKeysz9ud6HsuhzcveGNmjnqPtU6Hh9Xc9Nu6tZZsyfsvMOrGX/MzMnRlbVy38T8ojd3RtUctSbdW7PfXhd9leTVjwy/Jx/Rq4NuDa/V767LBy8++nda1g5XCrtr9/4tIf83XJoUUPNXKiaS7tO3rOphzdwNFv5r0wsHP9KMPqYrq99oNQT+ac/lVdF/A5t0zaatRA+r7JDU0d6YU3JC/arZu0I7munVaJapk09zfdipwNM/7RMU5ZYXSvtCzDOvKWJsbavN7Uu7r3iav/iOGD+13XKDqgAccNSDtqrnEK0gy+cVEtHpq9U7em4JPO/v5Z7/n2Id0/Py5I7uHryjz8J5MVHE5t4udR1+8z9tMf87w+MdveemhsYAKOvmlhroWGyR0RqQy39eMf/+5fc6df6Ue6t6Ud0e2YW6rKi6blWNi+cK71P8dxt8/ZY/U4bQWckPKr1f0tq+2rogYPzj9oo7ELX7F4Z10zeb9uUxuvKmOHZ1msITe1hpVjPjtxca4fx2kj4FYz8/3Y4U++7n432G3urVdYaKpWM/Ps7k9f6lVnv9/8qOTQnaaPOSHlgH8H6nfAHb/ws2m21QpAwPqxW8w2VeMPdAdcV/Kxeaaf1bxr7gGy2QeF/h6o3wHP8rttVkUFIGA9/y5TTVUrNd+JfNdHeFbaYaffFe1uZ3zMte0ccwgC1ocGImC94GYTjxdPHtUd0dez1jtz7Vx6+hk9yo2wdcx+B/yO//vMviQQAet/GP4drvdfZ+LVd3j22gwvtFVXYbJ8zMvtHWooAtZTAxKw/kMVOd/eBx3KV3+guNKIV2zX9k/hmO/O0kMU8Ns2dpp9bkAC1ieKHdsznYpX33NWcbUvOFBfkuqYI5Jt1x2SgPV7AhNwwZ+Fx8iPHctXf7y42kGOHPetvo+50tu6SwOeE5iA9cXKfGt85Vy+vxf3Rd9e6EiN2Zf7OuZYJ24Z/A74LTt73RsRmIB11Ve4/g7n8tVfLO5++N2hKjf76Iqr+JHu2oD1iwMU8BuK0cctDuabW+fMJdS5y0Jq6cej2bqLA74+QAH/fpbP+6ulDuarTztT7zgHa+3mfdAv624OeFCAAtZv8nUv+oaT+RY2Pl1v60IHq91eqeRB99JDHPCbtnb7VKACnuwj4EedzFeff+Zz84Wj9T5ccnrcgVAH7PNbUZjx4dTkxN7Xd76yc5d7n1+r/oRPCVTAX/kYXch2NIgz93H9TBTO25aelrboy8MmimZW8+xT/VIPu4C3TrvnCq+ZKJcpu9nmWQv40MYPZqamTk1LN+zVzyt1Oxpt7k7o6Oq01ElF00cnGpT77MzcK8NjOTC+c8ypwk2GGd/meXZZDtZDHnCJfqE9r/eu7vNJfZmiui9MB1yw+tlbPIaQa/UxuDCWmt3xlImeqdSeCaenmtRS9yg+PPSVVX+cuT2816DSfUkxJW4EbtxmsMFvxX+Fq+0Pp4B3jWmtnIjTWHGV3mIy4EN9Sg+YtvtOOqE+3k/ARkM9h//d3nP8sqayYLMT187TT/AR38jVLix14JUmGxxJ8fD/q2ai+37BhMf+npg4aNSUxfsCF/CR1ztFSj3AG31Xt8NkwD/6nJq0VjjtEV6Fpxs8V4306he/QA74jE5yvS9E+DjwwYXm7h8aFxiFm/VWT88/2Vr8/aucDnjG8X/NGHKewQid4mZ7l52AtYuEK9irJYs2ksfK59T0rvs8ZdkWJcq9L+fruzWGyrGdfgCbahDv7iHnBn5edFHAK3tEGg6xKx7X99gKWLoHWWChyzyzr48OYGXpEtPsqopX/oWqhpGfyEee6jc/JpbKH1MlGBPfZ6zsbmaKzIuKprUXcBX1JIflJeeqSRe7Xb7mJldSFu/gWewu8f7qQuUSgV3SdutOFhotf307BGdlQx1zU9wUAWfZC1hT99NuKFFOaqsffK5uilSW72L6Cn23uj3Eh+fCE0cUJU7QzKgfwsVn5gM+ZjPgO5QH+lOJtISVBn+08l218jt/o+clROo82SIsYIrcKKV3Ypy8o1TilzqaKwIutBlwC/Xl0eytbn9F1crobvModIMUwn1Sg/zNcExJmgOU3UpzR8C6zYBjlDfHh5S9MSWlq45YOcQ7wKPQ09KD9dlSg8RK3Zbrj1+hpdUpj2phFfDZl3ZYGJiANeXNylHP66G6xz6vqapm5TaJHoUWCyG8JTeKdF+fX/TZ+Ivw/xsqhEfAsc1uGTYlfUuW2R40PwJWLlfN8SjUXL3/NOXB71VtMtjjkyMtS7xNbpw+0jW6raaNEP5beHAJVsD1eybP225inNRuwGuUd6IehR5W77+T8gyU6+mGFZe5VLoVri63UA1dvjEQ7s83RoQ04MiWg9NMr9y2G/BnZmqer37YUDfVz6ptniwu0104s++M2kmaHvaEFrFX/b8Pa6ELuHL31F/8HuTwI+B0EzVHqP8ECzOof1Bt86/iMg8JZzbbqKnmCRtP1RoKA2sXhirg6B7zrKx9DlbAF6l3L6xj2q7a5rniMi8JZ/a0UcDPCRsvkS4Oq7XQBFx7jB9rY4MRcAf17qupT2eriQGEd4UzM1zlKD0Jb5C62Z8LScD1J/g1IyYYAd+nLLNHaKlvVRu9VFxmtXBmXY0CljpJtmvj1f/ZKwQBxybn6Hq4Bvy8sswXQkspB/LHF5fZLJxZS6OAr5RGErT31P/ZMPgB37Zb18M3YPWFdIbQUl+ZuDGTXqaTYBTwn4SND2nr1M9fMcEOOGaCrodzwCuUZSYILaV8wvaYkStMkfFetFFavLBxrvadX39XAhJw3fV6eAesnjX1rNBSK8WRgJOkNfc1jQIWbu6L+uGUj+H65iAHXDdDD/OAlQ88p6dO+KRc0le8ZEWT5gEZDpTXFzY+qGUq/++r4AZcf6ce7gGrn95GCC2l7CObbu4bfImdv8G7NPV0nRVBDThmnR72AatfZSe9FmOJaqOZJgYkilxuFPAVwsbbNPUrvNYENeDpevgHrL6QviC0lHJV7tvm7qKvNQq4m7Dx1+rhaH1jMAO+SXdBwOoemDeEllKNYOuzzD0H9zcKWJqv94nwd2VnEAOuuM0NAavHGtL9GQuYa+JOu8goo4Cl2SCp6rEOPS8qeAEnmYgwe93csUk3txoauoDVU1R/FloqTbXRPDOTOnX9TaOA04SNR6h7SnX9oqAFHLldzvbw+6N6Njj1ebs3dAELlxn1K73VK9sXFZdJEU5+o1HA0jrDvprw4pXrgxZwFyndNY9d6XktCWHAq/xqqxkmruv3C+dfYLCap6o036WNtPZhZNACVq/uP5rq3dcewoCFa+GL6paaZmKEoqv0CTdY8XGjsGlerDRVPz1YAUcopy3NL92NE8KAhWH57eopO6kmnkNrSQG/Jgf8H2HTdeKy45wqQQq4qZVrSAgDfli8FqpMNvPHVerG2yv+QFIlaaBisjxX/54gBZxoZYwmhAFLU+Peth7w9ybvhOV5s32lLe/QtPOFP9Er7QZ8lbmAFasVdlcOs4BrS3/tGloO2PPZ6hEpplWaP4NVx9WT7/31zjYD/ou5gBWTDnzPNgthwNpusc/IasD7TPYn63oPdQ7SVeXkeJH0Utw1UfYCbm8uYMU4cNewC3ih1Jp/sxqw55LXCPEHknYoVyedJXYBjpSSOsHm2qQO5gJWDAQ3DruAH5fa6o8rLQac51lqvPgVnqw6bHmzEy0orZrQj7WzFXBHcwErnpIuCLuAm4vNeaC5tYB1z5Vf7eS+vIHWxxl0fdPJQuIK4v1N7ATc2VzAihGthLALOEKelJB1s7WAPSe9Rf4sVp3v84mmn/x7TfefLPWk/LG8ykbA15kLWDGr5LqwC1gz+j2FmRf6G7C4CLBI4fPR3hVHJctvRzpw6inkUrnmnGGRfgfc1VzAikVI48Iv4GuMhryOjve65DV79HtzAVcz+rGbr68pWXPrVQYbnFm4YPSeynUd/Q24h7mAFWNJh2uGXcAR3xkPa3777/6tL6yinVPz8p6Pvyd1M5UMWJtiWPPKe878OGHVfsuM1tRmnxkNNH6T8Jq7q/oV8K3qIRLPYv9TFFpaOdwCNnrzmDUlA25g4uewCre+O2508kuzvzHx02XFK4+iTEynyPs8pVfzUyuszktof/uwJWaaQ/3umlzPYsqfTFrro4d3cEgDPv+PgAWsjXXyw6PvOae45oGmtzqYmWnw2THzbTt+/fAsph7uLlzxSPsTH6sKcfWadEp8/t31WXpIA1a+BMaBgM/51cmAPftdKm52rt4Sh/ygstgRz2J9DD9Wx6ztN4ABn3/Yubbyeum+hS+asS9KdEK2LwxMwOou9N/NTs33a78BDFhLdi4E747gyMWOVX2wnslpJfYaWv1sd1Az8ZwUlgFX3uZYW5WaJFDdsYu091tRL9gdkIDVLxfYX6LcRBcFrF2V71BTFZQ+ii4OXUqnlKq5zbFABDxJWWy32UGJ8AvYoIPfvFwfh/G4IzUv8vF+szsDEbB6Ml1GiXIRm9wUcMxKZ5oq29dxOHGX/mWsr5onBCBg9Tu4NlkZFQmzgLUaPznSVFm+jiPC/o/WbvL9RpiIcc4HrP6xaa83+ERvclPAWnNHfkPykM8DqTDNZrXLlZPwRzsesPrXbZZ77bt1gZsC1lpnOtBU+xSHkmTrTmvuWer5PY/lOxyw+kW2H3vv+zlXBaw132u/qZTH0t//n1bLfzpCmqF39W5HA66g/lrO89515AJXBaw13Gi7qdTvyGjs72r4H9sbrGOqsczJgIVpplNL7bryh64KWIt5zW5TCSvsKz7r18X09XOMFqppEb13OhdwK3WxMaV3HT3DVQFr2gCbl+nPpCBapluub2VbzYzY5GNONbQwZ/cxX7vunemqgLXzJti6aflADqKLtbdKZdwaoZlUM/mgMw09RF3M9+9M1Hm9wE0Ba9rls4wjVk6MSzPIIbLHJ6bvpz/rWUGzIG7Ez040tPCTiD0Ve75sul8j6gU7QxNw0WvmJonfhoJFXZQd7a8aB9Fw3B4TZ793SjPNqsj2k/ZYb+ffFpdYJ6t+i7p+tfrDNWiJhfeR7ls9O2XgdQ28198FL+Ci5X093lT1e2wekyB8zEebCqJV8lqxBX6Y0Dla80tU52f/l2u2obPXTX+ks/ePCwivfY6X9nzuTc8ulb4Xeb9u+HD6Mw/1anuJ6qE+mAEffx68ImlORslL8bFNaQPrykOxg8wmUadnyjJf8wyOfP5CrzqaLZU7PTn7G/ELlb/jk4lJ1zfw9RdAeEoqqGi46/Pb3P7IM6+mzV9S5IO0tGmpk1P+mTSgR7umdc42Pu531iosVG0xZomK2baqEN/5zoHDk1OeGJrYr2t88WD+HFUj9LYURY3WvYdMSJ09b8nSJfNnp7487NbWNTWHVGh049+TX1mwYkvGL5lZxyfQ7M7IWLfivddGD+7b4VIhqdvUAe/Syg/lW1Dauf3MhHHTFeUoYOUMkEZuP7M16oBnlZ98o1SPBfmVXH5mtYWHuCfKT8CNVG2w3e1nJvzch7Rkvazp7WdHVvgTnoL1+uUnYGU/x1iXn1gDodfxcET5CVh5j5Xo8hObJHyBPy0/+apfCtDU3ScWd0QIeFT5CVjZUZkZ6e4TGyN1f7UrN/nWUS7rft/dJ1ZPmlZ0tFK5CXiWshGGufvE5tgY6Q5fV0y02Lc/QN0If3J1vv3Foac73HpabfWcKZdYKN9O/d6N9a7O92JxEPxoFfcGXDQQtrCL2Ye8rkcszllyiypfi19g93ZEtz15AttGJZgoHDNG6AkocHNXT/TH8uSATm4PuMiXjxo8xsbcJ856WuDifCvOkfNdq5WBgIv8PPXuxopn2ZhrJxpMEP2zexuh8kcGs3t6lZGAT6wfW/7qkO4ta5+ZFFUhrtG197283OidZvrn7m2DuqsNzm1rVBkK+LSD+zMyMn7NND3LtaNrm6DbAaNzu0ErgwFb9K5bGyB2nOFnOF0j4JwGLj3/a3cYn1tTAtb/5dLejTdN/AkaqRHwtzFuPPezk82sOVkXTcC5Ldz4x3eoqaWUBxI0An7Qhd/eJHNvaMvrpBHwmy4877t3mTu3BzQCXn6WK3snB2wxcW4jNAL+Js6lpx7Z3eiHAdw9QOZQwOuru/jsu0gTofVjAzQCXl3N3effcqbyhQZ722sEPCvW9S1w2Uzfb6RYWlsr9wHnDS8T0/3rTig9VpY9PFIr9wHvKDNzhas/c8jr/U2XlZVT8z/gvHGxWtlRJcnjwfhAUqRW7gNOb6KVLTEPnPrJ2JwJcWXotFrk+BXvfztqZU9k96IF/gVpCWXrrKoNWm013ZxZZXWhTkS31CZl8LQaPLrCwuv41gypocFtatwx3cwrW49+9I8EGsu1j4O9xyxVv+gt//s5Q9rG0Epud17r24dNmJO+NmN/ZubxF4gd2L52yTtjk3o2q0TbAAAAAAAAAAAAAAAAAAAAAAAAAAAAAAAAAAAAAAAAAAAAAAAAAAAAAAAAAAAAAAAAAAAAAAAAAAAAAAAAAAAAAAAAAAAAAAAAAAAAAAAAAAAAAAAAAAAAAAAAAAAAAAAAAAAAAAAAAAAAi/4PrMAM+EiVn18AAAAASUVORK5CYII=;" vertex="1" parent="ZNpQD6KD1uZFFYSede-m-30">
          <mxGeometry x="230.25" y="306" width="50" height="50" as="geometry" />
        </mxCell>
        <mxCell id="ZNpQD6KD1uZFFYSede-m-74" value="Internet Gateway" style="text;html=1;strokeColor=none;fillColor=none;align=center;verticalAlign=middle;whiteSpace=wrap;rounded=0;" parent="ZNpQD6KD1uZFFYSede-m-29" vertex="1">
          <mxGeometry x="350" y="60" width="60" height="30" as="geometry" />
        </mxCell>
        <mxCell id="ZNpQD6KD1uZFFYSede-m-34" value="" style="edgeStyle=orthogonalEdgeStyle;html=1;endArrow=none;elbow=vertical;startArrow=block;startFill=1;strokeColor=#545B64;rounded=0;" parent="1" edge="1">
          <mxGeometry width="100" relative="1" as="geometry">
            <mxPoint x="430" y="420" as="sourcePoint" />
            <mxPoint x="430" y="420" as="targetPoint" />
          </mxGeometry>
        </mxCell>
        <mxCell id="ZNpQD6KD1uZFFYSede-m-37" value="" style="sketch=0;outlineConnect=0;fontColor=#232F3E;gradientColor=none;fillColor=#232F3D;strokeColor=none;dashed=0;verticalLabelPosition=bottom;verticalAlign=top;align=center;html=1;fontSize=12;fontStyle=0;aspect=fixed;pointerEvents=1;shape=mxgraph.aws4.user;" parent="1" vertex="1">
          <mxGeometry x="520" y="70" width="48" height="48" as="geometry" />
        </mxCell>
        <mxCell id="ZNpQD6KD1uZFFYSede-m-38" value="" style="sketch=0;outlineConnect=0;fontColor=#232F3E;gradientColor=none;fillColor=#232F3D;strokeColor=none;dashed=0;verticalLabelPosition=bottom;verticalAlign=top;align=center;html=1;fontSize=12;fontStyle=0;aspect=fixed;pointerEvents=1;shape=mxgraph.aws4.client;" parent="1" vertex="1">
          <mxGeometry x="470.74" y="70" width="49.26" height="48" as="geometry" />
        </mxCell>
        <mxCell id="ZNpQD6KD1uZFFYSede-m-55" value="" style="edgeStyle=orthogonalEdgeStyle;html=1;endArrow=none;elbow=vertical;startArrow=block;startFill=1;strokeColor=#545B64;rounded=0;entryX=-0.019;entryY=0.417;entryDx=0;entryDy=0;entryPerimeter=0;" parent="1" source="ZNpQD6KD1uZFFYSede-m-32" target="ZNpQD6KD1uZFFYSede-m-38" edge="1">
          <mxGeometry width="100" relative="1" as="geometry">
            <mxPoint x="330" y="420" as="sourcePoint" />
            <mxPoint x="430" y="420" as="targetPoint" />
            <Array as="points">
              <mxPoint x="389" y="90" />
            </Array>
          </mxGeometry>
        </mxCell>
        <mxCell id="ZNpQD6KD1uZFFYSede-m-80" value="Cliant" style="text;html=1;strokeColor=none;fillColor=none;align=center;verticalAlign=middle;whiteSpace=wrap;rounded=0;" parent="1" vertex="1">
          <mxGeometry x="490" y="120" width="60" height="30" as="geometry" />
        </mxCell>
        <mxCell id="CEkO3Uq_BOmMnPw9GR2j-2" value="" style="shape=image;verticalLabelPosition=bottom;labelBackgroundColor=default;verticalAlign=top;aspect=fixed;imageAspect=0;image=data:image/png,iVBORw0KGgoAAAANSUhEUgAAAtoAAAGaCAAAAAAUNbseAAAbQUlEQVR42u2deXhTZb7Hv0matEl3uu8UaCsUStlXARGwqIgIiigOjiKjjuvI1dF7n2e86tyZcfRylXFcuIgLbqgsgih7EWSHFlpo6UJpS+nepkuaPef+0RbaJCdNuoa5389fTc45b/v83k/f857fuxyJAEL+FZEyBIRqE0K1CaHahFBtQqg2odoMAaHahFBtQqg2IVSbEKpNqDZDQKg2IVSbEKpNCNUmhGoTqs0QEKpNCNUmhGoTQrUJodqEajMEhGoTQrUJodqEUG1CqDah2gwBodqEUG1CqDYhVJsQqk2oNkNAqDYhVJsQqk0I1SaEahOqzRAQqk0I1SaEahNCtQmh2oRqMwSEahNCtQmh2oRQbUKoNqHaDAGh2oRQbUKoNiFUmxCqTag2Q0CoNiFUmxCqTQjVJoRqE6rNEBCqTQjVJoRqE0K1CaHahGozBIRqE0K1CaHahFBtQqg2odoMAaHahFBtQqg2IVSbEKpNqDZDQKg2IVSbEKpNCNUmhGoTqs0QEKpNCNUmhGoTQrUJodqEajMEhGoTQrUJodqEUG1CqDah2gwBodqEUG1CqDYhVJsQqk2oNkNAqDYhVJsQqk0I1SaEahOqzRAQqk0I1SZkoPFgCPoaY4NGo28xmY0CIFHK5Z5KX39PCeNCtW9kzE21VTWVpVWVTbUtBq0FkAWqlH7BETGDgiPD/Bn7PkUiMAZ9hKX2wqXiK8VldXZCrIgYOjgmMT5SyTBR7RsMofn0+ZycK40W8VO84uLjx48JY9tNtW8kSn/Kzr7S0OVpipj4lJsn81Geat8oXNyXfl5tcu5c35hJixP9GTOqfQNw+Zu9pQ0W589XxoxdOMGXcaPa7t3FFmo3f16mdTGoniFzVyTImA+k2u6LpX7vRxeN3bjQY9A9y+PklJtquyna8x9/3+2Lxzw6I5RuU223pHr3mtIeXB5w96NDmAmk2u6HIW/zxoae1cXcFdO9GEiq7Wa0/Lr+qK6nlTHk97MjGEqq7VbU7v7snKnntRF2z/KhDCbVdiMqvvqm2NIbBQUseCyJ4aTa7vMAueHzql4qym/eU8MZUKrtJqg/+qS21wrzHrd6vIwxpdrugHbtusZeLM5j0l/YJ+kFOOusx+jWvtebZsN07M+X2eD0QhPBEPQQ/cfv6Xq3RPMu6RtRHJhkqz3AGPf3ttkAfnqriZGl2gOL+cQ7dX1Q7ObNesaWag8ol9aes/RBsfp3D5gYXKo9gFR9lWHuk4Ir/pnN6FLtgUO3b4e6jzo6WRtrGF+qPWBc/KGsr4pu2bvDyAD3BCb/ekDlluNO94i9/b1lgKnK6RR45daR4xliqj0g6H/doXHmPFn8xITBoSqZBBD09ZfzMy60OHGVJWP7sAAGmWoPAELpNie6IzKfpQujlApF+6pe8ySDriLzu0xDlwOOut2T5nPgpvtwDkm30W56uavsiFQ1YvmtvnLrBxqLxZD96b7mrvrSkmWroxhmqt3/jXbec2e6OMU3ZeltYn0KU/aG/TVdpMR93lgiZ6C7i+xVxqCbPe2fPnd8gnzI0tXiax2l4TNiaxoMDkswSFMDGWj2tfu70a7Y6PgEr2m/ma1wdIL3ouQNO6od3jWP5sSw2War3c+Yt33puDOx+JmpXa0oCBrpW9LgyG2dcrwPQ91NOGTTTYxbHB72f3h1cteFhK94ZrDDJMjebE4lodr9TFauo6OKVY+HO1OK6u4/OEyC1PyiZaipdv+yxeGM6od/E+xcMcoFLzk8c3cNU1hUu1+pS3eUuJvzULCzgy1edzznaMeo4gILg021+7U/4mgBwvinhjgfV9VdCx09rf7MzjbV7k8sOxxMAwlaPtaFnKok5AlH06D21DPaVLsfqTgmPtgif3C+wqUqSHgmSPxobRajTbX7kXwHU/5Gzwmw39E2m+w/EnqMXiieAbccYLS7B0cju8Ul8VXsqptH2RFUU1Xd1GLx9vMNDbAdXwy/7WChqNpnTKwjqt1/RKjEdkKTjb5FZaOn+lzG2fPlRsiiokaljI+2kTv5liLRREhpVSTjTbX7jYkPbW6y27uQDX4gxfo7Y+62PflmADCXlBwNnn3XZOv3jYVM+vmK2K8y5VFtqt1/DFqZ3Gy/0Y4cYf1yauNPXxzvMKZYszVn+SLrF0WOHSeqtiFrFuNNtfsP7zlOn7rrzXwrV9+rXWnldkTKfrHRTcN5RrtbMEPS15x6O9/6q5L1m6xyh7LhMaIdkhLGkGq7I3Xr8my/rH030/pBMla0hGYO2lBtN0TYfMjeSHnVequMSEi4aNdQV8QwUm33o3yz/SzhgRNWPZLEQaI9kgaGkWq7H7tFXpKq2WDVbId6ixVhbmYYqbbbYc4RaXJN+VZTByNEV4qZGhlHqu12NJSI7ZOtvtz5s0p0fa9JzThSbbejXnT9l7Gi82c53zpGtW8ktKI7RJn5Sg+qfSMj4aZ9VPtfkyCV2BF5KKNDtW9ktQPFAqyI7vzZILoGUurFOFJtt0MeK9JsS6LiO39RLpq9lnkzjlTb/ZgrsoOOp/V+gCWiY44yX4aRarsfE8Z52v0+dGnnz5YK0dWWCvbKqbYbInkwzl6SRPH7sM5fNBeLqi3nRsRU2x0Zv8zPTh9j1gKrby5XiJbgHc0oUm135JF7lTZmT/8P65Y4+7JoVzuMGZJuwQVk3aTJ/qQlmZ91SsTrWdOWzo+IXjc/P9SqSWm6KLrRmjyRwaba/ciBPfbnYcvi70qy+irkudgtOR2y1tHz7xtuHfaCLAPVptruQO4/joq8fcy36RmrXYUlEQ+PPHIou3UKoDRy5i0TQ6y7gfpT4m9k90hiuKl2/3EiR+y9ek17J91h8yA4fdSdeXnlVSaf8ITk2BDb6auF+8VX0vix1aba/YhMfNpTcfrEEJvTBw1KatHpBZmXt73RSf3JY6LFSUZyMJJq9yPJ3jVih0w/j77Pzk6tCvHdW4WiH8W3NJbOYrS7B5N/3WJUtHjgqr7JdOlNBkLV54fFjyqmMNpUuz87JHMcJJtPbCp35QU0+v3fOXgh9mgO2FDtfmWeo/c5bv1R43xJlvPvqB0cXsAuI9XuV4YlOVg/0/TBHr3TJeWucbSFjv9kqk21+5fbHUWubM0Rs7Nmv7XX0eFpkVyCRrX7l5kOX2V68e1fnCvm/H/vcdQvVy3gi6ypdj8Tc7vDw6fe3ObMkvUza3YbHB0fMkrBUFPt/sVjoaejw0Lmmx936XbLj3/d6/hF1WlchtBtZK8yBt1CosgtdOh2/YVLEREOi6j69P1sx4+bN62MZ1ebavc3ctUuxy/i1RYebxkiulkDDIde+6Gii4fN36QpGWiq3e9dOb/aLl7FYa49kekXJJPaaXjNLRmv/aNA28WvGP3wUDba3b+vCoxBNxGOP931uzhkibffE6jy7PhIYzFpm859eNLSZeR9nv8tp0ZR7YGg8eO3DU6c5jtz2ogApZenTC4xGw1Gjbrk5O6rToRdeusrIxhkqj0gZPznMefCp4yJigr1CvBoaaypKypycr/syBeXMcQ9gMO4PWDEfSVlTp2ozctzuXDV7FmMcI8ehhiC7uM5a56qzypmxJIIRphqDxSRS0b3VQDDVqQyvlR74Eh5ZHDfFKxaeDtT2lR7AFHcev+gPqmW6Y9xXhTVHlC8H0rz7INio//IxTVUe4AZ9MLE3o9h2N9vYmSp9kAT9WavP0oG/Xkq64VqDziS+LWpvftivMDVsxWcO0K13cDtoX+b2JsjXyG/X8SpI71RLxxo7zmmzL8eM/ZWhcSuWBrMkFJtN8F4es0RQ6+U5JG08g5/BpRqu4/bZ9anN/RCOfLU393ChHbvwOlRvYJ8fGDMpqoeF+M1++FJfAcCW203o2LnZ3nmnhXhf/+DQ9nWUG23oylz7eEeuR388jwuYKfa7oip4tP1mu5fPuvJCSoGkWq7J82ZHxzsXqbEY9gDC8KkHKih2m6KgJqvN5doXI6pZ/CclcMkFJtquzVl3+4qbHQpqp7RE5eN4QZoVNv9ubQtPb/O6bgqY8cvmujJqFHtG4KL+0+er9A5caJsUELKjOkUm2rfOFQezT1TWO44Fyj1ix85YlISM9lU+8ZCn1+Qd6GoROzdYrKohKS4xKRATr2k2jcgLWUV1YWXSyrLOycE5f5RMXGDIyMjfWWMEdW+YWlsaNA01Neq1RoTAKm3d0BgsL+vX4Af+yFU+8ZHMBqMRrMFgMRDJpcr2FhTbUK6DZ9iCNUmhGoTQrUJodqEUG1CqDah2oRQbUKoNiFUmxCqTQinVv5LYW7RSX24OTfVHgCMtRpAGdw369ctNdnnr3glJyfKGWiq7ZqXpVr/Hr4+6eonl4DIJ2P6xOyyTzZVAT6pz0/hjHCq7QpX0n9piEi7tUdNYvn3lUDQfX2itvb7DRoAzYfNa+JZW1TbeVq+/LRWkGYpZ/aoZTX22d8nlH3ZtuPgse/+jdXFDInzFB6oEWAp3OOuf58lt7hd8r2sLartApXNAKArN7ir2pXX/1TWFtV2gXAfAPBw26Xo0ojrfypri2q7QOJkX0Ay+B53DZl0ZEj7TzNZW1TbBRQvvTY58t53p7rr3ycJfbJ180Bpwj2sLWZIXMHrgQfc+u9T3Vv9Q71Rqhr6lwRWFtW2+zxmsgAKV+5ngglW2W7BbAJkLqXADRZIPJwZazGbBEjtjWeG/DFtT4Vy1Jxw3ouptq3WTeW1dWojEDDIL2JQ592B9RoL4OHjAUCjE+AR0Pq19mpZQ6PvhOsPcWiqqFWrWwCvoKCQcGd2GLa0VFc2VBsg9fEPCAlTOjjTVFdRV9tkgUewX2C4f+faE/TNQ4cCQN0guk21rbhy9mz2pQotAIRHjEweO8S3w8G8XQ1A1AN+gHFrngVB98QCqM86m3Gu0hD3yt3tbWrlueysoisaAPAdnDB+yBj/LqYrWeozzuXmlDcLgNQvOiF13JAAkcZbV5B1Lqe4ygTAMzx2RGpKbMfG23i8LZ8tfZkvn6Tanaj+dd+RK+0fKioyfFOnzku8Lk/Bl2XA2CUAWr49CkQOiYXu9N70PBMAfftG8erD+w5fsbQ331lZu6Jnzh/t7agz03Ts4KGCtp24LWp19k+jJtwyxV5XxpK38/jZ+vZbSHHxocjUubPDrv/fGI591PqD7AWqTbU7Nnrnvtt7TcpWMw+dPXrHgiA73QILAIsR6p0bs/WdusGFG/cVddowXnOx4MztS8LEf+2lz9ILTJ2a5pPZR+asDLQ5Ub9n4zFtp2+uXj2XvvRW1hzVdox2xxdnbfZ5b/wl/9JjUWI916qvPy/ttB2o+dd/Hrcpw3y6uOC3KWK/9uCHR22u0GYWVq5KtPqy4YPt+bYdqCtFhtl8XwjVdmz2uwWtTbbn4FgfD11JYTMAoPzLstcj7HeWa79YX93aAYhJSk4FgIOv5rc1+9HDQmCqyakBAKF6S9Ozo0TMfjOjtZFXREaFyQyXy2pa7xffVb7Y+YqGtV/U2Ssg+8/5v6PbVFsc3c9riiwAJJH3zQzzkkksuuYj208AQNNuy5oAux2Y46eqASDkziUBKqUPgIw/5QEAYqbdHu8th2BUn/35Vw0A7R78YYS9Mn55M9MMACHz5sWrFBKLrjFnxyEtAG265eWRHW8fa7+ss/8MWvCJzyOsP6otmqQ48UaZAEiUjy8L9mrtfwjDFh5df9oMGPatf9ZemOp2GwCJ/5KVIarWK8peKwAg8U57bKhSJgGAqMQ7s946owd0P6v+EGfT9guZ/5NhBiS+c1YNa7tCuCnt9PqjGsBweN1L1+8WLe9/rhZ7DL36Sdh8JvuotogeRe9dASBNevkWebtOEi/Pu4av3akB9Ovi77bjjmAAZEkvzfRqu0Lz6kkLIBvyxCLltTIUiqnfvvNBE2D8IWGFn01G5pszZkAy9Ok7vTtcMWvUuq+rBOi2hz3dnno0799+3WwPT4UcRp2+/YlXuLg+ajSXQ1Jt+92R9HQAslGvj+uYUJZIkl6P2VAPqD+aHGn3OmnyyzPaI2j69rgRkCWvvq3zKdKnFe/XAdpPR0+zylYbDuzVApLEV9I6XxHyStTfqwHNvikz2/6jijdfe4KUh6SmJESiNCMzv65d7uPfDw5gJVJte92Rog8BYPi/j7EeKglcUf19C4SyQ0vtXSdLfOaa2SjaWglIolfdZn2W52+N72mA0lOpVs325R9LAQS+mGZT8IqyD3VA7uHU1hSgfu+B9iP+UxbPCAAwdmHlju3n2lbVmA7fMotdEqptB9PeYgCBD4yzHSgJf9S3VIDIYt/Qh+Zcj9+hQgDK+baewndZy2VAFmdlnynjJAAssnMFnsj7CTAdmDVNCgBlJ9rzg4GLHx3S9mPYo5M++Lmp9ee8I2MCWY1U2xbNVgCYNsveoOHwl7UCZL52G+0xc65P96i/UA9IEh+0d2bkSy2A3MvqllB9sg7A4JX2BtX9f3eyBriYNU4FwHLxeNvXPgse77BgeOTTjQdal/yYTtxJtW16iwwBUJALIGSW/WXmCv+AALtmI2xu3PUPF88bAXlaov0yAgICvK0VLj0FAMvsJs2lSbMBmM5WA4DmYlXbt8NXdfobk1a0Z11yS8ysRrbatpwQAIwc5+q+N1FTOnwoLgcgv9v5q80VlwH4jG7R2jtqmLDFCGRWxgGoz2nv2dxlNRF72t1ftXa3VQJfkki17ZAlAIh1dW8QRXzU9Q/G0hoACS6UoS3VAjC8pbJ7VFCbAZTVmmVA46W2jE38IquzvJZPbd38QT6Mt1+qbYcSAfCJ8XbxKq+YDs28psYIINmF9LK2HAAMpxydY6wyyoCWtgXqsptCbJ5yucCXfW1HlAFQ+rkaCmVshw86LQDEuqC2vtqJk5pMAHTV7Wqzqqi2a5gBKFye4izpmCps7ev6u3C5YHHiJIvQ4UwJd6lkh6QbQTDoelSERAIAJleukAGAUumocZG03kokrc+IgolVRbVdI7wc0Gl6VISXCgBKXchTeAYBwPg0H0fnTPUGIPdpHZmxFLGqqLZrhABoqdQqe1CEt79EALJdUFsRCACq2yO7PFMV3qq26WyDdY+noaS1JVfE+LEaqbYto/YIMOdfHt6DIuSh/mogt8b5jIVqsKceOFsf0eWjp29c6+QooWSf1d45pu1bWrPiqidnsCb5GGnLNCmA3As9GtAbHAmg6QcX/hmi4wBUnOh6d8zA9sxIw5aazkdyvjhy+vTp06dPn6xmLVJtOwyPBlB+uLwnZSTFAzBuvur8FZEpAPBVXZedGL+UQW2N9OmvOz0RFKy/2JY8GRzLRpsdEnt9g7n/C1gOzgi1M9Resq0c8EtL7fJRNPVXNYSCbU/YOVa3/SLgmTamc/FhE3Y3Aud3PGJnfpT+H7WAfM4UDwDwSBjdNqm17jO/JddHLws/+LHd9ElDWItU294T3eLv1ED5hthUG8uaN32mBoLCulRbNn1nBqDZlGi7eULzN++rAZkqqbPanqkphwHTuuHTbUvb9pEWkPqNa62e+Jlt6+SF0jW5D7fNwNId/fRw25xWxE0PZi2yQ2IvCMOWAbCcWWez5XrzZxur9Hq9anrXhSSnDQIsee8csT5g3P1upV6vl6dYp/mG3+oPoOTVs7Zmv6XW6/VhiW1L1ZVTxrYdsFz96qk/7i01my999cwL+9rNxpTJfC8TW227+CxOzwGMPxa/ntKxZbWov/iwRgD8HnHifu/50Il0M0yn/rJ6qkeHpIdg/PyvjQBkT061jrVn2oldFgjnn+2wIhOAYPjh7yUAfO64tuJs5MKCirYfW87lbJbLYNLrrg/gpCxio81WWyQKiS/EAjCcefyz6vbdoART/ckX364WAPnsh51pFAe9kCgBzCef/+fllvZBdIum6M03GgHI58+3HZuJf3SsDLDkvLS28NoVpsaLf/qPYgHwmHzPteUFHgsXel83v6GmsrK2+brZYffOYDWy1RZrcmfXvVUFoPRPPy0e662SS4wmdfHWPQ0A4DHtT07d7iXjVr9RBAhl/7V18eQgbyUsupa69G9KBACyyU8m2bniZvXfCgSg/N3dd0wLVnlKTMbmy+k/XgEA+aSnOuxD4r+qaqde5NcGPXA/zabaonjfVvllhQCYDh+PTBwS4KFuOl3YOqtEMe2NCCcLuVP/t2IAuHAhYHhCDPRlRblqAIBXyqpxdq+YV74x3wLoMjMjEuIjpJr63POtSQ+PSS90XOiA6GdM++1PBQha/iRHIqm2A8JXBm8oNAMwFhd3/D5wxnPxTk9Vvcu4Ll8PAOqjRzv+38xeOVnkbrEq6r0zAgCUl//S8fubn5rS+cwRL4dvarBTQuz9j9Fsqu24q7ws9NtD1g2jbNiC+2Kcv93LF4VuPVhh3WMYkrY0SfSSO3y/2Wmzn2XIguXJ1t8NfTFsa7ZN9U1dcjd3/KPaXaC8M2HX7qyOc1ulkTNum+LKHGx4zhg6Pv1Ep1HviNlzpwRY/Qd0/Ge5OfGmg2cbOx4Onjxrvp2dj/2eSN55uLTjxFaPm2YtTGbaj2p3TVLs1HPHz5W2LjeUhKWOHpkc3sGchFsrIEv1AeA9N8gkjbS3et0jbunUjFOZOW3PfCGJiVMnhHfo0ETfXwCM6LjdtiT8sZlZpzOLWptuaWDixOSRsXYXHXjMGnlb1qnz1W1bu8alpoxM9utQtmLsvLYbENcs4Nosd9KKYCivLC9TtwARkaHhYZ03adBX6iH1CwGAmgaLRBks0hUw1lZUl6jrAN/oyPCgoE6th6muAQgItGpRDDXlVcX1GkEaEBcaFOVgKZuluaKqpKbWBEVsaGh4SOeVQYKmbRaMMpIpE6ptB5POaAKUXrKebBGpNeoBuVLutGMWrcEsSOSqrhtcvcFggVSlYE+EapP/l/DORag2IVSbEKpNCNUmhGoTQrUJ1SaEahNCtQmh2oRQbUKoNqHahFBtQqg2IVSbEKpNCNUmVJsQqk0I1SaEahNCtQmh2oRqE0K1CaHahFBtQqg2IVSbUG1CqDYhVJsQqk0I1SaEahOqTQjVJoRqE0K1CaHahFBtQrUJodqEUG1CqDYhVJsQqk2oNiFUmxCqTQjVJoRqE0K1CdUmhGoTQrUJodqEUG1CqDah2oRQbUKoNiFUmxCqTQjVJlSbEKpNCNUmhGoTQrUJodqEahNCtQmh2oRQbUKoNiFUm1BtQqg2IVSbEKpNCNUmhGoTqk0I1SaEahNCtQmh2oRQbUK1CaHahFBtQqg2IVSbEKpNqDYhVJsQqk0I1SaEahNCtQnVJoRqE0K1CaHahFBtQqg2odqEUG1CqDYhVJsQqk0I1SZUm5Abif8DkwjV7WqFy58AAAAASUVORK5CYII=;clipPath=inset(20.24% 33.33% 20.24% 33.33%);" parent="1" vertex="1">
          <mxGeometry x="-320" y="200" width="70" height="70" as="geometry" />
        </mxCell>
        <mxCell id="CEkO3Uq_BOmMnPw9GR2j-3" value="" style="shape=image;verticalLabelPosition=bottom;labelBackgroundColor=default;verticalAlign=top;aspect=fixed;imageAspect=0;image=data:image/jpeg,/9j/4AAQSkZJRgABAQAAAQABAAD//gA7Q1JFQVRPUjogZ2QtanBlZyB2MS4wICh1c2luZyBJSkcgSlBFRyB2NjIpLCBxdWFsaXR5ID0gODAK/9sAhAAGBAUGBQQGBgUGBwcGCAoQCgoJCQoUDg8MEBcUGBgXFBYWGh0lHxobIxwWFiAsICMmJykqKRkfLTAtKDAlKCkoAQcHBwoIChMKChMoGhYaKCgoKCgoKCgoKCgoKCgoKCgoKCgoKCgoKCgoKCgoKCgoKCgoKCgoKCgoKCgoKCgoKCj/wgARCAKKA2IDASIAAhEBAxEB/8QAHQABAAICAwEBAAAAAAAAAAAAAAEIBgcEBQkDAv/aAAgBAQAAAAC1IAAAAAAAAAAAAAAAAAAAAAAAAAAAAAAAAAAAAAAAAAAAAAAAAAAAAAAAAAAAAAAAAAAAAAAAAAAAAAAAAAAAAAAAAAAAAAAAAAAAAAAAAAAAACJAITCUTExKCYBMJhMBKCYAAAAAAAAAkAAAAAAAH5xfD8b6bg/nk9pkGWZlzAAAAAAAARIAAAAAABjmoNU646sAfXONobd2N+wAAAAAAAAAAAAAD56e0DrH8gABkm9t+94AAAAAAAAAAAAESH50nWbEwAAByt92U7pExIRMJBEgIkARIAAAAABg1R9egAAAOys/v/8AYAAAAAAAAAAAA/FcKyfEAAAANmXFyIAAAAAAAAAAAB1tN9TAAAAAO5ubs0AAAAAAAAAiQAGP0iwkAAAAAfe4O6wAAABEokiQAAAABj9F8UAAAAAB+7fbyAAAAAAAAAAAdXRTCwAAAAAH0ujt4AAAAAiQAAAAHzpJqsAAAAAAc292cAAAAAAAAAABWSs4AACxu/te0/4wAAMtvvzwAAAAARMSIkgmCYSRLXtEvmAABmV/5mplfwAAN924ImJgmBMBMTCYJiQAAAAfKhODgAALY2CMLoDAAAP1enZAAAACJAAAAAGg6kAAAOf6J9iKMazAAAz++X6AAAAAAAAADjee2PAAAN+22DTFMwAAF0dxAAAAACJAAABomoQAABfzN35mfh549CAABsO+AISAImJETExMSiREkSRMSRIihWBAAANk3qK02R+istZwAAF9c9CYEwTAACQAAABhVAQAAC5O6nA867ibfY955fIAACwlrwAAABEgAAACs9ZAAAHe+h/3aFqNti7ZTDTYAAGQ+iMgAAAAABEwkEJKIa7AAAWVs8ULwD9+hOTTq+jgAAC/mbxMJiUJhMJiRBMAAEwBMDieb3xAAA+noZkU4HQgslaBHn/hwAAFsrAAAAACQAIkAiTXdEAAAG4boyqToI7z0Q+6vdUAAAN62+AAiREiJIkAAAA0VUEAABeHaTg+dfXC5u5nW+dnBAABsS94AAAAAAAAFZKzgAAZf6BfpoaoobQvGVH0IAADvvRUAAAAAAAACpWgQAALW2GKOavCfQTLmDUFAAB9fS2QESRIiREgAAAAU70gAADm+ifZmL0uwULF2oKJ64AAB6UcsAAAAAAAAFONJgAA3zboOHUjR47j0R5TSdOAAAeknPAAAAAAAABT/RgAAL850+P1kr7VT4lxd3OP539IAAHpZ9wAAAAAAAAVSryAAGxr2miNWW95primPQtk3qKv1sAAHM9JwAAABAATCYJhKExXGrYAAXF3bKh2vc6unkp0NM9br/5mxvz1+YABlXoQAAAAJAAAANNUxAAHdeiPIYNQU7m5mzj4VVr7YO2BSvUAABtS74AAAAAAAAGIefYAAsjaIqZX8fW1dgxo+rfoPzWqqQgAFirUgAAAAAAAAfnzj6oAB+/QrJnC86+tBvW2vJMF6zZr8+fWJgALmbnAAAAIkAAAAUu06AA27dY0VUEBsO6GQAV2qqAB+vRbuwAAAAgBMTCYJgmEmiahAALu7VKIa8AO/uhsMHVed3DABsO94AAJgTASAAAAOq86uMADLPQX9MHoIAHJtpvYFQtEgAtZYcAAAAAAAAAU10sAC1NiiptfgALBWr+wwGhQAcn0Q7oAAAiQIJgJiRBMEwkjXdEQA5fol2rh+dnWAANm3M7keemMADelviYAAAASAAAACjmrwBvW3xouoAAAyW6eduB529aAfT0Ay8AAAAIkRIAiQAGv6HfkA3Hlpp/DwAA5lkcqr/rgAb7tulEgBAmEkBIAAAAFRNDgAAAAAAO39A+5AAAAAAAAAAdXQHHgAAAAAALjbtAAAAAIlBMSQASRMJiWsqO/MAAAAAAN4XCAAmAAAJAAAAAK71UAAAAAAGe3q5gAAAAAAAAAAFUa9AAAAAAMpvZ3wAAAAAAAAAAD81L0EAAAAADKLyZOAAAAAAAAAAAIrBW2AAAAADObtZAAAAAAAAAAESABpGo/CAAAAA3Nb7nSESESEJiQBEkSAAAAAAw6nuvwAAAB2Fqd8yAAAAAAAAAAAAHzr/WbqQAAATue1GRgAAAAAESAAAAAAHV14r71IAAD9bbstsAAAAAAAiYkAAAAAADh6X0frT5gAGT7q3tlgAAAAAAAAAAAAAAOn1drfAsP6oHIynN9ibQzaQAAAAAAAAAAAAAAAOB03C/PI7TuP2AAAAAAAAAAAAAAAAAAAAAAESAAAAAAAAAAAAAAAAAAAAAAAAAAAAAAAESAAAAAAACAAATBMJgAJgAAAAAAAAAAAJAAAAB8/oH5j9gHH4XY/QAAAAjrv1z5AAAAAAAAANO6ZuQROiNX3Gn8UHv2KjYV2/X7nsAar1DbI6vz8zX8/K32VGo9Z2omJhq2rWQfn7XUImJiUTEkSCJIAAAABSXrrod2NA1js7v38UDv+fHz29DpBqrT9tTpaVXvaKw+0pqHWNrAUftTm4AAAAEgAAADEav7pxOyI0BwNO2zzqgXoAKs4PZ3YIaq0/bU6SjtwfnXHeu2TUGsrWArbj+65z7kAAAAAAARJExMSKq4Lcell7f3E6A+W2KZ3hot6AQTr2tXytvkpqnT9tTpaDbxYfsGyJqHWVqwVo13nc2D7wEkCYJgTBMSAAAAcSiVtKs9hYDbRoD5WE03o/E/QADTeirsmqdP22OkpVfB+PO/0SlqDWVrAeeHob+gAIkAAAAAABo3GbMdBS3urrmgPlYRVLVnoAdTX7P+fp/i2zNVaftqdJRa07CdeXWNQaD3gndRSvNtp/jpN0gAAACAAATADUufd442nN2GEfjOnx07ug+GrcD4Oa7p+pjWKbQPloP4u73HyTotKn6sKcfTOF/XLd4AAAACQAAAAAAAAAAAAAAAAAAAAAAAAAAAAAAAAAAAAAESAAAiQAAAiYlCYBKJiYmCYmExMBKJIlASAAAAAAAAAAAAAAAAABATBMAJiYmEoCUJgmASgAAAAAAAAAEgAAAAAAAAAAAAAAAAAAAAAAAAAAAAAAAAAAAAAAAAAAAAAAAAAAAAAH//xAAVAQEBAAAAAAAAAAAAAAAAAAAAAf/aAAgBAhAAAAAAAAAAAAAAAAAAAAAAAAAAAAAAAAAAAAAAAAAAAAAgAoAAAAAAEAAUAAAAAAQAAUAAAAABAAAKAAAAAEAAAUAAAAAQALABQAAAAEACoAFAAAAAgAUgAoAAAAIAFSwAKAAAAEACpUAFAAAACABYqACgAAABABULAAoAAAAgAqFQAUAAAAQAohYAKAAAAIAVKioAUAAAAQBUKlQBQAAAAgCoKEAoAAAAQBYCiAUAAAAEBUAVAKAAAACAsAFgKAAAAAgAAAoAAAAAgAABQAAAABAAAFAAAAABAAAUAAAAAAgACgAAAAAAQAKAAAAAAAECgAAAAAAAAAAAAAAAAAAAAAAAAAAEoAAAAABKlEpKlJSUAAAAEVLKSpUpKSgAAAAAlJUqKigAAAAAAAAAAAAAAAAAAAAAAAAAAAAAAAAAAAAAAB//xAAVAQEBAAAAAAAAAAAAAAAAAAAAAf/aAAgBAxAAAAAAAAAAAAAAAAAAAAAAAAAAAAAAAAAAAAAAAAAAAAAKBAAAAAAACgAQAAAAAAUAAQAAAAABQAAQAAAAAFAAAQAAAAAUAJQBAAAAACgCFAEAAAAAoAQoAgAAAAFAECgCAAAABQAixQBAAAAAoAiooAgAAAAUARSKAQAAAAKAIpFAIAAAAFAIKSgEAAAACgEWKigIAAAAFARSBQEAAAACgIogUCAAAABQIUIKBAAAAAUEUBFBAAAAAKCKASggAAAACgAACAAAAACgAAEAAAAACgAAQAAAAACgABAAAAAACgAIAAAAAABQBAAAAAAAAKgAAAAAAAAAAAAAAAAAAAAAAAAAAAAAAAAAAAAAAAAAABYFgAAAAAAAAAAAAAAAAAAAAAAAAAAAAAAAAAAAAAAAAAAAAAAAAAAB/8QANhAAAQQBAQUHAwMDBQEBAAAABAIDBQYBBwAQERRAEhMVIDBQYBc1NiEyMxYiIyQxNEKQQUP/2gAIAQEAAQgB/wDSvOcYxxyXYYcTjzBOoMAz+x7U+Ox/C5qlj/8APOqL/wD1xqiT/wDUapL/AO7WqIuf5h9SIRz+QW4QBP8AGOUwSntDfHpSbjYrH+vk9TQmuKY6R1AnS+OGjJA03PEz0m3FtLwpuPt06Dw7qN1PfTwTJRV1g5HglKVYUnCk/F3FpbRlbk5qDFR/abDmbxNSXFKVKypWcq6GJnJKJVxAhNTP2tzMVLAyrPeR/wATVnCU5yqx6ggR/aZjZywyU0vid0wxDwryXhq7qOQx2WZqKlApUbv4/wCIWSzx8A1/qbLbZKdVlDvVR55UcSkgGrahsFdgebSrCk4Un4YpWEJypVv1BwjtiQLzrj7qnXutqlvOgVpazBzIU2JggD4VInDxwjhJtxuRM6tQ43sETJlxJiSQafbRbA13avhE3LCQwCyjbRYy7AZ3hHsTDzg7yHWKLc25hKQpH4NOSwsLHrLMsk6VPH5IK9kQpSF4UigXHEqhIEl8Ekzh40F0sy1WAiwSOX3vZm1qbcStug2tM4LyxfwJxaW0KWu+Wdc8f3Q/tARTwJbRItRsDNgi0vo+A6o2b9VQwPSUmhtmCtnzTVeh2m+wiyUCOPYW5GEsODEOMP8ARVibfgZVstkAtk8NkoX3+7T6YCHU4hxanXFLc6OoRXjNgFFzjGMY4Y3auRPcSTEk10el1i5Izwov35xaWm1OOXGcVPTTpHS6RRXcRz8m5vuEV4xXihcf7dHjOcZxnFDnvHYVKnffdVpzlI9EWx0gArhxrArEcI2AAOIx5NQ4nwqyv9jo6TN5g51p5eM8cYzj3sl5sYdx96wSbkxLkmu9JpHE8xKPSTnl1Tiuer/Nt9JpjM+JQXLO+96sS/KRDce10tNivB68KMrdnOMZxjO55pDzK2nZ6OXEzBQTnR0SX8HsY7i/e7xKeLWQp5PSafRXitlHwvferMoG4RyGG1pcbStvdq/FfqLKtdJR5TxativL95uUl4VWzSU9LpXFcjA5Mc3HlNhBPlPyBbhxz5T2mEr4hXEsL3WCOTLQxYS3W1NOrbc6PSCS7qRKjl+86xyH6ARyekg49crLihNsNIYYbZa3atyvLRDMe3tppK+G2Vtpe/VKJ5Cw8y30dePzGTYRm2P1xxx7xqAdz1sOVjpNIInisqVd33mV8WshTqdkKyhWFJrUniXgxDcbtRYnxStPZR0lLN8Qq8e9n3cx9Ioj5C3nFPOrcc6NtCnXEtt16NTEQogSd13lfCK2U+nfpBK9l0qLc3Z4ZxwzborwewFiY6PR4vvIg0TPu+oBPK1CRVjpNL4rxCxYIc36uSvMSrEc3vg5BcVLimtsuofZbda3auxXfR48m30ekJPd2AhjPu+r7/YrwzOOk04ifDK0ype44psIJ8p+RLcPOIKe8mlkrz1e5VzdJBtyEeQI+cM4EY+M/wBFp8/y9wjle8azO/rFM9JU4rMxPiCbYxjGMYxu1alOWh2o9vy6cyvhllZwvfq3E8tKsyLfRQDvcTke77xrEvjNhI6TSKK7kEiTc36kEEkWsnmfLjOcZxnFUlMTEAIXvukV4xXSh09E0vu3ELxjPHHH3fV7PGzs46MIZwwxkZiMDbj48cRnfYIMKdD7g60Vk2vkcH/LpBK92WTFub9QIrwmykJR0Qme0Kzn3fVz8ob6PSWJ5mXdkHPKWMyYOtgq50Z6L7ZkX5Ig5yMkxjGhn0EjtPs7tVYrnYJJjfRAf8Ef3fV9PCyDK6OlRXg9dFHVuedQy0px7GeOP033OhNmds2FeacYdW09v0plecglBObiGUEMOMvTceuLlignehYT2GG0+76yN8JOPc6KgxPi1lHQvfq1K8rDNAN0u7PxGUCSIZLBoyCBd9tqYdgZyvM1EmQxmRj92n0r4VZR8r36vxPZdFlW+gDb74thv3jWVniLGPdFpTE8nBKNc33yV8WspTidqtZja+TxYgJsKcDwQDvmYkOZDUMfbamZX3cr30+V8YrwhSt1jjUy8IWEpxCm3FIX69UZ5iyxbfvGq4/fVTLnQwoC5SVFCaHZQMO2yzuusr4RXCiE74mTLiTEFA1C3CT7WGlb3mm32ltPXOhOCds2F20ile5kCI1zfqfFeH2NT7fr6ZD9/cBVe8W4XnKzJM9DpBE9p4qVc36uyvfybEa35GnFsupcapV8QX2ApryXOjMynbMix1lQcy04sMhswRkljdqTE+J1t1aPX0bF7R8iX7wrGFJzhUsLkGTLEV6yEqcWlCK3GJiIQQLG40lsMR4l6SMckJAgt7zUq9OxvYClh32iWEPD77RWQrAPwfozBsYE7EyW5WMKxnCrVF5h54sP19KA+XrHf5941UB5W0Kex62mMT4jY0Pub9WZXlYVoBv0KnaTK+/wRCy4cyEkkDz6vRPehjSjfqpTlSsJTChYjogMTHvGrkfzEGyaj1tNYrw2ttOL332V8WspLiPRhZcyGNSSBU7UHYGOCfNKhNyMaSG8YO4IW8O/6lBj/EbSGjPvMqEiRjSQ3SGVjkOsu+pVovMxPCB7JxhKcJTuukr4PXSyE+mO+6M+h4elXpqS7AUt5tWYrlZhqQb9TSCM7oEqSX71qpFclP4Lb9TSGJ7sMmUc36uynfyQ8a36tKviw+wFNMuIeaS415LxE+L1wllPpjMuEkNMMwwCIyKFCa96vkP4xXX22/TEHcLKZHYigm42NGDZ3GENiCPEvSZjkhIEFvetULcXAO4bVEyYksGkoHyWgZIlikWG/S0oh+bmFyDvvmocL4PPuKa9LSaJ5qZcPc36syvKwrYLfQQM2ZBmYIBq1mCsA3FjceWyCG8UTJlqPkSS1+i2hTriW26pEJhIMcP327weJ2DcZQrGUqzhXo1i7eAReA2fqk9t9Untvqk9taZ16wSfNvdCIS+GQh8WD1LR3SW5onUiGbb4s2u2m2FWG1+lpVBc5IKlCPftUq/yJ/ig3tkSA/KSLAYsPHsxUawEN79JgsSQDwZU/Evwso8ET7XppW/CwOfL+AXutpn4ziy4hTTim3PadNqx4mXiRN+BalVTmULlo72in116wyWG8BjMhitDjfA9RafyinJSL9mrsIVOyKRRYSKGho5sMP4JnGFYzhV/peQMuSMT7JXoQudPSMHXoUWCj0ih/Bs4444ZvNFyjLkhB+xVatmWEvsMQcQJCgpFB+E3OjsyvbMjTBXwiVjl9fTaQRMZQUeCIwCKgcT4XY66BPD9gyz1SQgHMqe6wEMg8lI4dSoDAPYKmPhziEuIUhyz6dME9oiEko4uMJywf1GMcc8MVqgnyXZekIWFBhRu5j/iMiAJJD5YOn9Nc/3OwklHGRj/AHR/SJxlSsJTA0KVkuy4TX6lFwnZWx8VKGYLZyyVM6cRpXFcdLUabjuOcOIU2vKHPXi4GUlc45GH0ycVwXLw1ei4fGOR+NHxgUgjsnSOnMMTxyMdpicjjkIulT4vHtExpwv/ACfMyy68rgyLWJsr+ILTiaf4d/H6YCI4ZPjarCx3DI/yJ4MV/wDncr8O5+/NVgs7f0pBbIrUIj/ZqJjmf4kpwnHBP/gKhaXMcUeVWcJxnKkqwpOFJ9F15pnHF3EiFnPDCFpXjijrFniN54ONmiuZ/wAfvWqEtmOr/LtaVy2Qp3knPLq+843AjNo04tHhReADdy/2K2pri82qL4+S63cwg14OJDqVglE4fxnT2f4bKqNlBz229MlzSijkS+/U3OcU8vONH1KVNG9rfKOqYjC3mxUHy0glln+irNtmn2drHb2Ass/AF907WptiejEFj79Us5TUnc40dUpUlIdrzXm1Jrw6G2Mvz9oJUnDens+tPFTmn1gR+2Lr1mAkhU+9agSC5q2KYHtkM5V5obDEJIIlIkU1vyaxfZQdkRxDkU5II0ytHPD4ijtl/sVtTPyuL8j3ayyvCK+tlmwAKOxnGcccebU78OL20d+9m+Sb+yn7affmMbv1bBZdgmzM6NOr5ySa8mqn4i7to39ykfPqa6ty5GJXSwmAaxHpH97tcpiHgCy9tLozMhY+ad1SiufrvMo0gle0yVFueTWL7KDtpMO0VAyjBFnhiqrOp7mnWFuwReHdl/sVtTPyuL8t+pT+CXpKIrV1kYPCWHIG3RMz2UM+XU78OL20d+9m+Sc+yn7UspgKzgEFf1fA7OXKAbTlWb1a/wCo3WQo/TqvOQcUtwrfqp+Iu7aN/cpHz6qVx59aZcKkXpEYGiPlcXevZxx2/ravbDvtEsIeY941ele9MGi26dZn6yUpt4IsKbje8GGW5U7n/ehWFowpG/WL7KDto59qkNrNCMT0U4I/GGHVGxZ7YBzElHNliUz8ri/NYajFzfaW9YKHKxfacHrt3lIdSWn4GaDnAsEg79Tvw4vbR372b5Jv7KftARuZeXHBT9LXtvpa9tOUmWgWudH0+ub5RSIyX36qfiLu2jf3KR8+olxfYLci4mv0eUmWEkq+lru30tc2g41EREjAte7lENiiukPAtu2m3J7y0VUKdEwnLTszSJnKc3g8KeSLLhaZyviNbbaXv1j+yg7aOfapDdqJWPGQucD0/s2YUxQhlM/K4v0L7Vg5CNKPZ0wMcGtjDKN+p34cXto797N8k39lP20+/MY3erGFJylS/wDSz+eU36qfiLu2jf3KR86+BFjzzacYSnCU+9asSvKQjYLej8V+hco5tNRAcyEoY+2VYyvEcV6ZSvh1kQyvfrH9lB20b+1SG/U6r8s6qXBpn5VF+SWMTHxhRa47VBPDGJIbUCvvY/vXeK6hPHa4X9s4F0GI0nhHXZPMs7v1P/Di9tHfvZvknPsp+1SOYjLEEYV9QoDb6hQG1k1HYUI4xC6dV92VmGi3d+qn4i7tp9YA6+YW6d9SYTb6kwm2NSITOeHk1Hr7sXMumN1nUZDIzY023eK6tPHZ29V1GNvqLELKZYY93s9LbsElzZEJGtREWOCPuJYaKYWwSFp4AJNtnN77XXm7EIyw9U661XBn2Wdz7SH2VtPQ9ADjJtJ6d77Tb7Smn5GgQZmcqbI0uTx4jo0uf4/3xWnEUIvCzGm0MtJba32KJRNxLoLtUqDFdMeIZ3utpdaW247pgCpxWW/peJt9LxNo/TeIHcwskZhoVhDI++bix5mNdCL+l4e30vE2+l4m2NMBMZxnyEMtEsrZIk9OIolWVhuaXPcf8bWlquP+UDTaKYUlRH/sJ//EAEsQAAECAgIKDQkHAwQDAAAAAAECAwARBDESEyAhIkFRYXKBBRAjMkBCUHGRobHB0TBSU1RgYpOy4RQkM0OCksJj4vBzg5CidNLx/9oACAEBAAk/Af8AkrvCNkqKkjihwE9Ah917/TaPfKKFS16VinvMbEk6VI/tjYtr4x8I2MZ+KfCNiUnmpEv4xsa+nRcCvCE0tnSbB7DGyTKT/Umjth5p5OVtQV7P0xlk+aTNXQL8UR2kHznDYJ8eyHWqKjIyjvM4pb75/qOFXk1qQoY0mRjZF1aRxXt07YoLbg89lViegxS/s7h4lIFh11dcEFJqI9mFBKBfJJkBE6c8PRmSP3eE4f8AsjJ4jGD11wSSayeBUx1oeZOaTqN6KL/vMd6TFKbeTjCTfHOKx7KEACsmAKbSBesgdzTrx6opKi3iaTeQNXB3VtOpqWgyIhv7Q3VbmxJY5xUYpCHkY5VjnGL2RXZ0gjBYRvj4CF2miYmGze15eFvrZdHGSYCaO9UHxvFc+Ts5oIKTfBGP2NICRfJOKCFKqVSsQ0fGFqccUZqUozJ4cTSKDjZUd7onFDoWOMk75ByEexbqWmUVqMWVH2PB3mNzOrw5BeLbo6FDIRjESYp6RhMz32dPsS5YoFSRWs5BBsGE/hMg3k+Jz8hrU26gzSpJkQYKW9kAMFVQe+ub2HXJAvJSK1nIIVJAvNtCpA5FJSoGYIxQsCnpGAs/nDx9hVhDLYmT3RNLKbzLWJA8eR1FK0mYUDIgwQnZFoX/AOqPOHf7BqCUJEyTUBCiNj2TuY88+ceSXC282bJKhEk0hGC835qvA+wS/wDyVj5PHgtla14TdHBlMZVGNi6FY52UmEJodLF9NjvFZiMWqEFDrailSTiPA5qRvXW/PTkhdmy6mySfYAj7W7gMJz5dUKKlqMyo1k8EE2rKzd0BX4a4vDbTgUgWDmmPEdnBF/dqQrcieIvJr7eX1BKEiaicQgn7OjAZTkT9a+Cpw6QbW3oCvr7LgTdlZtaYq8NfBDIjHCvvjG5vZ8itfjy8qT1JE3JYm/qew8FE3HlhCdcDc2UBA1XKZMUjd29dY6Z8EP3Zzc3h7px6oMweXFWLTaStROICPzFYKfNTiHRwVO50YWKNM/TtukzeoZs/0Hfdx1cFVOkUOTZzo4p7tXLipO0s4WZA8TLr4MJPEWx3SP8AktW2RM1baQptaSlQOMGPylyBypxHo4IqTDu4u8xx6jLlwzZQbU1op+szr4KmbDG7Oaqh0yuFG10E2boGMqrH7e2CFIUJgjGNtP8ARd7Unt6uCmbyBandJP0kdfLRk7YWDekq8PHVwZMnqYbL9Aq7zr2zJtlBWrVBm48srVrhU3qGbUdHi+GrbluqJJORWI9MJKVoJSoHEeCHBfTbEaSa+rs5aOV9Y6k/y4LW8sAnIMZ6ITYttpCUgYgNtW6UpU16CfrLo2lSZpYtKufi9d7XcJkzTBbP18buOvghkGnAVaOPqnFXLJmhpVpT+m8eufBU1bi12qPZ13Cpstm0taKfrM69okKBmCMUSsnEYYyKF49e2Jv0bdkaqx0cFM1Wu1q504PdyxvWkFZ5gJwZrWoqJz8EBUtRsQBjMSm0jCIxqrJ6dtUnli1NaR8L51XCryt2a56lDs6NuqBJqys2tA1eGrghvsuhY5lD+08sVrQGx+ogdk+CpmzQxbDpcXx1XCsCjJsl6avpLpuK2VhRGUYx0QbJtaQpJyg7acNg2tzRNXX28EqeYPSCPryxW7SB0AH6cFTJ+lbsvmO9HR27Zk2ygrVzCPxHllZ13KpvUM2H6Dve8atv8N5BQYEnWVlCuccDqUoo6Ukcsf1FH/r9eCDcyqyc0BfPhF4DbVulKVNWgn6y6LpUmaTuC9dR6ZXCdzpSbFemPp2cD4lIbV/2HLGKjz6VHw4InDfNrb0RX19lw2ttLcm2goVoGMc5mbq8RB3RSbFzTF47Ym8kWxrSHjVr4HWkz5YxUVPzK4GJuurCEjOY/DZQEDPnuG5kbxwb5BzQLZRlHc30i8efIbpWC6La3pCvq7LhMmH92b5jWOmfA8aB2cr+rJ7VcDTudFTJGmfpPpumkusrElIUJgwFP0GtSK1teIud8ysKllGMQbJpxIWk5QdtM3qGqyOga+48D9Gns5Xx0VPzK4GmTyhbXdI+F4attaUNpE1KUZAXKUt0mtbFSV82QwhTbiDJSVCRBuFTdoapDQNXftpsm3ElChlBjfMrKZ5RiPRwLEkDlfjMqT0H68CTNhndnOYVDplcK3SlKmrQT9ZRZP0CoGtTXNlGaHUusrE0qSbxuJM05IwHwK8ysohooXiPFUMoO2qTD+4Oa6j0yuE3lbi7z1pPb0DgPHWlPXyxxVrR0geHAkydpipjQFXfcGbLRtLfMPrM7RtlGUd0YUbyubIYcn56DvkHIRcNBaMRxpOUGJv0FRwHgKsysh2zN2xsHdMV+OvblNxGAcihfHXAKVJMiDiPAPWEE8wM+WB+A8hfanv4DvnlhM8gxnohNi22kISMgG2ZPKFra0j4V6rh0tup6FDIcoiTFPAwmSd9nTcIS42sSUlQmCISpyj1rYrUjmyjaVgUgWxvSFfV2XCZM0wW0aXG8dfAKmkrcP7Zd/LAmSypQGcXx2cBTeRuLXPxj2dNwrAo6bNemfp23K1IcSZpUkyIMKS3SakP1JXz5DchLFOrUipDvgYbU1SqK4FFCr1WKDNp1AWk5jtpm/Rd2TzcYdHZwAbxtLQ/UZ/x5Yvg3jFbLqkdB8uCpSjIAY4lZNowzlUb569syaaQVqOYR+I8srOu7Up6hVJcrU14iHEuNLE0qSZg3AtdJSNzfSL6efKITh0VU2nBvXGzk1z6tu+DWIG5pVZN50G+PLjCpLql6hg9x5ZGBSm0ua6j2dfl0zZoYtp0uL46rhW6UtWFoJ+suvyJt1DUcNgnrGQw7Zo4yeMg5CPIJwmTanNE1dfb5YTJvAR+S0lB55X+WRhUVy/oqvdtj5dMn6Xuyubijo7bhU2Wdxb5h9Z+SdsF4xxVjIREmaakYbBPWMou948goObPAsXWllChnHlRNto25fMn6y5a3rzZRzZ4TYuNqKFDIR5UbmpU3MyBfMCQF4AbZk8Ra2tI/wCT1eUcU26gzSpJkRBS1TakuVJd8Ddp3OlpkrTH0l1+VThPKtTeiK+vs5bTJmmJsv1ivuOvyqcJ42prRFfX2XCsCjps3NM1dXb5ZSnKNUh+tSOfKIWlbahNKkmYIuUzebFta0h4iY1+UTZOOKCEjKTG9ZQEzynGenltM6QzuzXOMWsT8oLJ11YQkZzG8ZQEc+fbMmmkFajmEfiPLKzmzeXm/QFHCZJ3udOSHQ40rpSchyG53iH1WIyCfk07jRBg51nwHdy6mVFpO6t5so6e0eTTuVETg6Z+k+q4VulLVhaCfrLr4C5Lz0HerGQiDa6Skbowo3xzZRtrsGWk2SjF5TzinCMkz5JJUtRkAMZiVsAsnSMazX4auXR96a3Rk+9k1wCCLxB8lschw2RWtwuysidWSUbFt/G+kbFt/G+kbFt/G+kNhoBAQhsGdiP/ALPgTqmnkGaVpN8RRl2Y/OYFfOmEUp5eIBEu0wAxQ0maWUnrJx+TTuFGMm58Zz6eHL6Pu1JO6AcVz6+PJom66qQzZTA3NpMp5TjPL6bJl1NifGBfQcFWJacR5MRKmUlN4GttGTnPsCAKcxfaV53umElK0mSkmsHkpH3JhWAk/mL8B7Bt7ukTfbTxx5wz8kzRRW77zuQZBnMNhtltNilIxD2Eb+7G+80n8v3hm7ORxIVuOGpCcsIkhNZNajlPsKJg1gw3Ohm+40Pys493s5FTnW4d6gZTCc63DWs5T7D1Q3NO+coycWdPhyGLXR0ndHyLyfE5obsUC+pR3yzlPsVYsU6tSaku+Bzw0pp5BkpKhf5AsqPQKxiW7zZs8NJaZQJJSn2Mbk6kYDyd8n/MkJt1EngvoF7XkPDWVvPKqSkRY0ik1hqtCOfKer2PSFIUJFJEwYUKO7WWFbw82SGFsujEoV82XhNcToVFN/CG6K5hi1wwGxxlVqVzn2SYbfaOJYq5skP/AOw8exXj0xRnGF++K+Y4+CgkmoCE/YaOeM6MI8yfGUM22kj892+rVk9lmW3mjWlxMxDq6G55u/R0V9cUb7U0OPRzZdVcJKVCsKEiOAUJ5xJ48pJ/cb0UwIHo2L5/cfCKIhDnpFYS+k+zdEZfHvoBIgv0RXuLsk9BinUd4ZHAUHvjY9bgytKC+y/FDpLOm0U3ba3DkSmcbGUq/jWiwHXBo1GGOzXZHqinvPe60kIHfFAaKxx3MM9ftHRmXNNAMbFUH4CfCNi6L+yNi6N+2NiqFraBigURGiykd0AAZB/wDKChlBndEADGYIIOMeScQge8qUUyjE/6ohQUMo4bSqOk53AIpLC9FYPLarF+mG1iVYTxu4a4VuFLFiBiCxV3i6WUocfksDHeML+4vqwSfylZeY7eSFqlb047l5VHorZKC4i8pw5Z4hFDdIXfs31hM+m/DLJzW0RQnwcrLgJ6jDlNtbSEhKKTOsnPzXBkbJv5hCifu+M+8LgyW20tSecCFOP0t43prvqNdZigr+Oj/wBooT17zXkk9SoefwN9R6VM9t8aoFiZ2LjZrQrJcEg21HbCidyTWc92lLlOeE0JVUkecYXSqYrGhO8TqqEMMozKdHdFHaXovJ74YprDRdSFKacvATvzsTy1hoZIozQGNU7/AFwsysEOtue8K+sT1xU8gKlkOMdNz6x/Ewmyo7blqWRxSaoX96aTuKj+YnJzjs2skenTcb+xMueJBhD6bZZVC/ji+Lvzm/mEer/yFx6u58pjz1fKdtIFIZcCQrGUnFH4ZQlWuZ8bj0qO2PRJ7buptKEp5rAHvMJAtjKXVkcZShM8uHdAmxb0zeECybogthJxrO97zqhM3qGbZ+k77uOqFX0bs1zVKHZ03PrH8TCA4y45YqScYsYWsN2Vsozw/wArESTSm8F5sYjl5jGSPTpuWy624bN1hO+ScZGUR96oib1qcN9OicUP2mkH8l7BVqy3XnN/MI9X/kLj1dz5TDgaZQolSziwTGybHXGyTR0Qo90NOCiIXMTGE6qqqEyplJIUtPmAVDtuPSo7Y9Entu0FdimxfSmuQqVCVqYRebeQJlIyEZI2RT8NfhGySPhr8IWlxpYskqSZgjllWCyLa5pGrq7YZs6K9JTiJSUMhEOJforySlXeDE5UV6xV7zZ/tMEFJEwRjuPWP4mPTDsi8rfNueYrLCClxpVg81iWn/L4MLs2XUzB7o9Om6atNJP5zV5WvLCfttGHGaGEOdPhOFGl0UXrW6cJPMqFzFS0HfIOQ3HnN/MI9X/kLj1dz5TDgaLxIsyJyvTjZVv4P1jZVv4P1h0PtNYRcZJStGeXhC7Ytd5l81k+arxuPSo7Y9Entu3C0UXnnk1z80ZIKKNR130rdrVnAjZVHwP7o2WT8D+6FlaWUysjjxnlg2LTSCtRzCJzpb9mv3UVnoEJDFJbTJp5IqzHKIBQcaTfbeTG5vkWmksmtJxHOK7+YQqb1ENpVo8Xqvarj1j+Jj0w+XaR9/YFQ/MT5vPkhR+wPm/P8tXneMenT5BtLNOZQXLNN62SEyFeME2ukJUhYy4JI7Ljzm/mEer/AMhcerufKY89XynbEwbxBg/hUncpZlXrj0qO2PRJ7bupyl7rPOu/AkBeAHLat1pasLQFfXLrhP8AQa7Vd3XtNWaMR4yDlBjdaGo4D4F7mOQwZM0wWo6XF672u49Y/iY9MOzbRuDh3dA4ivO5j2x6dNxUy2pfPIVRseQca2Fdx8YpLrJyONK7pxsiDmDaz3Q24EOixcecvYOMAQgpo7IKWyeMo3r3MJ3HnN/MI9X/AJC49Xc+UwSGWlEqIE8REPP/AAjDz/wjDbtuWLG3uCxCM4GWEH7FRlhalHjKFSbj0qO2A6UuoCU2tM8cIpvwx4wim/DHjCKb8MeNwgmhUpVmFDiqNaTDTiigWIpDd+ekO+NkAnMppY7op9kciWl+ENUpZcWEWZSEpEzXXyxTnm5ICEoSkSSImUNCVkeMcZ220uMrElIUJgxSXbS0sOIYIqIvjCyXD62Q2uzmkTnelD63g6uzmoSle20BbaxYqSaiIpTriG1WTTJTvTnOO4bQ42q8pKxMGGXKKs42F3ugzEbKEDItmfXONlGwMzJPfDjtMUOKrBR0DxhCUNpEkpSJAC4dU0lZBskiZvGcUpx4uIsJKSBK/O4FkhYsVDKIp1JQgm8kpBlGyNI/YI2RpH7BC6RSpcVSrFPVf64bQ00gSShAkBcWVrcxprByiNkaR+wRsjSP2CNkaR+wRsjSP2C4bQ40sSUhYmDDj1DUeKk2Seg3+uNlEEe8zLvjZUAe6x/dD9KfUMVkEjqv9f8AzC//xAAuEAACAgAFAwQCAwADAAMAAAABEQAhEDFBYYEgUXEwQJGhULFgwfDR4fFwgJD/2gAIAQEAAT8Q/wDoLXq1jXr1K6qlYVKlSsKwqVKxr0qwr+X3jeFy+i8LwuXLwuXLwuXhcuX1XLwuXLwuXLly5eN9Ny5eNy5cuXLly5cuXLly5cuXLly5cuXLly5cuXLly5cuXhcuXLly5cvC5cvC/wCYVKwrrrprCsa6K9CvRr1a6a9KuqsawrorCsawrqqVhWNdPGHGHE4/FHRQAMklARazKBfyH6hIguOz/WDZ56z4gGUM0KPoQcaA3JOoHgEBfaX7FDQ3X+6EFQC2pED5j9Q6AUaCnkQJtemnyCZxjxhx08YcYcTj0+MOJxOJx63HRcuXLly5cuXLly5cuXLly5cuXLly5cuXLly5cuXLly5cuXLly5cuXCEjId1Gzi+IYF2gN5gLIeRBQiqRa5T3Ch25HUDwCa9PKjEYDkQoGpwAI7VJHBEN5SCUDe4E8iFBHdB/bxAkaMhgjuDLly5cuXLly5cuXLly5cuXLly5cuXLly5cuXLly5cuXLwuXLly5cuczmczmczmczmczmczmczmczmcznDmc4czmczmczmczmc9HM5nM5nM5nM5gPOpwHck5QwRXJCdyz4QdG0ryW+d8gbQmVmQyT3J9kChMshyTi+IElBof2kfJB4iNMGg879gnOHOHM5nM5nM5nM5nM5nM5nM5nM5nM5nM5nM5nM5w5nM5nM5nOHM5nM5nM5wqVKlSpUqVKlSpUqVKwqVKlSpUqVKlSpUqVKlSsalSsKgYjEkIAdyYWcMSRt/103EJ2k/j8c/JZ3ixUWCiiiwUUWC6FFFDc8ZvxCIXylSAd6OFHzALuG29iWWxEqVhWNSpUrCsalSpUqVhUqVKlSpWNSpWFY1K/FHmfh4PaJ/YeHLHdaBdHzPzXYCOPFxx4OOOPBxxxxxxxxxxxxzKQekx2IyI2LEPlCqE23XvAXpQQYA5EHX8PUvC8Lxv17xv1BX1JJABmSdBC4cs4PuATn5V2BowwuxsScySbJwUXqrBYLBRYqLEqBHtzU6jbI9ncARKFb4CP0dCfTuX0XL6b/Kg6uzfgAZknQCzDwKgEpWRB+lDc3+BqPaVeoyBOx/cCb4GoAzMcxtmN8z6l+jeF+rf4TKTG5pR6k/WZQjsTzk33Pc1+CFYVjUrGsKwrCpWFSpUqVKxqVKlSsKlSoIKA0BZEERIklAQ1Hbv1ZjsPwdSpUqVKlSpUqVKlSpUqVKlYVKxqVKlYVjWP13qFFqT9ZmhLPwKeOO57nX4A/CBWmLkEhkQdDFbEUgAfqMxrmNZUqVKlSpUqVKlSpUqVKlSpUqVKlSpUqVhUqVKlYV+Cahesz2AakmgO8N4XIpf9kqZ/oD3T9Uezx0ALBBGREAn56QHQ79nIoofg7xuXL6LwuXhcvG5cvC5eF4X0EJQPoAMknQKOA+MnQIt9AchuT+JHAuUsEfsHIjUFShDAzoZj5AfIzBl4XLwvC5cuXhcuXLly5eFy8L6bwuXLwWCwXWulYrBRdK6DGihEnPUAfvgO49qIZcFBnyEsA5gBUi9ICKwVqfJIJPMETIgcH/AMRRdjAavPsRRHsVgYjUhApvy1B0I8wFAYPqDoexGRGhBixXSovaLBSpUqVKlSpUrCpUqVKxqVKlYVhUqVhUrAww8i8tmOwF+UNYeZo6yCySdST7Qxf8KFoHzXkEEgAAQACAGIFo/AZBonh+ftC0hg+i/pl4dzhUqVKlSpWNYVKwqVhXpV+CPIWbQAGST2AgIgs9JNEjuVvK09rS0+EZFsPNeODwEKw74WgPN+BQgkQQQRRB9N+gdsUwBRB7wIYKA6kvoD5HZ6T9tcvG8Ll4XhcuXLwuXLly8Lly5cvC8D3m2ViOXAvANfapoJtGSZ21MWgq+yATO5zPnG5c2jUFBz8Q07EewXQbaF6Zn3JHwCNYIbAMEFgiXLly5cuXLwuXLwuXLwuXLly5cuXhcuXLnPsefUCLyowTJ+BGnAnJDkVxAOWfa2dN5FEKJHh/j1LtAYWUAOPgL2pR59g2b9AB4O/42vXzmBU2WCfobge1AMoWTB6c23nkHwFiBgCoCcynXAOOUoEoBEHgxgxJzta+YgefaXCew0DhFyPAP5w+XtxYYQxsfah35rCiDHyFTs+g8wMXyq4jrcoPaM8wQMEcYrzhcBrZH0fh7XP9qJZoDO5/NBbDNA3nA8P2xlsDYsMA8/AGLWC7YCUN6mYuXUCTQ2GQmS8gTZzl4TxU5CQjSviAGZ2YogFEHke0y66MnYAbkn+akGY7Tz7WP3AKefiAniBRZY4BADgY0KIQNggK5+xhrlIGgZZef2Ohk44IUAQDn2hEwks1IoeSCEAEBIMEa+nfTcvrvov3tFgC7AP0C59rlQC4jUoDhHv0M7bgFhhDGxwAN9RBEhkRDaJALZPwK2WPaPuLIA/M9dwPa1nolOZMSJ3NufzH2k/gv1Nw4BEWT8n2g7IwzJCgBzBRkANZ/aI46BUxRvDG4dAynlROhAeQ3LECAAkEQcjCGADHe34fYvaXhBg6IL5Jz+YOQLeJr9vaqzHcKJ0Hy+hsAWwcwAgHx9zoeMQQO3zERzBFQS5AMEcHG+JtAzPY+K+0vsjQHc8Po+93Lly8Lly8LwuXLly5cvC5cvC5cuXCmCIEdy5+z7VZMLhYB9CFdyxcgTbDreoSt7XkmhsMh46d2hzZYS4+AJcuCCdO2GExuDY3ETVjbiK2r2ZWSL91H2RLly5cuXLly5cuXLly5cuXLly5cuXLly5cUUUUUUUUUUUUUUUUUUUUUUUUUUUrhyA3wHtBmkXsafCsBNyINkAIABACKKV0J4NggP39jqq+dhoEh8Qg+xMUUUoSYQKAQGfK/L2dvp54BDFFFFFFFFFFFFFFFFFFFFFFFFFFFF7y86+ufaK3mMiwew2NeiofkdoO8CM3WnUZkkMEUQe8IMCKEafCshjYjEek+954A8HA1n7ImSCPkFwAAsEMfia6q6ax2Sv2/wB+z8y2uABxcH+iwlQWW5LJ3PQSXAaZ2pfsGjrMp3i3j/QPD6qaksnQQjcoeeFYWmSsUClHgAXZeze+ZfyEqVKlSpUqVKlSpWFSpWFSsKwqVKlSpcuXLly5cuXLwuXLly5cvC5eFy5cuXG9n9dc5EUQkPj6GF9FByUhF8R5Qb9nvmNcn0vPropR+AhjmC5gz0AIPwZcuZ6gAFlIHg+AA+zEgZ0F9JcuXLly5cuXLly5cuXLl4XLly5cuXhfvO0nzh/1+z10uQjWSDuGIJt0CAdyTQEAAkCCGCNcdLji8xUXqdO1kdtTkyGwLMEHI9GvwkbLT8SmwAxB8OnkAiPgxmRBCC1+QgefZGI/8QF7xRRRRRRRRRRRRRRRRRRRRRRRRRRSk6YcsqKKLrWKixuIt4olDPJB4JiiilAiyDYICfn4AYVJ0ZJ/49mnY2irGB/ztmIoooABI0JkD/sGmoITjsd/KQ/WqMWFjlsNAGGeBJ9nFFFMoJcBoZHkI8RRdCiiiwUUUUWoZSeQH9xRRRRRRRRRRRRRRRRRRRRRRRRRRRe8V4o0fNH7+y1qkhYaPmW3BHRoD8lh5BI2JcmFCrEh5v2By5QwoU/9gDkdOgxV2OvjI/vIsQhQgasyB/0HTsICQQRREEkfdZJHzXgGI0mzN8/AcOEDkHIgKIPsKEYIzYl9A/mFBmU9gf8Ag+xbACQL1uACeIOYHPIAAD4GPcrmRywRuD6CgnhV6gGROxlyNqhMynMbZjcWcTEyCxLMEHMRTbYrD769rMb6ZZyvZEJyHQeb9G2xEihlDy17BdQfGBB9h+Qv0Dj9ykNXyHscqIcRqRB4CcuiyhLBzDQPhTz6RzlGALIgjIxj4RqJ0GncyOxz6H8R5wb93vkdc3BY8hJMmS2IrcGb5muACP3jY8axZAf2D5D2BSFDjyF+nz7y8OZzOZzOcecececOZzhz0c9AQgEQHIgxvGadQQA8gA+uMmQcyRKAEqZBG6fkVspzh4HdYEn9QgLt+gzQ2AobDrQxFfC0B1D2zGjyghnhYE6gjDmczK/YN4v0Dws5dctoRJBPVIINh0ynM5gSgEQQMEHQxzAZT/yFAo7g+vlaBCc6gHybmczmczmczmczmczmc4czmczmc4czno5nM5xrGuiuupXTXRWFYU3ABGShXmh9dQAhyKLoPLeLUqgdEGwQE/KNwPRDRjaq3L/0HXRCyEolfAR+jox11LknEDWZnYMPWkQFADMk5CKCZANQBuSzzKldFY1KlddSuisKwqV70r5UMDJZfT5H17cheLBj+gfJdFjGrNE5BI8kXgj0jJAUe/kIfY0Rgkdiuty/9g10fUBG+E2IoNwUR4mzlLiEH9eqfft4CwPYp5/NKMB0U2IryBR4hsxc9QQR8j1XYEMw5DowENyIFAEACAAyAx0FbjeWCPAcH6YgnjYkagiMLyrlaA6F7ZHRUOuvJxAoDAPyzcj1Rk0EQjdIbEgPfVFFFFFFFFFFFFFFFFFFFFFFFFFFFFD3oEgUEAeRyFFF1rFSqJyI1GY2KCVFFLxEoHMND4U84ulYKKKLFF6RrB0GvczG4yDuUKEsiCMxFFFFNL7IMpJQ3gFFFgsFiooUAHPMgAD5MRgU0FrchE8xRRRRRRRRRRRRRRRRRRRRRRRRRRRRe+7UGRZEWHkDyu3qGK9y4gA/cy4uFJgLLclk+cdtXXAJP6hX6cbsWA2AQHj17E4XDZkObbI7GxQbwqtQDMHY/rpBqAJBkQiBwCuPTM7kHFBkD7DsT79UrCpWFdFYVKlSpUrCsalSsKwrDPRqRRE/WWXb0yy5AyKIyB8M2JwVhR5VA2CAn5TuPYruNBs/7IHMaRCo48h/sDlYVAMiRvYaDuTkBqTAC6uFgrhr0h2DjmSFAAdyYDwLzKhbgUGwSpUqVKlSpUqVKlSpUrCsKxqVKlSpUrG5fTcvC+m+m+q5fQI2Wa5Bb9gY8o6QsRiARBGh9I7/AFgPXEMkAZ6T/wBbP/rZ/wDWyRmAREDJtBsiy129lWc0In+01gxIEkCN5CEfBPgQuQlKL3NHAMZCQYgnSk3AA7a+mdopYUQZ8S/J7Oi8Lly5cvC5eFy/x5QpIiVnE+LnyO4fjUhaMRQ5k2AZPiL9DOF5xdySTz+AUUUUUUUUUUUUUUUUUUUUUUUUUUUUUWD3ZB1HYOxBRB7iMIOBCIydiPgsafjDFURezY2UE8DQxRRRRRRRRRRRRRRRRRRRRRRRRRRRRRRY1KlSpWFdFSsKxrGsaxrCuhENE6k1N2OnYrRw8v4lAFEEaEH8UV41DQtN849yhdypUqVKwqVKlSpUqVKlSpWFSpUqVKwrGpX4Q7mSSwjK7BmNReYv8QyOgMP9BXJ0gE0g9A/2ev8ABCWokdmOYO/Ufpl+GUrEAz1l/Q1MVK7z3zNqT/wBQ/goygSAYI7GE6GEeyWoP88MvwlBUIJ5Z+hmZ2ZATf8A9AyAx5/ggCABIIg6w4ErDX3B1H107Aggo0R0LoUWKxWCiiwWCiiiiiiiiiijQA2VXYfQHKFzu2AGpPqfoZBD+FL6a86t+7wOveVyfGA/2OxyP4AM9dgQ2nLc4eYTv8SA33J1Js/wyx4AqPGdRurm4QCRCz9gOe0a7E+9P7nNj5PYdyaEPgjoO3/l2b0YAAEAgP4cXjgKAOYIOYhIxWRL9+Z7WPE2ouIO5ZBuCR7kgAEkUAMzD9Skod37fAx0EAbb7ms+MhoB/Eu6TCN3LMtwjBi2FnPeP6ggsuVBI3ZAbgke1LhZAMk9gIfBWGlfLAXqUSI/TiH3J/i2X6FDcGHTmsZk+RThB2hod3Ar4/WF0+ihHYg5ew74bf1z7QtnHI+AgQPgvMS1AiJnfOI8BDb+N1YZA+ICmOISLTIWG7T8EQuCdglbUn2IaIBycuC/SEDSZ/3Q693Wo/qHxWyEk5UQkWkSTwBIPzCJQzPgJlj9Q9b0Al/cF0fCgAAAAAA0H8iOmzztfkQsySdQE/Ig6yLwn6gGX/tzC17/AHWDDAJ0Zf1EA47yAgP/AMBr7+kgfHUEoTJEAILGzBGDz6QwXtRB9zbzAKf3AEy5FY94Ss4airQ19mAQOHIfpDGx71YrBRdKi6FFgutYlB7UJA2Q4hOyw2DqR8jyEjt0LAFqZBAQYA9w0V3A7Qh3Fx0XLZkHsUe7w+wgAIJwJd8FgoVgcaQohnZkkTmTaAMxIYCdUYIbqDMDux8OwFl+/qI7MNwZYIugeqvoIyzIFGQ6BjIQxWINRVENEkfYhHe0WgSZAMgczguOAEbPjgZGNWAECuy+QQhul6GAAyOosEHUHTLozwQQUYGIMZwcK6TfWZB6SLN0Bqj2mZ2xBDe4IflQUIzqZH2EEE7OB+wjvt9E0QRECTeiwWCxWC6l6a/ANHMi7QhuTIfYCcQK5gH8yaAIjMGgePgAjjqgQHO0IgJHY5PuhqJYbadhGfuD58CcPsJ/jd+gaFIB+FfcFkQ00AWQOg18QDKCBgiwR7D1bQJjuT8ZiCfcNHZHuYGOST8aAAD6L49QaUghU50/sicxQytWBITrmhsAPzg0gF06/KolnYGNMzeLAA7uBxWMQLKgEOfcKJ1IDwW5dUAlsx7BEIhBEslEgFgE5MQI8HIzK/3ZGgGwSORpPsJ/jd+krcgVl2HqGyBYOVZCiyQ4D7ZvgQRsINAUqiHsTXEvYepqvIZTa8QIA+SJ/n/4QVOAyKngNDIIH2KKNAMgDMu9ANQFQEIv3sjuVp6g0pUuEcwyEagCj2AByadrtoovXELRFjJQXAT0IjIKVAiHnbCyIPvVFgoooooooooooooosFFgooooopeEpg6CE7hjJdJRvLrZzotGiDo3DgTCHYhBZgo2DBYE9ruoStwEbqA2qIMAbBEUUWGH+32wAA00yMUG2hGoJhfIYw20w+xC8AwVTuuHchoQWCO4n+t3iiiiinhnWY7cuYe4iFrryvl+jxDg3YxHzDwWNhDcxFCuwP7yOhiiix9XqKLCgCaFRqWRh5d5/wChn/0MnFWBCNeYAdyK1QnbWte8NSdMzotxRRYjSqKKKKKX5RZPGb2akW6pFj6dckZ0Nkbkh6OBVu8oD7T5xVG50TJJFoyTWkUUUUUUUUUUUUUUUUUUUUUWKiii95tKw4BJPwIGxYJORQDsoeBF6qTYjIX06aK2fkNcGOY7jsQiNrEzzBMLs7wETsFGpq7MGyAZeP2ekD/b7MBJBPQLHZ8FnkNaD1JH4Y2A0OB0v/G7+gbgfGAAwDUkArM1aqDknvoASXcEOCe/q+r6BMOAYgGCDmDEBMjsT2fwPUGlQzLjFpmfkwKAYAEABoPwKwUUUUUWCiiiiiiiwUWCiiiilMyQA2Dg/JG4hWarCPBB9XgEkJY6+Aj9HIsQgCV102f+g6arKPTJoMy8/s4KLAD/AC+3GrejaIcm5n28q/3++CwU8U06iEcihzCO5AYPjLgAJlqRHIh9xw9mWGTfXigRLIicxRJ0dawGIdksS3AjHuRvgouh1esSByfCiAIiAzsjHPMnISgAPdEnsaWdwfQMqjmDvaJ2zzEUUWAygeZGw1sjFu3GAcSp1FFCTwjqvdpbI2OxgCDAIMRQYRexvtBoDNSASVEF3i+6/cqyTAQBm1N5YKKKKKKKKKKKKKKKKKKLBRRRRRRe8stB0AzRPcknmH4L0ACQkk3JJOJ/OlIbiFMRXC0gsyBApOrJ6FdPxyJkvzAkcEGRBEFiX98OygiCPEPeMJDMVrR9hkH0B8Oij9iDRl0jCg3gB4AELLR4cvgP6hQjuEh8LDH/AHQY72HwU2g5yhYFkABQHQdIaEAjIfEeg/GARq8dAMpUnIgRHxDVwExh2dOf7v8Auf7v+4TDE1ieQIgmOQIGwHQI4FF6GLBO4IhdUP8A3f8Ac/3f9wfKC/8AZ6EkUBH7EGjD+YaA/H/AQIuzml9HDQPbhiTyQhOig5j8B/8AAo+lRRRRRRRRRRRRRRRRRRRRRRRRRRRRRRRRRRRRRRRRRRRRRRRRRRRRRRRRRRRRRRRRRRRRRRRRRRRRRRRRRRRRRRRRRRRRRRRRRRRRRRRRRRRRRxxxxxxxxxxxxxxxxxxxxxxxxxxxxx4OPB4uPBx4OOOOOPFxxx4OOOOOOOOOOPBxxxxxx4OOOOOOOOOOOOOOOPB4OOOOOPBxxxxxx/nawqV110VhWNY1hXRUrCsKwrCsKldFY1Kly/Vv+QPBx4PBxxx4OPBx4OOPB4PF9TjwceLwccfQ4+hxxxxxxxxx4OOOOOOOOOOOOOOOOOOOOOOOOOOOOOOOOOPBxx4OOOOOKKKKKKKKKKKKKKKKKKKKKKKKKKKKKKKKKKKKKKKKKKKKKKKKKKKKKKKKKKKKKKKKKKKKKKKKKKKKKKKKKKKKKKKKKKKKKKKKKKKKKKKKKKKKL+Xf/8QAHhEAAQMEAwAAAAAAAAAAAAAAAQARUDBgcIAQIJD/2gAIAQIBAT8Azk9F9RzcBvgTppCXEYODREuMJCwz2G1TJkyZN4gf/8QAFBEBAAAAAAAAAAAAAAAAAAAAsP/aAAgBAwEBPwAM/wD/2Q==;clipPath=inset(7.78% 23.33% 6% 23%);" parent="1" vertex="1">
          <mxGeometry x="-213.53" y="410" width="58.09" height="70" as="geometry" />
        </mxCell>
        <mxCell id="CEkO3Uq_BOmMnPw9GR2j-6" value="" style="shape=image;verticalLabelPosition=bottom;labelBackgroundColor=default;verticalAlign=top;aspect=fixed;imageAspect=0;image=data:image/png,iVBORw0KGgoAAAANSUhEUgAAAeYAAAHfCAYAAACF5nuqAAAeJklEQVR42u3d3bHaSMKAYYVACAqBEEjAXq7HnipCIARCIAQyWHam9p4QyGCp+o7P3JKBP3OO8MGYH4FaUnfreaq6tmrWP7KgeQ9qUBcFAADX/TF9GX/9/LKcTf83cjYAoGdfp/83+fr52/cfY//l0+vcGQGAOMJ8HNvDf3NmACCOML+NL5+/rWfTf0pnCAAiCPPJWFh/BoB4wvy2/vznp5eZswUAcYS5Gi8b688AEE2Yj+N1Zf0ZAKIJ8/vlbevPABBPmN/Hv77tvn56nTqTABBDmE/Wnw93EXNGASCKMJ+uP7u8DQCRhPlj/dnZBYA4wvyx/uzrVQAQSZhP1p99vQoAognzz0DbXhIA4gmz23sCQGxhtr0kAEQYZttLAkBsYba9JADEGea3r1dZfwZAmGMJs+0lARDmGMNse0kAhDnW4faeAAhzdMP2kgAIc4zD9pIACHOMgXZ7TwCEObb15y+fXuceRQCEObb1Z1+vAkCY41t/9vUqAIQ5vuH2ngAIc2zrz27vCYAwxzdsLwmAMMc2bC8JgDBHentP688ACHNkX6+y/gyAMNteEgCEud72ki5vAyDMtpcEAGG2vSQAwuz2ngAgzLaXBECYs1t/tr0kAMJse0kAhNlwe08AhNn2kgAgzLaXBECYbS8JAMLc3e09rT8DIMy2lwRAmA239wRAmNMa1p4BEGZhBkCYDWEGQJiFGQBhNoQZAGEWZgCE2Wg5zIfvPbs5CTmbTP6a/Rg7ZwKEOaEwuzkJOQb578mPIG9+jO+H4YyAMKcWZjcnIZMg/3v0I8qrY5CFGYQ57TD/HC+bP6YvY89U0oryfxY/Irw/j7IwgzBnEObTzTFc3ib2IP89PawjXwqyMIMwZxbmj/Vnz1riC/J/x6fryMIMwjyUMH+sP/sKFlEE+W0deVknyMIMwpxvmE/Wn329iv6i/Nf82jqyMIMwDzTMPwO9tP5Md0F++/rT7tEgCzMI84DC/L7+/OXT69wzmvaC/O+y7jqyMIMwC/PH2Fp/JnCQR9XXn76HGM4oCPPQwvw2vnz+trb+TPMov91Gcx8qysIMwjzYMJ8Mt/fkiSC/rSNvQwZZmEGYhflk/fnPTy8zz3buB/ltHXndRpCFGYRZmC98vcr6M1eCPLp1G01hBmEW5laH7SU5jfL7doxtB1mYQZiF2e09uRnk+rfRFGYQZmHuathecqCXrX/fjlGYQZiFOYYw215yYFHuZh1ZmEGYhTno+rOvV+UX5PvbMQozCLMwRxlmt/fM7LJ12cc6sjCDMAtzW+vPvl6VapAf3o5RmEGYhTn2MNteMtEoP7cdozCDMAtzMmG2vWQaQW62HaMwgzALc3JhdnvPSC9bt34bTWEGYRbm+IftJfsPctDtGIUZhFmY0w6z7SV7jXL47RiFGYRZmDMI8+ntPa0/dxHk9rZjFGYQZmHOJ8w/v15l/bm1y9Zln7fRFGYQZmFOetheMmCQRzHcRlOYQZiFOYvh9p4NL1tPU/j6kzCDMAtzguvPZtojQe5nO0ZhBmEW5mGE2faSD122zmMdWZhBmIU5ofVn20teinJe68jCDMIszOkF2u09i3RuoynMIMzCPIwx2O0lY9yOUZhBmIVZmAe3vWTM2zEKMwizMAvzoLaXjH07RmEGYRZmYb42srq9Zw630RRmEGZhNpLfXjK17RiFGYRZmIU5y+0lU92OUZhBmIVZmB+8vWf8688pb8cozCDMwizM2WwvWa0jb4RXmEGYhXmQX6+KZf05p+0YhRmEWZiFOenbew7pNprCDB06XBY8rN95kRdm20vWvmw9HdptNIUZenvn/LLxIi/Mtpe8FuS8t2MUZojUYe3u7RaJXuiF2faSx3XkkXVkYYYILm8LhTC7vafbaAozRBbof8ovn7+tvcgL89C2lxzidozCDMmtP3/bepEX5ty3lxzydozCDAk6vLhVH7LxYi/MyY16YXYrTWGGJNefX5Ze6IVZmA1hhsjWn329SpiF2RBmiHH92derhFmYDWGGyAL9Hhbrz8IszIYwQ1zrz27vKczCbAgzROWwsYD1Z2EWZkOYIbbL259ep9afhVmYDWGG6C5vD3z9WZiF2RBmiC/Qh69XDXT9WZiF2RBmiPby9hBv7ynMwmwIM8TubXvJoVzeFmZhNoQZElt/FmZhFmZhBmJaf856e0lhFmZDmCHZ9eccv14lzMJsCDOkLLvtJYVZmA1hhjzWnzPZXlKYhdkQZshp/Tn523sKszAbwgy5Sfr2nsIszIYwQ7aBTvH2nsIszIYwQ96XtxPbXlKYhdkQZhjEu+e323smsP4szMJsCDMMydvtPWNefxZmYTaEGYZ5eTvS9WdhFmZDmGG4gY7w9p7CLMyGMMPQRbW9pDALsyHMwLsotpcUZmE2hBk4vbzd8/aSwizMhjADlwLd0+09hVmYDWEGbkSw6+0lhVmYDWEG7utse0lhFmZDmIG6l7c7uL2nMAuzIczAY/6YvoxbW38WZmE2hBl4TivbSwqzMBvCDDQMdMjbewqzMBvCDDT3/vWqAOvPwizMhjADAd89N91eUpiF2RBmILynt5cUZmE2hBlo6/L2E7f3FGZhNoQZaDvQD2wvKczCbAgz0I1a20sKszAbwgx06+btPYVZmA1hBvq4vH1Yf35ZCrMwG8IMRBXos+0lhVmYDWEG+vdze0lhFmZDmIG4LnELszAbwgyk9O5amIVZmAGEWZiFWZgBhFmYhRlAmIVZmIUZQJiF2RBmID1Xb05iCHM+YzeZ/D0x24HEAn12cxJDmNMf+x9jbnYDaV/a/vQ6fWrvZ0OYoxp/ryaTf4/MaCCfQL+vPe+FVZgTG5vJ5L9jMxjI9PL2Yf35dSWuwpzIOvLUrAUG4Y/py9j6szDHu478n4VZCgzSn59eZtafhTmydeTSzARc3rb+LMy9ryP7+hPAWaAPX6+y/izMXa8j/zUz+wBueNv7+fO3rQALc7vjcH58/Qmgtrf1Z5e3hTn8WFtHBob1jvfzt8WXz9/Wh0vTzS9v/1x/FmRhbjq21pGBwYa5Csjh3e7iENfmgf6nPMRelIXZbTQBng/z+/jXt93hsnSQP/uw/uzrVcJc/+tPS+vIgDBfvfT8sjmENcTf8eXT63zI68/CXOfrT9aRAe6E+TheV2Eubw93e0lhth0jQMAwf6w/h/j7hnh7T2F2G02A0GH+uf582BYyyN87oO0lhdl2jADthPlk/fnwzjfg378X5uzDbDtGgPbC/DPQy3Drz/ne3nPgYbYdI0B3YX5ffz586jrIsbzd3jO/9eeBhnnvNpoA/YT5Y/050Nercttecnhhth0jQP9hrkYLt/fcC7PtGAGEuflwe8/hhHlvO0aA+MP8tv4c9PaeiW4vmXeYrSMDpBTm49gGXX9O7PJ2pmG2HSNAwmE+ub1nqPXndG7vmVmYbccIkE+Yw28vmcLXqzIJs+0YATIN8+C2l0w/zLZjBMg/zC3c3jPW7SUTDrPtGAGGF+Y2tpeM6/aeCYbZbTQBhDnf7SUTCrPtGAGEOf/tJdMIs+0YAYS5xvpziK9Xnfw798JsO0YAYW4e6GW4r1d1v/4caZh3bqMJIMyD3F4ysjDbjhFAmCO+vWcH68/xhNl2jADC3NJoYXvJnMPsNpoAwtzZiH57yR7DbDtGAGHuZ/055u0l+wmzdWQAYY7g61Wh1p9D3t6z4zDbjhFAmGMbcW0v2VGYd9aRAYQ56svbsWwv2XKYbccIIMwJjZC393xye8n2wmw7RgBhTnj9OdT2ko/e3rOFMNuOEUCYc1p/7nZ7yYBhth0jgDDnuf4c6vaedbaXDBBm2zECCPMAxmG9ONDXq25tL9kszLZjBBDmwY0w20ue3N5zHyDMG19/AhDmoQe6le0lHwyz7RgBhFmU27y9Z70w/zV3G00AhLmD7SUBQJgj214SAIQ5wu0lAUCYA369KtT6MwAIc4TbSwKAMEd2e08AEObA20t6JgEgzJluLwmAMAtrhNtLAiDMRmS39wRAmI0It5cEQJiNQMOzDABhFmYAhNkQZgCEWZgBEGZDmAEQZmEGQJgNYQZAmIUZAGE2hBkAYRZmABBmYQZAmIUZAIRZmAEQZkOYARBmYQZAmA1hBkCYhRkAYTaEGQBhFmYAhNkQZgCEWZgBEGZDmAEQZmEGAGEWZgCEWZgBQJiFGQBhNoQZAGEWZgCE2RBmAIRZmAEQZkOYARBmYQZAmA1hBkCYhRkAYTaEGQBhFmYAEGZhBkCYhRkAhFmYARBmQ5gBEGZhBkCYDWEGQJiFGQBhNoQZAGEWZgCE2RBmAIRZmAEQZkOYARBmYQYAYRZmAIRZmAHgqtn0fyNxFmYAogv0P+XXzy8bIRVmACLydfp/k6//+rYTVGEGICJfPr3Of0RlL6zCDEAk3tefX5biKswAROSP6cvY+rMwAxCZr59ep9afhRmA2AL9/vUq68/CDEAs3r9e9boSXmEGIKZ3z4evV1l/FmYA4vLnp5eZ9WdhBiAibu8pzABEGeh/yi+fv61FWZgBiMj7+vO3rTADQESGfntPzwAAojPk23t69AGIONDD217Sow5A9Ia0vaRHG4B0Aj2A23t6lAFIyvv6c7639/QIA5CkXLeX9MgCkLTctpf0iAKQvJPbe+6FGQCiCXT620t6FAHITsq39/ToAZCtt+0lE7u87VEDIGupbS/pEQNgIIFOY3tJjxQAgxL77T09QgAMUqzbS3pkABisGLeX9KgAINARbS/p0QCASgy39/QoAMB5oHu8vaezDwAX9LW9pDMPALfePb/d3rO79WdnHABqeLu9Zwfrz840ANTUxfaSzjIAPBzo9m7v6ewCwJPa2F7SWQWAhkJuL+lsAkAAobaXdCYBIGigm93e0xkEgBY8u72kMwcALXp0e0lnDABa9sjtPZ0tAOjIH9OX8b31Z2cJADp2a3tJZwcA+gr0hdt7OisA0KP3r1d9rD87IwAQw7vnantJZwIAAAAAAAAAAAAAAAAAAAAAAAAAAAAAAAAAAAAAAAAAAAAAAAAAAAAAAAAAAAAAAAAAAAA6M/4xJj/GyKkAIHWHoH0/G5M7v+fRX9+2zcmx7H+M2RN/Rt1/0+HPXld/z/cLY1cdz/LHKD29ABh6mA9j0UKYD+/Gt1difG0AgDC3FOZHo7z31AJAmNsJ8+xGfDcn4zTeG08tAIT5+TDfsrrwb57f+PVl8f6BNACIIsyj6r9Nq0iejklR79PTkyp+p793Vv338oEwl2fHMbvy90/OxujGn79tcL6P5+b03zW/c85HN46tLH79sNv45NeNz/77rMZ5ACCzMF96d3lpLK/82Ydg7Gv8/vGNcK6q+Oyu/N7thSjd+jdd+vOfCfK9c7O78k78/DE6/oByPK7NlWPdVT+UXFsff/YT7AAkFOZlUf8DUssax1LnE8+b4rEPZl2K6yNhXjwR5W2DY5tcCPi18/HMuZiYBgBxh/l4afXauPXCPn8wCuUT77b3AcK86zDMq6JZLOv8wNLkXKxNA4C4w9wkIofQHi6fXvrw07xofsl4cuHP3twI+OrGu/iuwnx+aX5bnaPju+nZhV+zqvkY7c+O59K52FR/36ga68JXuwAGE+Z7djci92wANxfCN6vxQ0EXYR4Xt9fHj5YXYnrvMVoUv6+Vnx/rsuZjDsBAw7x5IMzHd4PjBn9m3Ri1Fea6EZw+GOayxXMBQGRhXhW/f83pdNQJ86T4/etOizvvmG99cOx4WXqaaZgnD4a5zR9SAIgszPfeAd/69ePi+teUrl2OPar76eW1MAszgDDXi9gjUb4Wjlnx+weUzsdUmIUZQJhvR+zSB502Rf1L2Zcc/szVnaB3HeZNC2F+dI1ZmAGE+W7Ezv+s3ZPheDQ4XYf5sN49anB+ywu/biHMAHQd5vLOO+Zxcf0T2Nsew7woLt/Wc1b8fvOV4wfeljf+7PVZ2CfF799jXgcK8+rCDxErYQYYRpjLKwHbFNc/1HUa0eWF33ft9846DHNZPP4VstONLtY3fs21+4LPAoW5zt/nzl8AmYa5KJp9+GtT1L8l56jDMF9711z3NpllUW9jjmtr2KHCXOeDdABkFubxjQjtL7x7PI1onXhd2hGpizAXVcAe+cGjPDsvdaK5LH6/9NxmmOemAEBczvf6nRT3P9h079eX1Qv+uvj4VPas+LhX8+nvLc9+7+m+wavi43L26Z9RXPg9t/7Ma//OR/5N5792UUX0eHzr4tc9p8srv3d84fce/23lA49R3TCvTo5rfXaspac/ALSrztUDAECYAUCYhRkAhBkAEGYAiDDM++p/V8Vje2UDAAAAAAAAAAAAAABtmxQf97M/jM2FcXrv+Hn1e8ZOHQA0V1aBvban+jN7la+K2xu3AAAX3hlvAsW47p7sAMCZwzaj6w6CfBxTpxwALjusA+87jPL3wt3p4Ddl8fEhjSEPEOXuo/y9eocOnJj0MBFjHDBko56ibO6BMHtxgAs2Pc27jVMPwizMEM9rwNrpB2EWZojj3bKvSoEwCzOcGfc872YeAhBmYYYPy57n3cRDAMIszPBh1/O8Kz0EIMzCDO9GgefQ4etWm+JjA4tV8bGpxda8A2EWZuhm7m+L+pekR9WvnRc++AXCLMzwi3mgKLtzFwizMEMAi8IaMQizMEM0VgHeLQPCLMwQyKbhnFk5hSDMwgzxhHnhFEI7jp+SbHOE+tRnmwOEWZhhMOxAA8IMCDMgzIAwgzADwgwIMyDMIMyAMAPCDAw5zGXx61erFmfj9P8b0n2DD//WacTHNmvxzx+fPe6zC8+LWeTPjaGE+fQxmN6Zv+XAXptjnsP35t385DGc9jjHRleeX/Pqv42FOcwDfzihq+L6VnV1j3lZvTjnFutJdX72RXyb3R8mxvrkcXj23JcnP4Qti9tbFz46dtWfd3xB6ev5kVuYj5E5Pl77otm9E9Yn4c7NtPj1lqyx/UBSnvyw++hjuaueA2VLr33HPjw6f9Ytv1nILsxl9UDuivbuLLZpMdKLJ49p/uDfM7tyjiYtHNvkwRfk+RPHdv4isAwQqxieH6ncbW8TaO7OA/7QdGuv6VWL7y6fnSfTB+dJV3N49MTjOKvOccjX4WXDOTU++eEg1DHtYrlKEWuYJz28EO+rB3oUwaRe1JzMizs/sc4iPrZbLzht/zDW1/MjlTAvGs7dVU/HvctwDocOc53wdPVD1fbBy8nTsyuCbY2VMP/+hFj3/KK0C3iJbNHSeZ3XfHIuWji2VcMXmjpXBWKO1v6JKxpDCHPZY5AvPUaznudwqHkSeg6v7lzd2vbwWJV33hl3EeOo4hxTmKc9nPy21+mendTbBy9Z37pc1NUPDY8e263zu0kgXqsn3pnlGuZZZHP39Lk66mkOdzFPFk+G8PwKR99vhrZXLu1vM2hA0mFeRPzi29e/6/ynxk3gx+fZY7s0sbeBz+06kYBtH3zhTyXMj7zbXBXxX+EYRzCHn12eW7dwbOMnfkDoIoKPXEnoapRDDXPsE3vV06QuqyfqsqXHp+kLzqjhY9fWscX8/Ejl3zTJZO6GiHOT5+LIPHnoMYrxqst6iGGeJfKkmfcwqZeBnqixHtv2zrJGSi8q8wGGeZXgC/84wTm8G0iYYx7lkMI8TuzB6XpShxopHts4wRf9UUZhvvdcnyf6Art7Ys3ZHDaWQwrzLrEHZ5NomMsEX3CKBCfvIqMw5/QDddNLk8JsbIcS5lSfUJME/52TiI/t1juzbZHfu+YcwrzJ4IV2Yg4bT3xeIOswjyJd5G/j3xvDxJkm+IJTFOl8MvuRTzOnHuZJJi+yO2E2Wn5TllyYZ4k/QGVik3oR8bHNMruqss4gzNvM3y0/esvMGJ6Hc2HO4r4WUYc55CXKfbUwf23DgePuIqE+4fzoJ7SF+fkn++zOO57Dc29V/LpbzHFcu+xUFr/uNBP6Xfm+xmXgOiPEJ3k3T45lx2vLu+JjU4rzsQx0PpqsNZvDRucfAOs6zGXgJ+sj1/2bfif4mQ8C9D1x9hH/tL2/865lUv2aTfGx21Mb27SNAp+LEMe4KeL76X4Z+LFfPHj1adrCO/YykTk8FeYkP/ybTJhDfc1i1uDfHOJS+ijyMO9q/ODS57HNiviEWj+dZhrmXaDzs2r4QZpJwHfQs8jn8CyyOXz6g/Ks+HXP81XPnxk4Xj07vXIW8t7fWYc5xKXDeQQvfHU/CLCIOHoxH1tfQpyTRQTPz9BhDnWlaxXoeMaB4rw2h2sdz7Lma16ox6XODwjHPZTrXPVYFcLc6k/d24ATu4sXvq4m9f6JF+NFIciXLmvHsBYVW5hnEb6wTQI9N2Oaw7NI5vDxszux3VRp3eC1JJb2RBfmEC96IV/gmzxQqwiepKdBHkU2gZoeW5/WEQQotjCHeK5MWnisNkX7y1JDmsObAK+xZUvnp4zgOZxlmCdFd2u7daw6+He3OalXDZ+sbR9bakEOdV5yDHPT42nr3UaIe6pPEp4ni4DHMYmoK3XX2Lt+rgjzk5edunpS7zqeOOcvcpMIAnTt+TAu0ibM4Y9nGfFr2KyneRLDHN4V7WzQEONXk0K8McwyzDG84J2adfAghZzUt7761HeYn1kfi9W0EObQrxPTFh+vbcvnKuZ5EttraqjnSxvLHsKcyJNoUqQT5nULl4ZDXgZL9bJ1G88LYe72doZtn6uY54kwC7Mw9xDmfYsvajEfmzALc12ryMMc8xwWZmEW5ogmTuzHJszC3NXzeGEOC7MwC7NJLczCLMzCLMxZhDmlPWtNamEWZmEWZmEWZmEWZmEWZmEWZmEWZpNamIVZmM1hYRZmYR50mA83MTl8p/u4X+82oueFMAuzMAuzMAvzIMJcViHeRf68EGZhFmZhFmZhzjrMoyrIQ9pQXZiFWZiFWZiFOcowjxN4hyzMwmwOC7MwC/MgwtzVpuvCLMzmsDALszCb1DUuX+8TfV4IszALszALszBnF+Z1ws8LYRZmYRZmYRbmrCb1JPHnhTALszALszALc1aTel0IszALszALszALcxTHNsrgeSHMwizMwjyYMG+K9JjUj5kJszALszALszALczzHFvJGIvvqGB8d20KYhdkcFmZhFmaTOkiQvldxL3ucwMIszMIszMIszNkc277oP0jCnFaY14UwC7MwC7Mwt3ZsTS9dxzCBhbnbMLd9rsxhYRZmYRbmJ8damFsLc9MrGfMWn8c7YRZmYX7+gW16YvZFekzq7p4fi0iOI8cwNz2eVUvP4bKDCJjDwizMd0YpzMIszJ2Huek6bls/VM+FWZiFudkDG+LmEfMiLSa1MOcQ5kWAuTuL8DL2d3NYmIce5qJovla1E+Zsj23c8HiWwtxamEO8qO2rH85j+mFhaw4LszCH+55q10ZPXkY3qbt7Pm4imcA5hjnUrVK3geI8C3Q8S3NYmIU53P2yFx2cm0n19xxfJNcZTZwcw9z0Mwij6pzsC2Fu64fq4zvnaYPHaBXoOL7XPA5zWJizD/M44KTaFeHWrcbVJF3ceAHaZzRxYj22XQ/HNAn8Yp9rmOcBz9Fx/s5rvAiPqrm5Cvz3781hYRbmcC++145jUY3JlTE9+TWr6vc8eixlJhMn1mML8a5sW/3ANroxQWfVc2Df0nMxxzC3vfPX+b3Nty3/fStzWJiFOfzl7D7GNJOJE+uxtfHc2LYU4KGFuWjhXWufozSHhVmYf/3Je5/oZF5kMnFiPbZJBi/4OYe5zCTKK3NYmIU5n3fNm0wmTszHti+EOdYwp37F63jJvDSHhVmYL79r3iU6qYW53WNL/XJp7mFOde4+e5Mic1iYBxPmlC9b+mm73WMbF8Icc5iPj1GKVzZ85VGYhbmGeYKTe2pSt35s60KYY/+e/yyxx+XZm5uYw8I8uDCneOlyaVK3fmxlke5a81DCnFKcm9xxzBwW5kGGObV3zhuTupP9sWcRvJgLc/qXtVdFs9uAmsPCPNgwH0/cLpE4m9Tth7mvqymb6h37rBDmukYRLj/sizB3BjSHhXnQYT5O8EURZ4x31WXssUndWZiLDp8Pm7MXhFEhzI+aRvLDddN3yeawMAvzBWURZkOBULf6HJvUvYW5zasp++pF/Nrjuy2E+dlAb4ru3yEvi2YbmZjDwhxFmDcNx7KjSb7q4CfxXXU5bhHwiTGL+PzOEnjsz6+mzAM8D44xrvPp+nlP52XZ8LGZFXEoT85hW3O27mNpDnd3bE27Mm7hmMYBjosbE31S/LoRxfaBSXw8wavqz5i19NMZ7RoXHzuB3Qr19uSqx6ylCc9j71rmJ4/dpuZVse3ZvJ228M4Ybvp/h9gLw7B2o3YAAAAASUVORK5CYII=;" parent="1" vertex="1">
          <mxGeometry x="-220" y="280" width="71.03" height="70" as="geometry" />
        </mxCell>
        <mxCell id="CEkO3Uq_BOmMnPw9GR2j-8" value="" style="edgeStyle=orthogonalEdgeStyle;html=1;endArrow=block;elbow=vertical;startArrow=none;endFill=1;strokeColor=#545B64;rounded=0;entryX=0;entryY=0.013;entryDx=0;entryDy=0;entryPerimeter=0;" parent="1" source="CEkO3Uq_BOmMnPw9GR2j-6" target="ZNpQD6KD1uZFFYSede-m-27" edge="1">
          <mxGeometry width="100" relative="1" as="geometry">
            <mxPoint x="-40" y="290" as="sourcePoint" />
            <mxPoint x="60" y="290" as="targetPoint" />
            <Array as="points">
              <mxPoint x="-40" y="315" />
              <mxPoint x="-40" y="200" />
            </Array>
          </mxGeometry>
        </mxCell>
        <mxCell id="CEkO3Uq_BOmMnPw9GR2j-9" value="" style="edgeStyle=orthogonalEdgeStyle;html=1;endArrow=block;elbow=vertical;startArrow=none;endFill=1;strokeColor=#545B64;rounded=0;exitX=0.5;exitY=1;exitDx=0;exitDy=0;entryX=0.5;entryY=0;entryDx=0;entryDy=0;" parent="1" source="CEkO3Uq_BOmMnPw9GR2j-6" target="CEkO3Uq_BOmMnPw9GR2j-3" edge="1">
          <mxGeometry width="100" relative="1" as="geometry">
            <mxPoint x="-40" y="290" as="sourcePoint" />
            <mxPoint x="60" y="290" as="targetPoint" />
          </mxGeometry>
        </mxCell>
        <mxCell id="CEkO3Uq_BOmMnPw9GR2j-10" value="" style="edgeStyle=orthogonalEdgeStyle;html=1;endArrow=block;elbow=vertical;startArrow=none;endFill=1;strokeColor=#545B64;rounded=0;exitX=1;exitY=0.5;exitDx=0;exitDy=0;entryX=0;entryY=0.75;entryDx=0;entryDy=0;" parent="1" source="CEkO3Uq_BOmMnPw9GR2j-3" target="ZNpQD6KD1uZFFYSede-m-60" edge="1">
          <mxGeometry width="100" relative="1" as="geometry">
            <mxPoint x="-40" y="490" as="sourcePoint" />
            <mxPoint x="60" y="490" as="targetPoint" />
            <Array as="points">
              <mxPoint x="-20" y="445" />
              <mxPoint x="-20" y="643" />
            </Array>
          </mxGeometry>
        </mxCell>
        <mxCell id="CEkO3Uq_BOmMnPw9GR2j-12" value="" style="edgeStyle=orthogonalEdgeStyle;html=1;endArrow=block;elbow=vertical;startArrow=none;endFill=1;strokeColor=#545B64;rounded=0;exitX=1;exitY=0.25;exitDx=0;exitDy=0;entryX=-0.021;entryY=0.889;entryDx=0;entryDy=0;entryPerimeter=0;" parent="1" source="sWpOQSRF8GIG0QyO_1Pz-3" target="ZNpQD6KD1uZFFYSede-m-60" edge="1">
          <mxGeometry width="100" relative="1" as="geometry">
            <mxPoint x="-91.76000000000022" y="553.655" as="sourcePoint" />
            <mxPoint x="60" y="450" as="targetPoint" />
            <Array as="points">
              <mxPoint x="-147" y="554" />
              <mxPoint x="-50" y="554" />
              <mxPoint x="-50" y="670" />
              <mxPoint x="-10" y="670" />
              <mxPoint x="-10" y="669" />
            </Array>
          </mxGeometry>
        </mxCell>
        <mxCell id="CEkO3Uq_BOmMnPw9GR2j-13" value="" style="shape=image;verticalLabelPosition=bottom;labelBackgroundColor=default;verticalAlign=top;aspect=fixed;imageAspect=0;image=data:image/jpeg,/9j/4AAQSkZJRgABAQAAAQABAAD/2wCEAAcHBwcIBwgJCQgMDAsMDBEQDg4QERoSFBIUEhonGB0YGB0YJyMqIiAiKiM+MSsrMT5IPDk8SFdOTldtaG2Pj8ABBwcHBwgHCAkJCAwMCwwMERAODhARGhIUEhQSGicYHRgYHRgnIyoiICIqIz4xKysxPkg8OTxIV05OV21obY+PwP/CABEIBIQH0AMBIgACEQEDEQH/xAAdAAEBAAMAAwEBAAAAAAAAAAAACAUGBwIDBAEJ/9oACAEBAAAAAKRAAAAAAAAAAAAAAAAAAPzA6lrGt4HE4n5/k9Pu+v6crl87smzbdnv0AAAAAAAAAAAAAAAAAAAAAAAAAAAAAAAAAAAAAalznQNHxP4AAH7ld533pG2gAAAAAAAAAAAAAAAAAAAAAAAAAAAAAAAAAAAHjo/KOXYAAAAAzvUer715AAAAAAAAAAAAAAAAAAAAAAAAAAAAAAAAAAAGJ45xvWwAAAADZOx9kywAAAAAAAAAAAAAAAAAAAAAAAAAAAAAAAAAAatwzkPoAAAAAA9/Xe77MAAAAAAAAAAAAAAAAAAAAAAAAAAAAAAAAABrs/ck8AAAAAAA8+tUDsYAAAAAAAAAAAAAAAAAAAAAAAAAAAAAAAAB8PAuIegAAAAAAA9/ce+faAAAAAAAAAAAAAAAAAAAAAAAAAAAAAAAADls2YMAAAAAAADOUr1AAAAAAAAAAAAAAAAAAAAAAAAAAAAAAAAAxk1cmAAAAAAAADrNK5MAAAAAAAAAAAAAAAAAAAAAAAAAAAAAAAGiSvgQAAAAAAAAM9VW8gAAAAAAAAAAAAAAAAAAAAAAAAAAAAAADh05+sAAAAAAAAA9lHdvAAAAAAAAAAAAAAAAAAAAAAAAAAAAAAA9E08bAAAAAAAAAA7JS/uAAAAAAAAAAAAAAAAAAAAAAAAAAAAAAHwypzcAAAAAAAAAA6RVn2gAAAAAAAAAAAAAAAAAAAAAAAAAAAAAPgkfRQAAAAAAAAAA3uuPuAAAAAAAAAAAAAAAAAAAAAAAAAAAAAB8Ei6OAAAAAAAAAABvNd/aAAAAAAAAAAAAAAAAAAAAAAAAAAAAAPmkTQgAAAAAAAAAADfa7+kAAAAAAAAAAAAAAAAAAAAAAAAAAAAB4SrysAAAAAAAAAAAOqVV5gAAAAAAAAAAAAAAAAAAAAAAAAAAAATvwYAAAAAAAAAAADvVDgAAAAAAAAAAAAAAAAAAAAAAAAAAAA5TKgAAAAAAAAAAABVnVQAAAAAAAAAAAAAAAAAAAAAAAAAAABrMZfCADZNg+PVfhAAAAAAA+racljtLAB91obGAAAAAAAAAAAAAAAAAAAAAAAAAAAA9UcaUABbmyvHT+Y8j1oAAAAADL9b6nuvveEOYQAG62N7gAAAAAAAAAAAAAAAAAAAAAAAAAAAOAz4ABulmg8OdcF0AAAAAA2vvHV/eCcOGgAUJ30AAAAAAAAAAAAAAAAAAAAAAAAAAAGqxf6AAO9UOAc8nbSgAP0fgAM9QvW/MBziRQAPfaO0gAAAAAAAAAAAAAAAAAAAAAAAAAABH/PgAFa9MAHjx6dMYeWy7VtGezeSyf0/R8/hivgwuB1jV9U9B7u697+sAY+D/AMAA6FX4AAAAAAAAAAAAAAAAAAAAAAAAAAA5XKQABceeABip9ym/7t9wAAejUtC0vu+3AAQ5gQAFX9SAAAAAAAAAAAAAAAAAAAAAAAAAAAemKNbAAft++YAAAAAAAAjvQgAGyWx7QAAAAAAAAAAAAAAAAAAAAAAAAAAOMzIAAfdeYAAAAAAAASVzMAAp3sgAAAAAAAAAAAAAAAAAAAAAAAAAAPCJNcAAMjeAAAAAAAAASXzIAA2S2vMAAAAAAAAAAAAAAAAAAAAAAAAAAOVSmAAPK/fIAAAAAAAAR7oAAAq3qgAAAAAAAAAAAAAAAAAAAAAAAAAARzogAAXPmgAAAAAAABEGugADfLFAAAAAAAAAAAAAAAAAAAAAAAAAAGoxYAACtulgAAAAAAAHwQd+AABau2AAAAAAAAAAAAAAAAAAAAAAAAAAE5cLAAB3iiQAAAAAAADmkkgAA7rRgAAAAAAAAAAAAAAAAAAAAAAAAAD8hrCAAA32xAAAAAAAACeOCgAAzlx+QAAAAAAAAAAAAAAAAAAAAAAAAAGiRyAAD7LI20AAAAAAAA+COdTAABY+9AAAAAAAAAAAAAAAAAAAAAAAAAATtwcAAFR9eAAAAAAAADVox+UAAO80QAAAAAAAAAAAAAAAAAAAAAAAAABF2ngAB0qtwAAAAAAAAOEzoAAG42gAAAAAAAAAAAAAAAAAAAAAAAAADFQp+AAD2WrtAAAAAAAAAHpibXQAB+3bkwAAAAAAAAAAAAAAAAAAAAAAAAA5fJwAAdYqkAAAAAAAAA4xMoAAVj1AAAAAAAAAAAAAAAAAAAAAAAAAAJ54IAAFi74AAAAAAAAAfJC/wgADvtCAAAAAAAAAAAAAAAAAAAAAAAAABJPNAABn7h/QAAAAAAAABLnIQAB0ytQAAAAAAAAAAAAAAAAAAAAAAAAAh/XgAB2emgAAAAAAAAA5JLIAA2K3wAAAAAAAAAAAAAAAAAAAAAAAAB6YF/AABUfXgAAAAAAAAAwEOgAD9vr3AAAAAAAAAAAAAAAAAAAAAAAAAGtRGAAFnbmAAAAAAAAAH5BnxAAC3NlAAAAAAAAAAAAAAAAAAAAAAAAANAj0AALtygAAAAAAAAAIo1UAAWFv4AAAAAAAAAAAAAAAAAAAAAAAABymVAAB+375gAAAAAAAAAjrQwABVfVgAAAAAAAAAAAAAAAAAAAAAAAADjswAAD9/oAAAAAAAAAABH3PwABT/YgAAAAAAAAAAAAAAAAAAAAAAAADik0gAD9v/wDQAAAAAAAAAR5oIAApXtgAAAAAAAAAAAAAAAAAAAAAAAABwqcwAB+337QAAAAAAAAARvowAAovuwAAAAAAAAAAAAAAAAAAAAAAAABwucgAAunMAAAAAAAAAAiPWgABRfdgAAAAAAAAAAAAAAAAAAAAAAAADiU1gAD9tPbQAAAAAAAAAQdjwABSfbgAAAAAAAAAAAAAAAAAAAAAAAADjkwgABWvTAAAAAAAAAA+GDAAAp7sYAAAAAAAAAAAAAAAAAAAAAAAABymVAAAo/uQAAAAAAAAAaXGQAAVZ1UAAAAAAAAAAAAAAAAAAAAAAAAA5/HwAAdeqMAAAAAAAAAONTGAAFg9AAAAAAAAAAAAAAAAAAAAAAAAAANZiQAANltwAAAAAAAAAJi42AAFubKAAAAAAAAAAAAAAAAAAAAAAAAAeiBvwAALiz4AAAAAAAAAh7XwAB+3z7wAAAAAAAAAAAAAAAAAAAAAAAABD+vAABSvbAAAAAAAAADTYwAADYrfAAAAAAAAAAAAAAAAAAAAAAAAACSeaAAButmAAAAAAAAAE4cNAADptaAAAAAAAAAAAAAAAAAAAAAAAAABPPBAAAWVu4AAAAAAAAHxw5jQAA77QgAAAAAAAAAAAAAAAAAAAAAAAAAcvk4AAHTa0AAAAAAAAA4TOgAAKy6eAAAAAAAAAAAAAAAAAAAAAAAAAGMhL8AABX/QgAAAAAAAAw8TY8AAP27MoAAAAAAAAAAAAAAAAAAAAAAAAACLtPAABsln/cAAAAAAAAJP5cAADcrPAAAAAAAAAAAAAAAAAAAAAAAAAAnbg4AAHVqp8gAAAAAAAHDpvAAA7zRAAAAAAAAAAAAAAAAAAAAAAAAAAGhR2AAA7jSAAAAAAAAHKJZ9YAAFi74AAAAAAAAAAAAAAAAAAAAAAAAAB4Q3hQAAHbaP9oAAAAAAA4/MXrAAAzlx+QAAAAAAAAAAAAAAAAAAAAAAAAACceGAAAHRakzAAAAAAAHonPiIAAB3WjAAAAAAAAAAAAAAAAAAAAAAAAAADUorAAAGSorsXmAAAAAAOdTZqwAAAtTbQAAAAAAAAAAAAAAAAAAAAAAAAABHOiAPfu2Xw+m/KANr7z1b3gAAAAB+c84RzkAAAN+sMAAAAAAAAAAAAAAAAAAAAAAAAAAOUSqArPpx8PHeAY0AZbrXU978wAAAAapyzkmrgAAAVZ1UAAAAAAAAAAAAAAAAAAAAAAAAAAPVEuugdaqTzGDlHSAAZHft82/bcz+gAAMbqum6RoGCAAAANktrzAAAAAAAAAAAAAAAAAAAAAAAAAABxuYgHS6czQ+GRtFAAP37Ke6sAAGlyRivwAAAACneyAAAAAAAAAAAAAAAAAAAAAAAAAAAemKNbAfdU/TBjIwwAAB1qpwAAOFTmAAAABs1re0AAAAAAAAAAAAAAAAAAAAAAAAAAByuUgD3V7vw0GPvEAD7reyoAAHri7UwAAAAVd1MAAAAAAAAAAAAAAAAAAAAAAAAAAAR9z8AzNo5cTVxMADuVHgAAHHpfAAAADodfAAAAAAAAAAAAAAAAAAAAAAAAAAABqkYegA6pVo9Ef6KACyt3AAAPhhP0AAAAHvtHaQAAAAAAAAAAAAAAAAAAAAAAAAAAAcDnoAV10cfBJmgAD7by8gAABHmggAAAFB9+AAAAAAAAAAAAAAAAAAAAAAAAAAAA9Mc6UAbfaHkPRwvg3xAezslMgAABNXEwAAAG62P7QAAAAAAAAAAAAAAAAAAAAAAAAAAAGtxh8IBWnTQY7lega76Pt2Xeuk5gAAAHB52AAAA+6ztlAAAAAAAAAAAAAAAAAAAAAAAAAAAAHKpTAOkVyAAAAAAcYmUAAACqurgAAAAAAAAAAAAAAAAAAAAAAAAAAAAnfgwBXnRQAAAAAHHJhAAAB3miAAAAAAAAAAAAAAAAAAAAAAAAAAAAAPCVeVgMzZedAAAAAA5FLYAAAdSqzzAAAAAAAAAAAAAAAAAAAAAAAAAAAAAfPIugANirHbgAAAAAcdmAAAAb5Xf1AAAAAAAAAAAAAAAAAAAAAAAAAAAAAD4ZF0YB7+5dxy4AAAAA47MAAABvFdfeAAAAAAAAAAAAAAAAAAAAAAAAAAAAAD4JI0QA93Quh7bnftevEYXXNo6eAAAHIJdAAAbzW+RAAAAAAAAAAAAAAAAAAAAAAAAAAAAAAfFKvNQAAO/0EAAAHGZkAAA6HWH3AAAAAAAAAAAAAAAAAAAAAAAAAAAAAAD0zVxkAAHfKFAAADjMyAAA7BTXvAAAAAAAAAAAAAAAAAAAAAAAAAAAAAAA4rNvqAAHfqDAAADi8zAAD2UV3MAAAAAAAAAAAAAAAAAAAAAAAAAAAAAAAaPKuAAAO90MAAAHFZoAAM3U3QAAAAAAAAAAAAAAAAAAAAAAAAAAAAAAAAfBNPIwAHeKJAAADiU1gAOpU3lAAAAAAAAAAAAAAAAAAAAAAAAAAAAAAAADmM1YEAHeaIAAADiM2AAzFIdZAAAAAAAAAAAAAAAAAAAAAAAAAAAAAAAAB8fBeGfOAO60YAAAHDZwAHu7TQGSAAAAAAAAAAAAAAAAAAAAAAAAAAAAAAAAAMHPnIfWA7lR4AAAcNnAB5dWoLZwAAAAAAAAAAAAAAAAAAAAAAAAAAAAAAAAANb4bxz5wd3ooAAAOJTWD3dX7ztYAAAAAAAAAAAAAAAAAAAAAAAAAAAAAAAAAAYzj/GdXPOwN+AAADWYt+Yz/YuyZwAAAAAAAAAAAAAAAAAAAAAAAAAAAAAAAAAAA/NI5v6elb4AAABp3JPPo3QPMAAAAAAAAAAAAAAAAAAAAAAAAAAAAAAAAAAAAAAAAAAAAAAAAAAAAAAAAAAAAAAAAAAAAAAAAAAAAAAAAAAAAAAAAAAAAAAAAAAAAAAAAAAAAAAAAAAAAAAAAAAAAAAAAAAAAAAAAAAAAAAAAAAAAAAAAAAAAAAAAAAAAAAAAAAAAAAAAAAAAAAAAAAAAAAAAAAAAAAAAAAAAAAAAAAAAAAAAAAAAAAAAAAAAAAAAAAAAAAAAAAAAAAAAAAAAAAAAAAAAAAAAAAAAAAAAAAAAAAAAAAAAAAAAAAAAAAAAAAAAAAAAAAAAAAAAAAAAAAAYrQtV13H/B+e76/szWe2XcskAAAAAAAAAAAAAAAAAAAAAAAAAAAAAAAAAAAAAAGI41yPSwAG2dQ69uQAAAAAANcA9+V94AfDigPbngAAAAD58D5gbGAAAAAAAAAAAAAAAAAAB8M+8M+YAADu9KgPDUvg2zJgAAADQYxAUf30AJb4uAu/OgAAAAJ/nMBZfQQAAAAAAAAAAAAAAAAAA0aTdeAAAOy1OBxmdMI8+r0xmgAAAHOY5AUVQQASzxkBd2eAAAAATzPICxujAAAAAAAAAAAAAAAAAADlkn/ADAAACpO0A4PNYNltTJgAAAc5jkBRVBABLPGQF3Z4AAAABPM8gLG6MAAAAAAAAAAAAAAAAAAc9jz0AAABcm0BrkN+oDt1PAAAAc5jkBRVBABLPGQF3Z4AAAABPM8gLG6MAAAAAAAAAAAAAAAAAAw0SYcAAAMtev6HA5vAZG+fIGM9gHn9gBzmOQFFUEAErccAXdngAAAAE8zyAsbowAAAAAAAAAAAAAAAAACTeSgAAA6pXAJg4kAXxlAfz28AOzVMAc5jkBRVBABK3HAF3Z4AAAABPM8gLG6MAAAAAAAAAAAAAAAAABocXgAZ7bMx7nox2C1j4yle7gnWfQHs/oH7QfzzAdnqUA5zHICiqCACVuOALuzwAAAACeZ5AWN0YAAAAAAAAAAAAAAAAACQuYAD7u59k2cB46pzTmlMbWDn8ZgOlWEB/PMB2OqQDnMcgKKoIAJW44Au7PAAAAAJ5nkBY3RgAAAAAAAAAAAAAAAAAa7C34Ab/WWbAAAEicuB7bQ3cD+eYDsdUgHOY5AUVQQAStxwBd2eAAAAATzPICxujAAAAAAAAAAAAAAAAAA4BOQBv1ifUAAAHwyny0ZOqeoAP55gOx1SAc5jkBRVBABK3HAF3Z4AAAABPM8gLG6MAAAAAAAAAAAAAAAAACMdBAZC4M4AAAA0LnPxbT1XJAH88wHZqmAOcxyAoqggAlbjgC7s8AAAAAnmeQFjdGAAAAAAAAAAAAAAAAAD4YF9YCiaDAAAAAAD+eYDs1TAHOY5AUVQQAStxwBd2eAAAAATzPICxujAAAAAAAAAAAAAAAAABz2NQHuu/LgAAAa/wCoDNfWB/PMB1Ok/wBH2Zk5zHICiqCACVuOALuzxjPYB7vpAYv2gfX7CeZ5AWN0bAcu51qOE+P7c7uHUeqfWAAAAAAAAAAAAAAAHCpoAdJsMAAADS4nAUDRZi+faBz3SQAGWvY5zHICiqCACVuOALuzzFwV4AdVrcDAQkAomgyeZ5AUbovLvEAzNLddAAAAAAAAAAAAAAAExcQAUd34AAADQIyAd8pBwSb/AMAAD779OcxyAoqggAlbjgC7s8wcHgOk2GBrsKgO/wBGk8zyAAAO9UkAAAAAAAAAAAAAAASDzEBYHTAAAANBjEB3ykEycOAAB99+nOY5AffkgAxHygLuzzBweA6TYYGuwqA7/RpPM8gAABTfcQAAAAAAAAAAAAAAEU6SAurYgNa8AANi9xoMYgO+UgmThwAAPvv05zHIAAAAXdnmDg8B0mwwNdhUB3+jSeZ5AAAD6ri2AAAAAAAAAAAAAAACE9fAf0C+oGlRQAAqPtJoMYgO+UgmThwAAPvv05zHIAAAAXdnmDg8B0mwwNdhUB3+jSeZ5AAAB22nwAAAAAAAAAAAAAAIJxIHl/QoDRYtAAU7280GMQHfKQTJw4AAH336c5jkAAAALuzzBweA6TYYGuwqA79RxPM8gAAA+29vpAAAAAAAAAAAAAABAHxAfZ/QADQ4vAAU7280GMQHfKQTTwkAAGWvY5zHIAAAAXdnmDg8B0mwwNdhUB36jieZ5ANt6vvOU+fROC4sArzqAAAAAAAAAAAAAAAP59egD7P6AAaHF4ACne3mgxiA75SD5MOemHAHUaV8x9WZOcxyAAAAF3Z5g4PAdJsMDXYVAd+o4nmeQFV9hBrkV4oB3ukQAAAAAAAAAAAAAAQD8IHn/QkDQ4vAAU7280GMQHfKQA/nmA7NUwBzmOQAAAAu7PMHB4DpNhga7CoDv1HE8zyAvHNgcQmIB0uwQAAAAAAAAAAAAAAQXhwH9BPoBocXgAKd7eaDGIDvlIAfzzAdmqYA5zHIAAAAXdnmDg8B0mwwNdhUB36jieZ5AXjmwMfA3gBstzgAAAAAAAAAAAAAAhfWwF1bEDQ4vAAU7280GMQHfKQA/nmA7NUwBzmOQHc+9ADwmrlQC7s8wcHgOk2GBrsKgO/UcTzPIC8c2AiHUQPq/oEAAAAAAAAAAAAAACMdBAWJ0gGNnH1H5rXPgFO9vNBjEB3ykAP55gOzVMAc5jkBRVBABK3HAF3Z5g4PAdJsMDXYVAd+o4nmeQF45sBInLgPZ/QgAAAAAAAAAAAAAAEn8jAUp3gAHKZJAU7280GMQHfKQA/nmA7NUwBzmOQFFUEAEs8ZAXdnmDg8B0mwwNdhUB36jieZ5AXjmwEscaA9n9CAAAAAAAAAAAAAAATvPYDqlcAA5TJICne3mgxiA75SAH88wHZqmAOcxyAoqggAlnjIC7s8wcHgOk2GBrsKgO/UcTzPIC8c2AlrjAHs/oQAAAAAAAAAAAAAADk8lgPrvT7QA5TJICne3mgxiA75SAH88wHZqmAOcxyAoqggAlnjIC7s8wcHgOk2GBrsKgO/UcTzPIC8c2AlbjgHs/oQAAAAAAAAAAAAAADBQgAU924AOUySAp3t5oMYgO+UgB/PMB2apgDnMcgKKoIAJY40Au7PMHB4DpNhga7CoDv1HE8zyAvHNgJO5IB7v6DAAAAAAAAAAAAAAAQ1rADP3B9oA5TJICne3mgxiA75SAH88wHZqmAOcxyAoqggAljjQC7s8wcHgOk2GBrsKgKBosnmeQF45sBG3PAM1eQAAAAAAAAAAAAAAE38DAOxVUAOUySAp3t5oMYgO+UgB/PMB2apgDnMcgKKoIAJV46Au7PMHB4DpNhga7CoCgaLJ5nkBeObAQprwG6WwAAAAAAAAAAAAAABqERADtdNe8BymSQFO9vNBjEB3ykAP55gOwVYAc5jkBRVBABKvHQF3Z5g4PAb7Z4GuwqAoGiyeZ5AXjmwMPBYDq1bAAAAAAAAAAAAAAAI254ANq731j7wcVl0BTvbzQYxAd8pAD+fHqA2y3/0BzmOQFFUEAEscaAXdnmLgcB997e8GsQ0AoGiyeZ5AXjmwODTYAoKigAAAAAAAAAAAAAAHPo0AB57LmfLwx2ExYBTvbzQYxAd8pACDcKA7/Q3vA5zHICiqCACV+NgLuzz1/z3AO+0b5Hq5hPWmAKBosnmeQHUO+79+jnkh/EAr3p4AAAAAAAAAAAAAABKXIAAAACne3mgxiA75SAEY6CAZbfPv+D1V55ucxyAoqggAlfjYC7s8QprwBs28+7D6JjQBQlEE8zyAMru2X8NV0oA918fcAAAAAAAAAAAAAAAY2JteAAAAU7280GMQHfKQAmvg4AD+gf0ucxyAoqggAlfjYC7s8SdyQAAAFBUUTzPIAAAOpV0AAAAAAAAAAAAAAAGpxpigAAAKd7eaDGIDvlIAaHF4AD+gf0ucxyAoqggAlfjYC7s8chlEAAAFBUUTzPIAAALF6OAAAAAAAAAAAAAAADUJBwAAAAKb7iaDGIDvlIAI254AB/QT6HOY5AUVQQASvxsBd2ePTDeugAABQVFE8zyAAAHS7BAAAAAAAAAAAAAAAAYuXuUAAADaqy3A0GMQHfKQAa1FuKAB/QP6XOY5AUVQQAStxwBd2eHO468AAB9HzhQVFE8zyDZNbAAM5aWeAAAAAAAAAAAAAAAAHN560AAAG4d27B7hokXAO90iAahI2tgB/QT6HOI6AUVQQASlyABdufDlkqfCABvVF8j4sFAUYT1PALw45wD4QAbVXO0gAAAAAAAAAAAAAAAAadyTmmm+AA89y6V1TeP0Hwy5jwePeOlgD5eH8W1YDy3qzPY1yXQfjvHTgA4nyTyB7az+0GC4Fx/GgMr1Psu/uW8Gfr97l1c5jwbyGbqpiuM8h0wBnu390+sAAAAAAAAAAAAAAAAAPVqGrcl0MZnt+37t7gAAAADBaloHJvPsW+bn9wAAAAAAHq1XnvBfne/vfQts8wAAAGI0nmXJmW7nvO3+QAAAAAAAB//xAAWAQEBAQAAAAAAAAAAAAAAAAAAAQL/2gAIAQIQAAAAAAAAAAAAAW0CJAAAAAAAAAAAAAAAAAAGqAASQAAAAAAAAAAAAAAAAA1QAAGYAAAAAAAAAAAAAAAAGqAAADMAAAAAAAAAAAAAAAAugAAACZAAAAAAAAAAAAAAADVAAAABgAAAAAAAAAAAAAAA1QAAAAGAAAAAAAAAAAAAAANUAAAAAYAAAAAAAAAAAAAADVAAAAABgAAAAAAAAAAAAAAugAAAAAGAAAAAAAAAAAAAAGwMGqAADMXQJkAAAAAAAAAAAAAGwJkNUQFGYGwMwAAAAAAAAAAAAAXQEyAACwDYDAAAAAAAAAAAAAA2AzAAAAGwGYAAAAAAAAAAAAAugEyAAAA2AYAAAAAAAAAAAAAaoCZAAAAbAMAAAAAAAAAAAAANgDAAAADYBMgAAAAAAAAAAAAugDAAAABdAGAAAAAAAAAAAAAaoDMAAAAGwDAAAAAAAAAAAAANgGAAAAAugGYAAAAAAAAAAAAGwDAAAAANgJkAAAAAAAAAAAANgJkAAAAGwEyAAAAAAAAAAAAGwEyAAAADYCZAAAAAAAAAAAAF0AmQAAAAbATIAAAAAAAAAAAAugEyAAAADYCZAAAAAAAAAAAADYCZAAAABsBMgAAAAAAAAAAABsAwAAAAF0AmQAAAAAAAAAAAA2AYAAAADVATIAAAAAAAAAAAAbAJkAAAAbAMwAAAAAAAAAAAANUAwAAAAXQBgAAAAAAAAAAAAF0ATIAAADYAwAAAAAAAAAAAABsATIAAANgCZAAAAAAAAAAAAA1QBMgAAF0AGAAAAAAAAAAAAAF0JLQmQAAugAMAAAAAAAAAAAAAGxMmwIyAW0AAzAAAAAAAAAAAAAC6DC6AmQBsAAYAAAAAAAAAAAAADYTLVBgANUABmAAAAAAAAAAAAAA2GY1QwAF0ABMgAAAAAAAAAAAAAXQYFIAC6AAwAAAAAAAAAAAAAAaozAAANgAwAAAAAAAAAAAAAAGqJkAALoAMAAAAAAAAAAAAAAAaoQMgBdADAAAAAAAAAAAAAAABqgJkALoAwAAAAAAAAAAAAAAAF0BMgBdATIAAAAAAAAAAAAAAADVBgALoGYAAAAAAAAAAAAAAAAGqMABdCZAAAAAAAAAAAAAAAAANXMABpIAAAAAAAAAAAAAAAAAAAAAAAAAAAAAAAAAAAAAAAAAAAAAAAAAAAAAAAAAAAAAAAAAAAAAAAAAAAAAAAAAAAAAAAAAAAAAAAACACgAACKBAoAAgUAAAAAAAABAAUQUACCggUAAQKAAAAAAAABAAKQKABBQQKAAIFAAAAAAAAAgAFIFIFCCggUAAQKAAAAAAAACAUAQKQKEFBAoAAgUAAAAAAAAECgARQgUIKCBQABAoAAAAAAAAIFAAAQKEFBAoAAgUAAAAAAAAEFAAgWACoKCBYFEFQAFAAAAAAAECgAQLABUAALAogqAAUAAAAAAAgUQCoFgAqAAFgUQVAAKAAAAAAAQKIBUCwAVAACwKIKgUgUAAAAAAAgUQCoFIFCAAFgUQVAogUAAAAAABAogFQKQKEFBAsCiCoFECgAAAAAAEFAgqBSBQgoIFgUQVAogUAAAAAAAgUEFQKQKEFBAsCiCoFECgAAAAAAECggqBSBQgoIFgUQVAogUAAAAAAAgFEFQKQKEFBAsCiCoFEFAAAAAAACAAKgUgKIKCBYCoFQKQKAAAAAAACAAVAogFQUECoACoABQAAAAAAAQACoFEAqCggVAAVAAUAAAAAAAAQBRAoQFQUECkAsKgAKAAAAAAAACCgAAigAAAhQACKAAAAf/EABYBAQEBAAAAAAAAAAAAAAAAAAABAv/aAAgBAxAAAAAAAAAAAAACEApQAAAAAAAAAAAAAAAAAEgAAtAAAAAAAAAAAAAAAAASAAAFoAAAAAAAAAAAAAAAAZAAAAtAAAAAAAAAAAAAAAAkAAAAGgAAAAAAAAAAAAAAAkAAAABaAAAAAAAAAAAAAAAyAAAAAWgAAAAAAAAAAAAAAyAAAAAFoAAAAAAAAAAAAAAyAAAAABoAAAAAAAAAAAAAAkAAAAAAaAAAAAAAAAAAAAAkA0iAAAtSAaAAAAAAAAAAAAABkBoJAogWhkC0AAAAAAAAAAAAASAWglAAAyA0AAAAAAAAAAAAAMgLQAAAGQGgAAAAAAAAAAAACQBaAAAAyAaAAAAAAAAAAAAAZAGgAAAGQDQAAAAAAAAAAAADIA0AAABIAWgAAAAAAAAAAAAmaAtAAAASAGgAAAAAAAAAAAAZALQAAABkA0AAAAAAAAAAAADIBoAAAAJAGgAAAAAAAAAAAAZANAAAAAyAtAAAAAAAAAAAADIC0AAAAGQDQAAAAAAAAAAAAZAWgAAAAyAaAAAAAAAAAAAADIC0AAAAGQDQAAAAAAAAAAAAZAWgAAAAyAaAAAAAAAAAAAADIBoAAAAGQDQAAAAAAAAAAAAZANAAAAAyAaAAAAAAAAAAAADIBoAAAAJAFoAAAAAAAAAAAAZALQAAABkA0AAAAAAAAAAAADIAtAAAASAGgAAAAAAAAAAAASADQAAAEgA0AAAAAAAAAAAABkAWgAAAyALQAAAAAAAAAAAAMgA0AAASABoAAAAAAAAAAAABIKQLQAAkAA0AAAAAAAAAAAAAZDSQCqARAAC0AAAAAAAAAAAAAkDSQBoAZAAGgAAAAAAAAAAAAAyDTIGgAyAAWgAAAAAAAAAAAABIFqQNAAyAA0AAAAAAAAAAAAABIGhFAAZAA0AAAAAAAAAAAAAAZC0AADIALQAAAAAAAAAAAAABkLQAAZAC0AAAAAAAAAAAAAAGQKKADIAtAAAAAAAAAAAAAAASAGgAZALQAAAAAAAAAAAAAABIA0ADIDQAAAAAAAAAAAAAAADIGgAZBoAAAAAAAAAAAAAAAAJA0ADItAAAAAAAAAAAAAAAAARLQAQoAAAAAAAAAAAAAAAAAAAAAAAAAAAAAAAAAAAAAAAAAAAAAAAAAAAAAAAAAAAAAAAAAAAAAAAAAAAAVAAAAAAAAAAAAAAAAAAAAtASAAAFEBQgAAoQAAAAAAAABaAGRoyAA0Mg0JAABoMgAAAAAAAANAAyWjIAGhkGhIAANBkAAAAAAAADQAGTQZLRkNDINCQAAaDIAAAAAAAALQkAFoyWjIaGQaEgAA0GQAAAAAAAAaDIAFsgtGQ0Mg0JAABoMgAAAAAAAA0GQAAFoyGhkGhIAANBlSAAAAAAAAaGQALRmqAy0Mg0JLRkaGWgAkAAAAAAAF1DIAFozoAZaAASWjI0MtAAkAAAAAAALRkaBcLRnQAy0AAktGRoZaAAyAAAAAAAWjI0C4WjNUIRoABJaMjQy0EjQZAAAAAAALRkaBcLRktGQ0AAktGRoZaEg0JAAAAAAAFoyNAuFoyWjIaGQaEloyNDLQkGhIAAAAAAAaGQNFwtGS0ZDQyDQktGRoZaEg0JAAAAAAADQkBouFoyWjIaGQaEloyNDLQkGhIAAAAAAAaDINFwtGS0ZDQyDQktGRoZaEg0JAAAAAAAC0MhouFoyWjIaGQaEloyNDLQkGhkAAAAAAANAAXC0ZLRCNDINCS0QoZaCFDIAAAAAAANAAuFoyNAZaGQaEjQAMtAAZAAAAAAAA0ADK0ZGgMtDINCRoAGWgAZAAAAAAAALQEhaMhaGWhkGhIaAlMtEmgZAAAAAAAAA0JAAAtkAAADRkAA0kAAAAf/xABaEAABAwICAgkMDQoFBAEEAwABAgMEBQYHEQAwEiExNkBBUXKzEyAyVmFwcXN1k7LSFBYiIzRQUmB0gZGUwxAVFzVCVWKSobEkQ4KkwiUzU9HBVGSDokRjoP/aAAgBAQABPwD53kgDM6TbotyApaJVZhtLRuoLydn/AC6TMW7KYQS1KfknkaYUOk2GkzHCnoI9h0R53uuuhr0QvSXjdXV/BaXDa55W56mknFu9Hjm1MZj+LZSfTz0fxGvR9JSutvDmBCPRA0Vdl0K3a/UfvLmi7gry+zq81XhfWdFVGoLz2U188ubijp7LlbLZeyHM+XZHPRNRqCMtjNfHJk4oaIuGvI7CrzU+B9Y0Tdt0oyKa/UfvLmjOI16MpCUVt489KF+kDpFxdvVjs5jL/jGEf8MtImN1eQf8XTITyf4Nm0f7r0h44wF5iZRHmvFOh30gjSJi5ZT6El2TIjHjDrJPRbPSFdNtTy2mJWobq1jaQHkhf8p0GRGY78R2hmdKnfVpUsqTKrDJWDkW2j1Vf2I0qWN9OQMqbSH3TxqfWGvR2elQxcvGXtMvsRByMtA9Js9J9erdS2QnVSVICjmUuOqWPsOmfAs9IFerdO2PsGqSo4ScwGnVIH2DSnYvXnDzDsliZ49r1NjpTcb4C801KkPNcimFhz+i9jpSr6tKqkJjVhgLO11N33lf1BegIIzHfbJCQSSABtnSs4kWjRytDlQEl5P+VGHVT6o0rGNlTezRS6czGR8t0l1elVui4axshUKo+8k5ZtlWTf8AInIcMpVz3BRyj831SQwlJJDaVkt7fKg7WlIxrqjJCKrT2ZKdrNxo9SXpQ8SbRq5bQid7GeP+VJ96/r2OgIUAQQQdsaAd9WrVykUZgv1Ka1HRxbM7auakbZOlexrYbCmqJALi/wDzydpP1IGlbu64q6Vez6i6ts/5IOwa/kHxFQ7uuKhKT+b6k822P8knZt/yHSg41srCGq3AKD/5o+2n60K0pFdo1ZZ6tTag1ISACpKVe7TnubJO6O+lX7wt+3kf9QmgO5ZpYR7t1X1aXBjJWZmzZpDAgtbYDpyceI0ky5Mt5b8l9x51fZOOKK1K8JV8TRpUmI8h+M+4y6jbS42ooUnwFO2NLfxkrcIts1ZlM5ncLnYPaW/eFvXEyn83zQXss1sOZIdT9XfOuC6aHbzHValMCFEHqbKfduuc1OlzYu1upFxilA0+Mcxswc31DRx1x1xbji1LWtRUpSjmVE7pJ4/iptxxpxDja1IWhQKVA5EEbhB0tnF2uU3YMVQGfG+Wdp9I53Hpb91UK4o/VabLClgAuMr9y6jwp75VRqcCmRHZc6ShhhvdWs5DwDlOl1YxvvbONb6CyjjluAFZ5idJMqTKeW/JfcedWc1uLUVKUe6Ttn4ujyZMV5D8d9xp1BzS4hRSpJ7hG2NLVxlkNBES4Wy+jiltjJY56dKbUqfU4jUyDKQ+wvsVIP8AQ8mmXfGvDFCk0IriwdjNnjMEA5tNK5HDpXbjq9fl+yajKU4RnsEbiGweJA+MqFcdXoEsSqdKU0o5bNO6hYHEsaWdilSa2Gok7YwZ5AG2cmnVfwHviVWr02kRFy6hKQwynjWdtR3ckjdJ0vHFSpVnqkSl7OFB+x5znEbg+NrNxUqdFLcSqbObB+15vmk6UqrU2rwkTKfKQ+yrjSdtJ3clDdB74N437SrXa6mr3+csZtx0+ks8Q0uC5avcMz2VUZJWRmG0DabbB4kD44oFyVi3pnsqnSS2TkHEHbbcA4ljSzb+pN0NdSRlGnIHu2Fn+qDxjvf3zis1CK6fQHUPP7jsvaUhHcb5To888+6t15xTji1FS1qJKlKO6STun46aedYdbdacUhxCgpC0khSVDcII3DpYmKzU0op1fcbafyAamdihzuOch73j77Udlx951LbTaSpa1nJKUjdJPENL9xPdq6HabRytmCdp17cW/wD+kfH1g4ovUdLFMrBW9AGSW3t1cdP/AMp0YfZkMtvMupcacSFIWg7JKknbBBG6O9zPnwqbDfmTZCWY7KdktatwaXziHNuVZisBUenJVtNcbuW4pz5gWLiHOtlwRXwt+nLVttcbXKpvSBUIdShsTIUhL0d5OyQtO4R3t6jU4dJhPzpr6WmGhmpav7DlJ4tL3viddM3jZgMqzYY/5r5V/MKx75n2rN43oDys34//ADRyL0ptRgVWCxOgyEvMOjNKx/Y90cfe1qNRhUuC/Omvpajsp2S1q/sOUniGl73tNumfxswWSfY7H/NfKv5iWPe861Z+Y2TsF1Q6ux/zRyK0p1Sh1OAxMgvpdjvJ2SVp/seQjjHezly48OM9JkuJbZaSVLWo5BKRx6X3fEu6Z2xRsmqewo9QYPSL5V/MaxL5l2tPyXsnqe8odXY/ERyL0hy402KxKjOh1l5AW2sbhSe9itSUoKlEJSkZknaAA0xHv56vyl06CsopjC/vC0/tn5kYc4gO29JTAnrKqY8vwlhR/bTolSVJSpJBBGYIOYIPewxWvxTjjtApj3vSdqa8g9mrja+ZWFN+racaoFTfzaVtQnVHsVcTXevxNvb8wwfzfCX/ANQlIO2DtsN/L53zMwyvcV+B+bpzh9nxEDbJ232/l87vW3XckS26O/UHxs19gy1nkXHDuDSpVGXU58mdLdLj76ytaj/YcgHENbRLRuKvNOu0ynLfbbVsVLzShOy5M1kaHCm/P3N9j7PraSMN72jpKl0N48xSHPQJ0mUypQFBMyFIjqO4HW1N+kPiyLCmTHOpxYzr7mXYNoKz9idIeHt5zEBbdDkJ8bkz0hGgwqvnjpQT4X2vW0qOHl4U2I9Lk0lYZaSVLWhxtzJI48kEnW02oy6ZPjTojpbfYWFoUP7HlB4xpatyRLlo0eoMDYL7B9rdLbg3R3q3nWo7Lr77qW2m0la1qOSUpSMySeQaX1dbtzVpbySREYzbio/g+We6rXWhRRQ7cplPO04hrZO+NX7tX5VJStJSpIUCNsEZjSpYf2bUUAO0Zltfy2B1D0NK1ggdtVGqmfI1J9dGldtC46CpQqNNdbbH+cBs2v5x8TUmg1msu9Sp0B6QdwlCfcjnK3BpRMFKg7sHKxPRHHGyz7telKw0s2mgZU0SXAMi5JPVc/qO1oxHYjNpaYZQ02kAJQhISkAcgH5VpQ4hSFpCkqBBB3CDpcdIXRa5UacrPKO+pKCogko3UKOXKNbYl2O2zWkPKJMN/JuUj+D5fORoy61IZafZdS404hK0LSc0qSoZgg96rF68CkC3oThBOS5ix0Wuw+pAq120plYJabd6u5zWfddepKVgpUAQRkQRtHS4cLLWrCVLjs/m+TxLYACCe63pcuG9x0HqrpY9lRE5nq7GZAHKtO6n4it2y7huJaTBhnqPHIc9w0NKBhBQYGxdqa1T3xxbaGdI0aPFZQxHZQ00gZJbQkJSkDkA6/G2kdRqdMqiAcpLJac57WuwgvErBt2Y4SdtcNR6LvU3jcjNt0KTOVkXiNhHbP7bqtzSTIelSHpD6yt11aluLO6pSzmTrsEKXm/WKotHYIRHaVzjs16q58Nbbr4ceQz7CmH/AD2RtKPKtG4dLosOv20sqks9Vi8Uprbb/wBXyddt8mm3yabfJrqDbVZuCUWKbEU7ll1Re4hsHjUrS1sJKPTAh+rFM+T8jLJhHr6NoQ2hKUJCUpGQSBkABqcV6aJ9my1pQS5EcQ+PQOujSHoshmQwsodaWlbaxupUg5g6WdcjFyUKNPQQHuwkN/IdT3qMRrqNw15wMuBUKIVNRuRXynP9evwlgoi2XFdyIXKfeePRj0dWpKVpKVJCgRkQRmCDpdeENMqWzlUUiFJ42f8AIV6mlWo1To0xcOoxFsPpGexVxjlSRtEdYlKlKCUgkk5ADdOekGzLrnqAj0SYcxmFKbLaf5l5DSHhBeUhObrMaL414HowvSNgXOLYMquMtL4w2yXB/Uo0YwSoSUASKpNcVxlAQjRjCGy2QAtqS/3VveplozhjYrJJFFCuc86f7q0bsaz2xtW/CPOb2WntPtIblvU/7ujQWVanHQKd91b0NoWn2u077sjR2yrNWN70H6mgNHsN7He7KhtjmOOI9EjR7Cax1dhDeRzXl/8AI6O4KWyrPqdQno8Kmzo/gZtrLFf5oWx/6XpJwZuxkLLLkJ/kCHSFH+caTsPrygpzeock+KAe6Mq0kRZMV0tSGHGnBuoWkpI+o9YxHfkvIZYZW66s5IQhJUpR5ABpaWDzqyiVcRKE8UNB6RY0hQYcCM3Ghxm2GUD3KG0hCR9Q1dVhIqFLqEJZOUiM60f9actCMiQddhtdhtyvt9WXlClkNSe58lz/AE6Z96bFa5zRqGILCymXPzRzGv2zrxpakYxbYoLKk7BSYLGyTuEKKQTrazRKTW4aolQhofaJzTstpSSONJG4dK5gxWmJ6BR3kSYi+N1YQtrn6UzA93JC6pWEJ+W1HR/Za9KdhZZkENkwFyXE/tPuFf8AQZJ0h02nQGw3DgsR0DiabCPRHAn48eS0pqQw262oEFK0hQOfcOlQw7sueSV0Rpo5HIsEs+gQNKpgfTlHOnVd5n+B9Ac9HYaJwZuoTWGVuxAwvbXIS4SEaWvZdEtpjKIxs5BGS5Tm24rPiHINddMYxLlrTBTkETnwB3NmctfhTdJrNC9gSnM5VPyR3VtHsVd6V55lhl195wNtNoK3FqOQSlIzJOl23A9cNdmVBeYQtWxZQf2Gk9iNekEkAcejaQhptA3EpAHxMDr8Tmw3fNbH8bZ+1pJ19pXA7b1dh1BGZQhWxeQP22ldkNGHmZDLT7LgW04gLQtJzCkqGYI70mMNyewKS1RmHMn52273GU+seAUttDtShNrGaVvtpI5QVD42xcYDV8T1A/8AcaYV9iAjgGDlyidSXqM+5m/C22s+Nk+oe9G4tDTa3HFBKEJKlE7gA3TpddfduCvTqivMIcXkyk/sNJ2kjgFHOVWp5PFJa9MfG2LjoXe01GWXUmWEfajPgFpV52gV+BUEk7BDmTwHG0vaXo24hxtDjawpK0hSSNwg7h70WLlwfmu3fYDSvf6got+BlPZ8BQSlQI4jolWyQhXEUg/b8a4oKCr6rRHEpofY0kcBwkuH86W4YDys36cQ34WVdh3osR67+erqmrSc2Yx9jM+Bo8BGlsy/Zlt0SStWyW7BYUs90oGfxrd0szLorj5OeznPZc1KiBwHDevGi3VCWTkzJPsZ7mun1u9De9c/Mds1GYlzYPlHUo/jXNoEcDwnnolWVFb2RK4jzrJ+3Zj0vjSqzUU+mT5zgJRGjuOkD+BJOiiSSTund4FZFcFdtimzFubN9KOpP+Nb2iT3nzpjXWw7Op9Hac2mEdXf569pPA8EqrsZVVpS1bTjaH2h3Ue5X8aYs1T2BZ77SSQ5NeQwPTVwPBOulmbUaM45kmQjqzPPRtK7z61pQlSlHJKRmTyAaXJV11qu1GpKzykPFSAeJG4gfUOB4asVRy8KY5T0AllZW8TuJZ7BfxpjfHqhlUh8t5wENLQhY4nlnNQPA7arC6JXqbUkZ/4d8KUBxo3Fj6wdEqSpIUk5pIzB5Qe89iTVxSrOqRBHVZSRGR/+XgdPp8ypTWIUNlTr7ywhtCd0k6WhakK2KWmKwAt9zJUl/jcX6o4h8aVKnw6nCkQprCXY7yditB0vG1ZVsVdyI4FKjr93GeI2nEesOPgeG1X/ADrZ1NJI2cUexljxW0O89jdVs5dKpKCcm2jId5CV7SeB4V2WKRTxV5rRE6Wj3CFf5TPrL+NrwtiJc1FchPHYvJOzjuj/AC3NJsOTBlvxJTKmn2VlDiDupI4FgjVspVVpS17TiEyGh3Ue4X3nr9qhql21h/8AZS+WUc1n3HAsMrSFerYflM7OBDyW6CM0uL4m/jjGK0urMIuGGx7tvJEzIbqNxLnArBqppd3UaRnklT4ZXzXvcd52uT/zbRqlO3THjOuAcpQkkDRRJUSSSScyTwFppx1xDbaFLWtQSlKRmVE7gA0s+3m7doEOAkAu5dUkLH7Tq+y+OJEdmUw9HfbDjTrakLQrcKVDIg6XVQHrers2muZlLa82l/LaVtpVwFJKVApJBBzBG6CNKJP/ADlRaZOyAMmM24RyFacz3nMXpwiWa61xzJLTP8p6qfR4FhFbyancCp7yApinAODuvL7D46xkt4TKQxWWW/foWSHu6ys8CwiqAlWayzxxJLzR6Qen3nMb6gC/RqeHNtKHH1o5+SU8Cw4oYo1pwULQQ/K/xL3hcG0PjqdCYnwpUR9GyafaW2sdxYyOlTgP02oTIL4ydjvLbX4UHLMdw8BwNn5P1qnFzs2230J5pKVHvOYtzVSb1mNcUVpllPpn0uA2tSTWbhpdPyzS8+kOcxPul/0GgAAAAyA+O8ZaQIlyMz0JyROYBPjGskHgOEk9US9YbYAIlMvMn7NmPR7zl2y1TLmrb6lZ7Ka9lzQogcBwVpgfrk+eoAiJHCU9xbx+PMZKYZVqtTAE5wpSVHmOe44DaUtUO56I+lWWxms581SgD3m5L6I8WQ+sgJaaWsnuJGehOZJJ4DgzBLFrypKkAGVMVkeVDQCfjy7IAqNs1qIEBS3IjhQP40jZJ4Ck5EEHSM8h+NHfQQUutIWD3FDPvNXm8GrRuBX/ANg8n+dJTwLD6GIll0Nv5UfqvniV6H47IBBB3DpUohhVCZEKtkWH3GidzPYKKeA2Y8HrRt5QO5AZT/IkJ7zWKaiixasflKYR9rqeBUSKmHRKTFBz6jDYb/kQBofjy943sa7q83mfhrq/OHZ8BwtcKrEpO3uF9P2OnvNYySVs2e2gAZPzmkH6gV8BG7ogBKEJHEkD49xOTsb6rY/ja6JPAcHJJes9bZy94nOoH1gL7zWNu1bNNHyqh6La+BDcHx7ilv8AK34WOhRwHBNedsVFHJUT0ae81jmsJpFFbHHJWr7EcBGiTmAe4Pj3FHf3W+cz0KeA4Hu/9FrTXJKQe81jntQbf7rr/ARpHUFx2Fg57JtJ+0fHuJKtne9c8elP8qAOA4Gq/wADXk8jzHeax1QBCt/xr/ArdkGVb1EfPZOwI6z3CUA6H48vJ9T9119ajt+z30/UhZTwHAwZQq+eVxjvNY4ozpFGXyS3PQ4FYUhMmzKC4lWeUVLfmvcaH48q0pM2qT5Sc8n5Drgz5FqJ4DgegCj1lXLKR/RPeaxtANt05XJPHRr4FhJLbfsqM0k7caQ+2r61bP48qktMGlVGYs7UeM66f9CSdDwHBMAWzUVctQPRo7zWMkZT1oNuDcYnNLP1go4FgfOC6ZW4XG0+0750Zf8AD48xFlmHZNbd+WyGfPKCOBYOxyxZyl5/CJrrn2AI7zWKaCuxKttbimFfY6ngWDM/qFzSIpcyEqIsBPKtsg/HmNU4M29T4YcyXJmbPLlQyngWFqSixKT3S+v7XVd5q9GQ9aNwp5IDy/5ElXArOqf5ruijzCQlCJKUrJ4kOe4V/Q/HmNNRD9ww4KVAiJFBVz3jmeBWY0GbRt5I/d7Kv507LvNSWUSIshhYBS60tBHcUMtCMjlwEaWvVfzvbtKn7IKU9GSXCNwLT7lY+0fHROW2dLqq354uKq1DPND0hZb5idpH9BwEDM5DSMymPGYYSAEtNoQB3EjLvN3ZFVDuatsKTlsZr+XNKiRwLBWsh+k1Ckrc93GdDrfMd+Or+rAo1p1ORsyl11osMZHI7N3a2tDwG0oqpdz0RhKc9lNYz5qVAnvOYtQTEvWaviktMvD7Nh/dPAsPq8KFdUCS45sGHSWH+Y78dY013q06FRm17UcF57nr2kjgWEcL2TekR3iisvPH0B6XecxxgBMmizw32bbrC18whaRwPD+4hX7YiPuLzkse8P8APRx/WPjifNj0+FKmyFZMx2lOOHkSgZnSsVN+rVSbUHyeqSHlOEE55ZnaSO4NwcCwOgDq9ZqJRtpQ2whXOJUod5zF6AJdnOvccOS06OiPpcDwsub8y3EiO8vKLPyZX3HP2F/HGM9yhuLGoLC/dvZPyuYOwRwPCGAIlmsvccyS68eiHo95yt08VKi1SBnkqRFdbSeQrSQNFAhRBBBByIPFlwPDa7DcVBCH3AZ0PJp/lWOJfxtXazDodKl1KUT1NlGeQ3VqO0Ejuk6VWpyqrUZc+WvZPSHCtf8A6GfEBtAcCSFKUAkEknIAbpJ0okD820amQCczGjNNE8pQMie87ftKNLu6sx/2S+XkbWXuHvd8DtS45Vt1qNUWNtI9w83xONK7JOlOqEOpwY06G8HWH0bJCh/Y8hHH8aHc0xPvIV6piFDdCqfDWQlSTtPOca+B2BSjVbvo0fI7BMgPL5rPu+89jdSCiZSashJydaLDnhRtp4JhpfS6FMFOnO/9NkL8wv5WgIUAQQQdsHw/GeKt9+w2naBT1gvuoylu/IQf2B3TwTBGlEyatVVoOSEJjNnur92vvPYl0dFVs+pbQ6rEAlNnxW7wXDTEj2B1GiVl7/CbkaSv/J5EL/g+MsRMQmqAyunU9aV1RwbZ3RGB4z/Ho66484txxalrWoqUpRzKid0k8Z4JhvSRS7PpiSB1SSgyXO6Xdsd55SUrSpKhmlQyI5QdLipK6NXKjTlg+8PqSnPdUjdQr6xwXDrE1dNDVHrLpMPaSw+dss9xXKjRp1t9pDrTiVtuJCkLSc0kHcIPGPi+/cTI1HQ/TqQ6l2o5lC3d1DH/ALXo686864664pbi1FS1qOalKO2SSd08EtukLrVdp1OTnk+8AsjiQNtZ+oDRKUoSEpGQAyA7zx0xronUp8CstNZJkI6i9z29tPBrJxGqlsKRGczk04rzUwTtt57paOlDr9Jr0FMynSg6g7SxuLQfkqG6PiyTKjw2HZEh5DTLac1uLOxSkd06Xniy/MDsGglbDBBC5R2nF8z5A4NgpROqzahWXEbTCOoMc9e2vvQXxQ/z7a9ShhvZvJR1Zjxre2AOD0qsVOjy0y6dLXHfSMgpPGOQg7RGlp4wU2cGotcSIj+4Hk59QV6miHEOIQtCwpKhmFA5gg8nxTdGJVv0DqjKHRNmjMdQZO0k/wAa9LlvGuXK8FT5HvSTm2wjaaRweyKH+YrZp0Mo2DxR1V/xrm2e9DiRQTRLrmtpGTMk+yWea7qY0WTLeQxGYcedX2LbaStSvAE6RcMr2lJQtNHUhKuN1xDf9Cc9Bg7eZTn1KJ58aTMM72iBSl0da0jjaWhz+iTnpLhTITvUZUZ1hzLPYOoKFZHuK1du3rcVuKHsCYeo8cdz3bR0oGMNBn9TZqba4Dx/b7NnRiRHksofjvIdaWM0LQoKSQeMEaZfEZIAJJ2hx6V/E216KVNCQZkkbrUfJQHOXpcmJ1x1vZstu+wop/ymTtnnL4RhtQDWrqhBac48UiS8e43uDvRYuW9+c7dE9lOb9OJWfEns9ThTTKbFtKFMjtpL8suKfd4yULKQnrJ1PgVCOY82IzIaP7DqAsf10uXBiE+lT9BfMdz/AOmeJU0eavSq0ipUeYuHUIq476BmUKHFyjiI1dJrtXo7/VqdOejr49graVzk7h0omNdTYKEVeC3JRtAute9uaUjEuzqmkf8AURFd+RJHUv69jo24262lba0rSoZgpOYOfdHDswNKre9qUhRTLq7OzByLTR6qsHkIRpWMbUZFFHpZ8bK9RGldvK5K8VCoVJ1bROfUU+4a/lTwrCS3jS7d9nOpyfqJDngaT2HeidaafacZebC23ElC0K2woKGRB0uugu29Xp1OXmUNrzZWf22lbaTqMMb6TQ5RptReIpz6s0q/8LnqnRKkrSlSVBSVDMEHMEHra/b1JuCAqHUI+zGR2Dg2ltq5UHS9LGqdqS0h73+I4cmZKU5AnkPIrW0+r1SmOFyBOfjKJBJaWUZ5coG7pT8XbyiDJ59iX49r1NhpBxxhK2p9EdR3WXQv+istIOK1lSw3s5zkZauJ5pX905jSJcdvTV7CLWYTy8s9ih5JOgIIBB4LMrNIgjOXUorHjHUo/vpNxKsqGSlVXS6rLcZQtz+oGWk7G6kNgiDSZL55XVhkf02elSxlueTsxDZiw0cRCC4sfWvSp3LX6rsxOqkl9CsiW1LOw/kG1wy0qC5X6/Bp6Qdgtebx+S0jbXohCW0IbQkJQhISkDcAG0B3o8YraE+kM1mO1m/B9w/3WVeqdTZOJNStvKHIBlU4n/tE7bXdb0olxUSvRQ/TJiXvlo3Ft89J2x1tQp0KpwpEKcwl6O8nYrQrS+LJmWtP43YDyj1B/wD4L5F8Az0iVGowiTEmvsHjLTikeidMNqPdLcUVKt1easPpzZiOuqXkn5a9nwK9qNXqnS1qodUkRZTQJDba9gl8fJ2W6lWlRqlbkKcYqE6Y4pCylbb7i1FKknbBCztEfEOD1tmBSXaw+3k/O2muVLA9c96R5hmQw6w+2HGnUFC0KGaVJUMiDpdlvvW9XZlOXmUIVsmVn9tpW2lWpp1Tn0uW3LgynGH2zmlaDkdr+47mlhYixblSIUsIj1JCcwP2XwN0o62s0iDWabJp8xGzZeTl3UniUnkKeLS5remW5WJFNlbZRttuAZBxB3FDgGFtlorc5VTnMhcCIvIIO469uhPBMXbKS80u4YKPfGgBMbSN1PE78QWhbrtx12LATmGySt9Y3UNI3dGGWWGW2GW0ttNoCEITtBKUjIADvS4r2wazQ0zozecyBmrns/tjVMPvRnmn2HVNutrCkLSclJUNwg8ulg3vGumnBt1QRUo4HV2uJQ/8iOtxCtFFy0Qhkf46Lm5G5V8rei0LQtSFJKVJORBGRBGuplOlVOoRYMVGyekOpbQO6o7p7g4zpRaTFo1Lh06MPe2GwnPjUeNR7pPBHEIcQttaQpCklKkkZgg7o0va3DblxS4Iz6gffY55Wl7nD8KrWNGofs2S3lLn5LIO6hr9hPemy4jpiNairdrznUkZQpZU7G7nym/9OqoFcnUGqxajDWQ40rbTxLTxoV3DpQ6zCrtKi1KGT1J5G2FdklQ2ik90dbi3ZhhS116Ej/DSXMpKANpt0/t81euwVoIenzqy83mmMnqLHjF9lwbGKhezaAzU20ZuwXPd+Kd4dhvantirqS+jOFDydf8A4vkt6Zd6e87aYuWgvwVZB9PvkZfyXU6SY70WQ9HfQUOtLUhxB3UqQciNVhZd66HWBAfc/wAFOWlJ5G3dxK+tkx48uO9GkMpcZdQULQoZgpO6NL6smZa1RIGydgPE+x3z6C/49bhzSk0yz6UjIbN9v2S4eUvbY4NUoDVRp02E8SG5LC2iRu5LBGY0kx3Ysl6O8nYuNOKQtPIpByI4ZGjPypLMdhBW684lDaBuqUs5AaWdbbNt0ONARkXuzkL+W6rd71OMFnFY9scJrkRMQnpdXhlc5r1voafczmwsmnuVaf2F9bU6ZBqkCRBnRw8y8nJST/cHiI0vawana8lTgSt+nrObUkei5q6ZDVPqMKGk5GQ+20D3XFBOiEJQhCE7QSAAO4OD4nU72BelWCW9ih9aX0d3qqcyeGYQ2eUA3DMbIJBRDSel71IOj7TT7DrDzSXGnEFC0KGYUlQyII0vq03rZrTjABMR7NcVf8HyD3U6qxrkVblxRJpUQwslqT4pfq7uiVJUlKkkEEAg8Rz619lmQ04y+0hxpxJSttYCkqSd0EHdGl3YOhwuTLdIBOZMNZ6JWk+mz6bJVGmxXWHk7qHElJy5RqGmnXnENNIUtxaglKUjMkncAGmH+HlwordOqs+GI0VhYdyeOTi9o5ZI4RjfDLVcpkridhlvzSj6/C7EtN2560hlQIhsZOSl/wAHyOcrRlpqOy0ww0ltptIQhCRkEpSMgAOTvV3XbUS5aNIgPnYL7Jl3dLbg3DpUqdLpk+TBltlt9hZQtJ/uOUHiOqwqr4qtrsxXHM5FPPUVeL3Wz19RpNMqjAYqEFmS2DmA4kKyPKOTSsYLUGSVrps1+EriQv35saT8GLpYLhjPRJIG4AsoUf59HcM75bBzojp5q21f2VoMPL0/cUjRnC2+XVAfmcoHGVvNADSFgpX3V/4uoQ2EdwqdVpTMGLcjbBU6ZKmLG6naZbOlKoNFo7ewp1OYj5gAqQgbNQHylbp4TjrHzYoD43ErfR/PlwqmU6XVJ8aDEaK333AhCR/c8gHGdLUtuJbdHYp7B2a+zedyyLjh3T3rcTrITXoH5xgoP5wioPuQMy+38nnarC+4vzNcjTLq8o0/JhzuKPYK+KMbRnb1LPJO/DPCsMrI/MMEVGaj/qEpse4I22G/kc7vX4rWGtt16v01gdSVtzGkDsVcbuqw3u4XFROpvrzqEMBD/wDGP2XPifG3e3TvKA6NXCcKrDW641X6kx70jbhtL6XvYKSlSFJUAQRkQRmCDpiRYLtAlrqMFBXTH1+YUr9g6mgV2oUCqMVCC5sXWztj9laeNCu4dLeuGm3DTGp8F3NKtpxs9k0vjQr4mx03u0z6eOjVwjDqwHbgkCfPQUUtlfgL6x+wnRCUISlKUgBIySkDIADvYyoseZHejSWkuMuoKHEKGYKTpfljTLWnZp2TtPfWeoP/AIa+7qbbueq23O9lQHeyGTrSttDg5FDS071o1zxAqMsNSwnN6KtQK0esn4lxu3tUr6f+Grg9i2PMuidmrZNU9lQ6u/8Aho5V6Q4keDGYiRmktMsoCG0DcSkd7OpU+DU4L8GbHS8w+nYrQr+/cI4tL3siba079p6A6T1B/wD4L5FjUxpUmI+h+M+4y6g5ocQopUk9wjS2cZn0BuNX2C6kZASmQAr/AFo0pFco1aZ6rTagzIGQJSlXu057myTuj4jxwAFt0r6cOjPBrJsmddM7LbagtEdXf/4I5VaU2mwqZBYgwmEtMMp2KEp/ueUnjPe1qVNhVWC/CnR0vMOpyUg/3HIRxaXxY0+1ZvG9AeUQxI/4L5F6piQ/GdQ8w8tpxBzStCilQ8BGlJxWvGmoDa5aJjYAAElGz/qCDpTscIR2qjRXUd1hwL9PYaQ8WrJfbQXZj8YnidYWejChoxfVnvJBRX4Y569h6eibttMjfDTfvTentstXLfFTPvTehvK0kbarhp/1PpOj+JNkR9pdabPMQtz0RpLxgs9jLqRlyfFs5dIUaTccYYOUKhur7rrwR6IXph7fNQuuRVRJjMMtxkslsN555rzzzJ4Rjof+gUv6d+Grgtk2RPumbxswWle/v/8ABHKvSmUyFSoLEGCwGWGk5JSP7k8ZPe3nwIVShvwp0dLzDySlaFaX3h3NtlZlxyqRTVK2neNrPcS5wTAf4XXuYx/z4RjdvepX04+geCWRh/ULlfQ+6FMU1Kvdv8a8t1DelPp8KmwmIMJhDMdlOSEJ3B/7J4z3uXmGn2lsvNIcacSUrQtOySpJ2iCDujS/sLnKQh2p0YLdhDbeY3Vsf+0cDwL/AO/cPio/pK4RjhkKBSfph9A8DsPDF+shipVYKagEhSGtxb4/+EaMMMxmWmGG0ttNpCUIQMkpSNwAd7y/MKW6gt2pUNCGZRBLsTcQ73UcSVaPMvMOuNPNqbcQopWhYKVJUN0EHcPAcCVhMuveKY4RjhtUKkfSz6B4C00686hppCluLUEpQkZlSjtAAcZ0sXCluJsKhcDSHXd1qH2SEd13TLvfXfYNJuhnqrmceahOTclHorHGnS4rYrFuTfYtSjFBOewWNtDgHGg8AwKXsZle8QxwjHHaotH+lH0OAUK3qtX5qYlOjKdVmNmvcQ2DxrVxDSzsPqVbCA6cpVQ45Kk9h3GhxDvg1Ol06qwnYc+Mh9lzdSr+4O6DpeOFVSo4XMpWzmwuNOWbzevwMOU6u/R2fS4Rjh+p6P8ASl+hr7NwvqleDUuds4cAgEKI98dH8A0pFHplGiJiU6IhhkcQ3VH5SzxnviXjhhR691WXCyhTzmcwPe3VfxpGletqs2/L9jVKIpoknYL3UOAcaFa3Ak5VSs/Rm/S4Rjj+qKJ9Jd9HW0WgVauTExadFW8s9kf2EA8a1bgGloYV0yilqXUiibOBBH/haI9LvjzoEKoRXIs2M2+wvsm3E5g6XVg26gLlW86XU8cN1Q2Y5i9JUSTDfcjyWHGXkHJbbiShSfCDq8DTlVK13YiOEY4/q2h+Pe1bEd+S6hlhpbrizklCElSlE8QA0tXB6dJLUmvOGMzuiMjbdXzzuI0plJptIiJiU+I3HZTxIG6QMs1HdJ7p75Vftmh15jqNSgodIGSHNxxHgUNLowgrFNK36QTOjfI3H06OtOsuradbUhaFEKQoZFJG6COLU4HfrStfREenwjHXIQqF457UoQtxaUISVKUcgBtkk8Wls4SV6q7B+of4CMeJYzeUOZpb1n0C3WQmnxAHSMlSHPdur8Ku+dX7St+4WsqhBQp0DJL6PcOp8ChpcWDNWiBb9GfE1r/wryQ8NJUOXDfWxKjuMPI7JtxJQseEK6/AxtX5xrb3EiO0j+c8IxxiqNIo0jiRKWg+Fac+vYjvyXUMsMrddWckIQkqUo9wDS3sIK9PKHaooQGPkdm8dLfsu3beSkwYYL+W3Jd926e+lVaNSqvGMapQWpCOILG2M+MK3QdK/gpDd2b1EnFg8TD+a0fUvSuWbclB2Rn05xDQ/wA5Hu2v5k9Y20464httClrWoJSlIzJJ3ABph1a7tuUBDUhOUyQvqz4+RxBHCLvt9FxW9Npw2IeOS2FncS6jbTpMhyYUp6LKZU080soWhQ20kdZRrXr9cVlTqa8+njcy2KP51ZDShYKbaHa3UPCxH9dWlHtyiUNrqVMp7TAO6sDNxfOWds99Y5EZHSt4d2pWNkp2nJYeOfv0f3pWZ4zxHSXgYrZrVErYDfEHWdG8C5gPv9dZTzGSvS18PLftx0SWW1yJY3H3tso5gG0OFXTYtv3MAuW0pqSlOSZLW0vSbgbU29uJWI7njW1NetpEwOmko9mVthHyg00V+kU6UXDG0aUApUH2Y98uSeqfYjsdEJQhISlISkAAJAyAy0B//wBRmWmXfxqFeodLH/UKpFjbW0lx1KVHwDSbjDZUUe9PyZfcZZI6TY6TceIgOUOgOLT8p18I/oArSTjpXyR7FpUFrn7N3R3G2817iIKPAydFYw3yT8NY8wjT9L99cc9nzCNE4yXuD8IjeYGicbryG61A8yr1tGMdLmB9/ptPWjuBxB9M6MY9LGQdt1PORJ/9o0YxzttaQH6bPb5oQvSHipY8ohP526ko8TrS0aU+s0apZ+wanFk5boadS4R9nfqq1eo1FY6vUqgzGRkSNkfdK5qRtq0ruOMVrZt0Sml5XE/J2kfUgaVnEO76wSH6s622SfemPeUD+TQkkkk5k7p1oJBBB2xpSr5u2k/A61JCAANg4rqqPqS5mBpR8dJyClFYpTTyflxyWyBzTpQL8tev7BEKoJS+sfBnve3c+QA7vxWu8LTQsoXcNOSobRBkI0F5Wd2y07z6NBeVndstO8+jQXlZ3bLTvPo0F5Wd2y07z6NBeVndstO8+jQXlZ3bLTvPo09vNmnaNw0/7wjSNJjS2EPx5DbzKxmhxtQUlQ7hG7rJtRg09jq82WzGazy2bqw2nM8WatBeVndstO8+jQXlZ3bLTvPo0F5Wd2y07z6NBeVndstO8+jQXlZ3bLTvPo0F5Wd2y07z6NBeVndstO8+jSNdVszHm2I1dguurOSG0voKlE8QGfxFJkxojDj8l9tlpAzW44oJSkd0nQ3naHbFTvvCNBeVndstO8+jQXlZ3bLTvPo0F5Wd2y07z6NBeVndstO8+jQXlZ3bLTvPo0F5Wd2y07z6NG7wtFxYQm4admTkB7IRoDmMx886hUYFNiOSp0pthhHZLWchpdWNL7hcjW8z1JG57LdGajzEaTZ0yfIXJmSXH3l9k44oqUfrPBMLcQK89WYdBnvqmRnwsIW4c3WihJXpnqFrQ2kqWsJSkZlSjkBpMv8AsuF/36/FPcaJe6PZaM4o2E8oIFcQD/Gy8gfaUaU+tUaqBRp9Tiycssw06lZHDcUX3o1iVpxlZQVBpskfJccCSNTgNMfMW4IpWS02thxA5FOBQV6OsxwkvquSnRy4S03AC0I4gVrUDqbYkvyrbocl9wreegR1uLO6pSmwSfiHHiS+GLejBeTK1yVrRyqQEAHU4WSnn7EpBdWVqR1VAJ+QhZCR88ryvukWqxk8erTVpzZip3T3V8idLjumsXJNEmpP7LY5htpO021zBwbBKmeyLmlTlIBTCiKyPI47tai9cWoVHddgUhCJcxG0t0/9lr1jpWbkrtcc2dTqL0jbzCCckJ5qBtD8rTrrLiHGlqQtJzSpJyII4wdLWxdr9JU2xUlGoxP4z78kdxelCr1Kr9PbnU2SHWjtKG4tCuNKxxHheLG8Krc5jpkanADs7m8ET8TWY6b8Yvk1rpF6myzlaVveTIvRD4hx6G9jwTPw9ThHvCp3Pf6VXzxxBxGj2ygwoexfqa09jxMA8a9Js2XPlvS5b63n3VbJxxRzKjwfBCmdQt2dOKMly5WQPK2z1+K2ITkEu0ClOlL5TlMfG6gK/wApHX2rdVSteqImw1ZoOQfYJyS6jkOlFrEGtUuHUoatky+jZAHdB40q7o4VixvCq3OY6ZGpwA7O5vBE/E1mOm/GL5Na6Repss5Wlb3kyL0Q+IcehvY8Ez8PU4R7wqdz3+lV88MQL3YtWnAN5LqMkER2z0i+4NJUmRLkvSZDqnHnllbi1HMqUo5knhFk0782WlRIZQUkRULWDxLd92r+p666663QKBUKmoZqZb97T8pxe0gaSJD0l96Q+4VuurUtxZ3VKWcyTqMFrkVFqz9CeX7zNzcZ7jyBwrFjeFVucx0yNTgB2dzeCJ+JrMdN+MXya10i9TZZytK3vJkXoh8Q49Dex4Jn4epwj3hU7nv9Kr531+twqDSZVSmKPUmE7g3VqO0EDuk6V+uT6/VZNRmrzcdVtJ4m08SE9wcIoFNNVrdLp+RIkymm1ZfJUrb0SAAAOux0qK0QqLThuPOuPr//ABAAenqaRUHKZVYE9vPZRpDboAOWewIOWiVBSUkHaIBH19e/XKFGeUzKrEJhxI223H0IV9ijp7a7X7YKb96b09tdr9sFN+9N6e2u1+2Cm/em9PbXa/bBTfvTentrtftgpv3pvT212v2wU3703p7a7X7YKb96b0h1CBObLkOYxIQDkS04FgHwg6rFjeFVucx0yNTgB2dzeCJ+JrMcN90Tya10i9TZZytK3vJkXoh8Q49Dex4Jn4epwj3hU7nv9Kr534tXaazWjTIzhMKnrKOe/uKVwnByney7yaf4oUd178IenoetGmOrizc1MRxCnDpV6qhOKcoVIcc7NcJgkchKBn17rjjri3HFlS1qKlKO6Sd06jA5xYuucjMhJprnSI1WLG8Krc5jpkanADs7m8ET8TWY4b7onk1rpF6myzlaVveTIvRD4hx6G9jwTPw9ThHvCp3Pf6VXztz0xEuc27bUl5peUuR7xG5691f+ka6nWtclTCFQqNLeQvccDSth/MdrSJhHfT6sl01DA5XXkf2QSdE4IXcRty6YPC6v1NP0G3Px1GnfzuepovAy6uKfTfrW56misELuA2pdN86v1NH8Hr5a7CEw/wCLfRpLw7vaIM3KDJV4rJ7oydJlOqEFYRMhPx1HcDrakH+o6zAqndTplZqPG8+hgeBoZn09D1o0x5gFEmhTQjs2nWVHUsMuvvNMtIK3HFhCEjdKlHIDRhpLEdhhHYtNpQnwJGWvwL34y/JjvSI1WLG8Krc5jpkanADs7m8ET8TWY4b7onk1rpF6myzlaVveTIvRD4hx6G9jwTPw9ThHvCp3Pf6VXzuxZuE1e6XYrS849OBYRz91w6um0uo1WWiJT4jsh9W4htOZA3MzyDu6W9gitQQ9XZ+x5Y8f/wCVnSkWfbFFCfYFIjtrG46odUc/nXmdStKVApUAQd0Hb0qdiWdVAr2RQowUTmVtJ6iv7W8tKvgdTXc10qpvMH5D4DqdJuEt7xn+pNwG5KeJxl5Gx/8A3KTpZVAct22oFNdWhbyNmt1aNwrWSrr8TqAquWlNQwgqfiESWRxko1OFNAXV7rjPqRnHge/uc4dgOAYH77Zfk1zpEarFjeFVucx0yNTgB2dzeCJ+JrMcN90Tya10i9TZZytK3vJkXoh8Q49Dex4Jn4epwj3hU7nv9Kr523XWUUK3anUj2TDJ6n3XV+5QPtOilKWpSlKJUo5kk5kk6qx7AqV0yQ4QqPTkH32SfQb5TpQbepFvwxFpkVLKP2jurcPKtXB8ULJXbtWMyKzlTZqipvIbTS+Nvr2GHpDzTDDanHXFBCEIGalKO0ABxnSw7SbtehtxV7FUt49UlODjXxJHcRwDA/fdL8mu9I3qsWN4VW5zHTI1OAHZ3N4In4msxw33RPJrXSL1NlnK0re8mReiHxDj0N7Hgmfh6nCPeFTue/0qvnYNMc6zsI1JpCF7bqlSXh3Ee4RqrAsiTdNSzcBbp0dQMh38NHdOkKJGhRmYsZlLTLSAlCEjIJA4RUadCqcGTCnR0vx3k7Fbatw/+iOIjS9cLqtbynZUILmU4ZkrA92z4wdbSKLVa1LEWmw3JDp4kjaSOVRO0BpYeG0K2MpspaZNTKMtn+wyDxN8BwQ33S/JrvSI1WLG8Krc5jpkanADs7m8ET8TWY4b7onk1rpF6myzlaVveTIvRD4hx6G9jwTPw9ThHvCp3Pf6VXzsGmJ1XNVvWqrC824y/YzfcDO0dTSqZMq1Ri0+IjZPyHAhA4u6T3BpbtBhUCkxabDB2DQ90rjcWeyWeF17Da0K2px12B7GfXtl6N72dJeAyc1KiXBkjiS4xojAefn77XWU81kq0pWCVuxCldRmyJyuNAyYb0ptJptKjCNAhtRmR+y2nLM8p5TwLAvfjK8mu9IjVYsbwqtzmOmRqcAOzubwRPxNZjhvuieTWukXqbLOVpW95Mi9EPiHHob2PBM/D1OEe8Knc9/pVfOypzWqfTp01zsI0dx5XgbSVaPPOvvOPOrK3HFFa1HdKlHMnU4KW0EtSq++jbXmxF/5q+MsC9+Mrya70iNDqcWN4VW5zHTI1OAHZ3N4In4msxw32xPJrfSL1NlnK0re8mReiHxDj0N7Hgmfh6nCPeFTue/0qvyH51Yp1EwbHquxUAt/qbAPjFbepjx3pMhmOygrddWlDaRuqUs5AaUKksUakQKcyBsIzKUZgZbI8avCo8Keu21oz7jMiuwW3EHJSC+gEHT27Wf2x07z6dPbtZ/bHTvPp09u1n9sdO8+nT27Wf2x07z6dPbtZ/bHTvPp09u1n9sdO8+nT27Wf2x07z6dIUyHOjpkxJTT7CswlxpYWkkboBTwDCCr02k3S+/UJjUZpcB1sLdOSdmVJOnt1s/tjp3n06e3az+2OnefTp7drP7Y6d59Ont2s/tjp3n06e3az+2OnefTpTrioFSeUzBq8SQ6E59TaeSpeXWYsbwqtzmOmRqcAOzubwRPxNZjhvuieTWukc1NlnK0re8mReiHWSq3RYbpZlVWGw5xodfQhW33CdPbXa/bBTfvTentrtftgpv3pvT212v2wU3703p7a7X7YKb96b09tdr9sFN+9N6e2u1+2Cm/em9PbXa/bBTfvTekWZDmNB6JKZfbJI2bSwsbXdGpk12hxHVMyaxCZdTutuPoQofUTp7a7X7YKb96b09tdr9sFN+9N6e2u1+2Cm/em9PbXa/bBTfvTentrtftgpv3pvT212v2wU3703p7a7X7YKb96b0adbeQlxpxK0KAKVJOYIPIR1mPQ3seCZ+HqcI94VO57/Sq/JWrmoFDRnUqmywcswgnNw+BAzOlWxwozGaKZTX5SvlukMo0qOMt4SsxGMWGOVtrZ9JnpLvi75i9m9X53gbdLQ+xvLSRVanK+ET5L3PdUr+502a9lstmdly57ekeq1SL8GqElnxbqkf2OkO+7xhHNmvzD41wvdJnpTMaLsilAloizUcZWjYL+1vSh4z2zOKEVBl6A751rSJMiTWESIkhp9lfYuNqC0n6x84MdZoRSKNC43pS3vNIy/56nCakpqd6QisJKIaFyiDyo2k/Yo8KxAnyafZ1akx1lDoZCErG0R1VQQSNTgTJe6rX42zPUtgw4EdZUKzSKYAqfUo0YHPLqrqUE+AHSpYw2ZC2mHpM1XIy1l0mw0qWOdRWCKdR2Gv431l30dhpVcRbyqiVofrDqGlfsM5M+hr6BJei1ylPsrKHG5TRSRzusxY3hVbnMdMjU4Adnc3gifiazHDfdE8mtdI5qbLOVpW95Mi9EPy1uU7DotVltZdUjxHnUeFCSRo666864664pbi1FS1qOalKO2STxnUYOT5Me8mIzbhDMth5DqOI7BBWND191yn4Vr1yVHWUPNQnlNrG6lQTujQnPbOowImSSivRC6eoo6g6hHItWYPWY9Dex4Jn4epszEC3basOntSpBdlBx/KK1tubbmlw4uXPVtm1DWKdHPEyc3frc0Wtbi1LWoqUo5qUTmSTxnVUS4KxQZYlU2YtheY2QBzQvuLTuEaWVixTa4pmDVEohTlEBB/yXj838dJZXX6VE4mYOz+t1ZB9DU4E07KLW6if23G2EHmArVwrE/eJXOY10qdTgP8ADbg8Qx+XGa56tTnKbTIEp2Ml5pTry21FClcQGilKWpSlKJUo5kk5kk8CpP60p/0lr0usxY3hVbnMdMjU4AkBdzeCJ+JrMcN90Tya10jmpss5Wlb3kyL0Q/LdG9mu+T5PRnU4Sb/KXzJPQq0PX34gJsyv/QXvQ1OA3wi4vFRusx6G9jwTPw+D4cYouMLZo9dkZsnJEeYvdb/gd+b2L8sv3zOb4ozLDQ/kC9ThHDRGsaAsJyMh595X8+w/snhWKO8WucxrpUanAf4bcHiGPy46/r2j/QT0h4HSf1pT/pLXpdZixvCq3OY6ZGpgVWqU1TioFQkxSsALLLqmyoDl2JGntuuvtiqf3t31tPbddfbFU/vbvrae266+2Kp/e3fW09t119sVT+9u+tp7brr7Yqn97d9bT23XX2xVP72762ntuuvtiqf3t31tPbddfbFU/vbvrae266+2Kp/e3fW09t119sVT+9u+tp7brr7Yqn97d9bSbPnT3urzZb0h3IDqjyy4rLiGatTZZytK3vJkXoh+W6N7Nd8nyejOpwk3+UvmSehVqL8QE2ZX/oL3oanAb4RcXio3WY9Dex4Jn4fCMJL5NSZFCqT2cphGcVxR23W07qOcn5u4jyBIvivLB3JGw82kI1NmsiNaFusgZH2AwpQ7qkA6hy87RZWptdfgBadojq6dPbvZ3bHT/PDT272d2x0/zw09u9ndsdP88NPbvZ3bHT/PDT272d2x0/zw09u9ndsdP88NPbvZ3bHT/PDT272d2x0/zw09u9ndsdP88NPbvZ3bHT/PDT272d2x0/zw09u9ndsdP88NBe9m9sMDzydGH2JLDT8d5t1pxOyQ4hQWlQPGCOsxR3i1zmNdKjU4D/Dbg8Qx+XHX9e0f6CekPA6T+tKf9Ja9LrMWN4VW5zHTI4dZZytK3vJkXoh+W6N7Nd8nyejOpwk3+UvmSehVqL8QE2ZX/oL3oanAb4RcXio3WY9Dex4Jn4fCIM2VAmR5kV0tPsLC21jdBGlr16PcNChVNkBJdRk438hxO0pPzcu1RXdVwq5alK6Q6mCyGIcVkAZNstoH+lIHX4jSX4tkV51leSiwG/qdUEHX4HPvLtupMrWShqb7gHizSOsxR3i1zmNdKjU4D/Dbg8Qx+XHX9e0f6CekPA6T+tKf9Ja9LrMWN4VW5zHTI4dZZytK3vJkXoh+W6N7Nd8nyejOpwk3+UvmSehVqL8QE2ZX/oL3oanAb4RcXio3WY9Dex4Jn4fCcFbiMWrv0R5fvM0FxnuPN/NyvudVrtXc+XNfP2rOoQgrWlA3VEAaAdfibvCr/MZ6VOvwK/UNX+mD0B1mKO8WucxrpUanAf4bcHiGPy46/r2j/QT0h4HSf1pT/pLXpdZixvCq3OY6ZHDrLOVpW95Mi9EPy3RvZrvk+T0Z1OEm/wApfMk9CrUX4gJsyv8A0F70NTgP8Kr/ADI/WY9Dex4Jn4fCabPfptQhzmDk7GeQ6julBzyOkKXHnQIcxhebchlDqOasZj5t1JWzqM1XK+4ftVqKcnZVCGnlfbH2q1GKG8at8xrpU6/Ar9Q1f6YPQHWYo7xa5zGulRqcB/htweIY/LjpFfFTo8ooPUVR1thXdB4HQIz0uuUqOygqccltAAc7rMWN4VW5zHTI4dZZytK3vJkXoh+W6N7Nd8nyejOpwk3+UvmSehVqL8QE2ZX/AKC96GpwH+FV/mR+sx6G9jwTPw9VQbGuev7FcGnL6gcvf3fe2vtO7pScC+wXVqzzmoyP7LXpEwhsdhsIcgvSD8t19Y6Mo0bw0sdsZChNfWtxX9zo9hZYjuZNGCea86NK5ghEWhTlFqC218TMjbR/MnSs0WqUScuFUYqmH0jPI7YUOIpPGNVhDVTPs1hlRzXDeWwfTHzblZiS+Du9UVn9uopytjUIauR9s/YrUYobxq3zGulTr8Cv1DV/pg9AdZijvFrnMa6VGpwH+G3B4hj8s6BCnMKjTYrMhlRBLbqAtJPFmFaGzbO7Wqd5hGhs2zu1qneYRobNs7tap3mEaLsu0FJI9rtP+phI1OEdKptUud9mfDaktoguLCHU7JOYWgae0u0O12n/AHdGhs2zu1qneYRobNs7tap3mEaGzbO7Wqd5hGhs2zu1qneYRpBt6gU58vwKRDjO5FOzaZShWXhHWYsbwqtzmOmRw6yzlaVveTIvRD8t0b2a75Pk9GdThJv8pfMk9CrUX4gJsyv/AEF70NTgP8Kr/Mj9Zj0N7Hgmfh6nD7Dy22KLTKrIjCZMksIeze20N7MZ5IRoNoZDrrntil3LTHIU1HKWnR2bS+UaVujT6HVJVOnN7B9heR5FDiUnuHU4E1EIn1qnEn31hD6B4o7A+n826onYVOen5Mh0fYrUNr2DiFj9lQOg6/FDeNW+Y10qdfgV+oav9MHoDrMUd4tc5jXSo1OA/wANuDxDHAMDN+Mnya76aNVixvCq3OY6ZHDrLOVpW95Mi9EPy3RvZrvk+T0Z1OEm/wApfMk9CrUX4gJsyv8A0F70NTgP8Kr/ADI/WY9Dex4Jn4epsXeZbnk5j0NRjVbQlUmPXWW8nYhDT3dZX6qtThHNXFvqnJB2pCHmlfyFXzbuNvqVw1pv5E+Qn7FnUxHg/DiujccaQsHnDPr8UN41b5jXSp1+BX6hq/0wegOsxR3i1zmNdKjU4D/Dbg8QxwDAzfjJ8mu+mjVYsbwqtzmOmRw6yzlaVveTIvRD8t0b2a75Pk9GdThJv8pfMk9CrUX4gJsyv/QXvQ1OA/wqv8yP1mPQ3seCZ+HqbF3mW55OY9DUVenNVSlToDpGwksLaPc2Yyz0dacZdW04kpWhRSpJ3QRujUWbJXGu233knLKoRwfAVgH5t3k0tq7bhQr95ST9rhOps98v2lb7hXmTT44PdIQB1+J28KucxnpRr8Cv1DV/pg9AdZijvFrnMa6VGpwH+G3B4hjgGBm/GT5Nd9NGqxY3hVbnMdMjU4K0akVNdfNQp0eV1IRg31ZsOZbPZ6KtGzuK26Z91b0VaNncVt0z7q3oq0bO4rbpn3VvRVo2dxW3TPureirRs7itumfdW9FWjZ3FbdM+6t6KtGzuK26Z91b0VaNncVt0z7q3oq0bO4rbpn3VvRVo2dxW3TPuregtC0ct7lM+6taYwUunUy6Y7MCGzGaXAbWUNICE5laxqbLOVpW95Mi9EPy3RvZrvk+T0Z1OEm/yl8yT0KtRfiAmzK/9Be9DU4D/AAqv8yP1mPQ3seCZ+HqbF3mW55OY9DU37CMG8q+xyzFujwPe+D0tRAfXHnRH0dk282seFJB+beKLQavuuADIFbS/52knU4TyxJsWmJ2eamFvNK/nJ6+s0mPWKTNp8nMNSWlIJG6ORQ7qdJOBVzIcV1CpU9bXEpZcQfQOhwLu/jm0vzrvqaHAu7+ObS/Ou+pocC7v45tL8676mgwNu3inUvzrvqaXThtXbXpyJ82TCdZL6WsmVrKgVAn9pCdTgV+oav8ATB6A6zFHeLXOY10qNTgP8NuDxDHAMDN+Mnya76aNVixvCq3OY6ZGpwA7O5vBE/E1Y0xw33RPJrXSL1NlnK0re8mReiH5bo3s13yfJ6M6nCTf5S+ZJ6FWovxATZlf+gvehqcB/hVf8XH6zHob2PBM/D1Ni7zLc8nMehqcYoxZviWv/wA7DDn9NhqGP+81zx/f5t41RQzeQdA+EQmnPSRqcCp4XTa3A42n23/OjYH0NbjlvPY+nteirU4FfqGr/TB6A6zFHeLXOY10qNTgP8NuDxDHAMDN+Mnya76aNVixvCq3OY6ZGpwA7O5vBE/E1mOm/GL5Na6Repss5Wlb3kyL0Q/LdG9mu+T5PRnU4Sb/ACl8yT0KtRfiAmzK/wDQXvQ1OA/wqv8Ai4/WY9Dex4Jn4epsXeZbnk5j0NTjkMrwi+TWvTXqGP8AvNc8f3+bePEX3ygTEI3UvsqP2KGpwdqog3kywvsJzDjB6Qejrcct57H09r0VanAr9Q1f6YPQHWYo7xa5zGulRqcB/htweIY4BgZvxk+TXfTRqsWN4VW5zHTI1OAHZ3N4In4msx034xfJrXpr1NlnK0re8mReiH5bo3s13yfJ6M6nCTf5S+ZJ6FWovxATZlf+gvehqcB/hVf8XH6zHob2PBM/D1Ni7zLc8nMehqcdd+ETyY10i9Qx/wB5rnj+/wA28ZoPsqzOr8cSW059Ss29TT5z9PnxJsc5PRnkOt85BzGelPnR6hBiTI6iWpDKHUE7W0sZjWY5bz2Pp7Xoq1OBX6hq/wBMHoDrMUd4tc5jXSo1OA/w24PEMcAwM34yfJrvpo1WLG8Krc5jpkanADs7m8ET8TWY578Y3k1r016myzlaVveTIvRD8t0b2a75Pk9GdThJv8pfMk9CrUX4gJsyv/QXvQ1OA/wqv+Lj9Zj0N7Hgmfh6mxd5lueTmPQ1OOG+6H5MZ9NeoY/7zXPH9/m3c9M/O1uViAEgqeiOBvxgGaNVgvcYmUh+ivL9+hErZ7rLnqnWY5bz2Pp7Xoq1OBX6hq/0wegOsxR3i1zmNdKjU4D/AA24PEMcAwM34yfJrvpo1WLG8Krc5jpkanADs7m8ET8TWY578Y3k1r016myzlaVveTIvRD8t0b2a75Pk9GdThJv8pfMk9CrUX4gJsyv/AEF70NTgP8Kr/i4/WY9Dex4Jn4epsXeZbnk5j0NTjU4F3psR+xCZGoioUuSwhIzKnEgeEn5uXpSDRrprEEJAQiQpTfMc92nU2vX5FvVyFU2NvqS/fG+JxtW0pGlPnxajCizYjocYfbC21dw6vHLeex9Pa9FWpwK/UNX+mD0B1mKO8WucxrpUanAf4bcHiGOAYGb8ZPk1300arFjeFVucx0yNTgB2dzeCJ+JrMc9+Mbya16a9TZZytK3vJkXoh+W6N7Nd8nyejOpwk3+UvmSehVqL8QE2ZX/oL3oanAL4dXvFMdZj0N7Hgmfh6mxd5lueTmPQ1OKzocvys8iOoo+xpOotpoPXHQ2juLqEdP2uAfNzHOiFudS6y2n3DzZjO89vbTqsLL9RRH/zTU38oD682nFbjDnqK0B49VjlvPY+nteirU4FfqGr/TB6A6zFHeLXOY10qNTgP8NuDxDHAMDN+Mnya76aNVixvCq3OY6ZGpwA7O5vBE/E1mN+++L5Ob6Repss5Wlb3kyL0Q/LdG9mu+T5PRnU4Sb/ACl8yT0KtRfiAmzK/wDQXvQ1OAXw6veKY6zHob2PBM/D1Ni7zLc8nMehqbtmezrorsnZ7IOTnyk8qQshOow6iplXvQGyNyUHfNAufNy/aEa/a1ShNt5vpR1Zjxjfrbmrw8xTXSG2qVW1rcgDaZf21rY/9o0jSWJTDUiM8h1pxIUhaCFJUDxgjU45bz2Pp7Xoq1OBX6hq/wBMHoDrMUd4tc5jXSo1OA/w24PEMcAwRWE3fIHyqc96aNVixvCq3OY6ZGpwA7O5vBE/E1mN+++N5Ob6Repss5Wlb3kyL0Q/LdG9mu+T5PRnU4YPIZvuhqXuFxxP87Sk6i/EBNmV/wCgvehqcAvh1e8Ux1mPQ3seCZ+HqbF3mW55OY9DUV+pppNDqlQJH+GjOOJz41Ae5GhJJJJzJ2ydRgzED96oeO7FiPujov8An83cT7cVQrqlltvKLMJkMHn9mnV2zelw2w6VU2Xk0o5uMODZtL0oGM1vzkpbqrS4D3GrbcaOlPqtLqTRdgz48lHK04F5eHLr8aqhANtMQxLZMn2c2rqIWCvIJVqcCv1DV/pg9AdZijvFrnMa6VGpwH+G3B4hjUPo6m+6jLLYrKcuTI6ixq0ih3XSZ7qillDuwdPIh0FBOgIUAQdo6nFjeFVucx0yNTgB2dzeCJ+JrMc9+Mfya16a9TZZytK3vJkXoh+Wts9WodXa41wnk/agjU0qeum1SBPQM1RpDTwHi1BWkaQxKjR5DDgW082lxCxuFKxmOvvjIWbcX0B7U4BfDq94pjrMehvY8Ez8PU2LvMtzycx6GoxsuNDMKLQGV+/PFL8nuNjsE6nAmCSuuzijiZZQv7VK+buJNpm47ddDCM50PN6Nyq4lI/161txxpaVtrUhaTmFJORBHd0h3td0I5sV+cO4p5TifsXonFS/kgAVxXmWfV0OK1/ndrh8wz6mhxTv39+K+pln1dH7/AL0kAhdwTB4tfUvQy0l1ytzUFEuqzH0nideWsf1OqwK/UNX+mD0B1mKO8WucxrpUanAf4bcHiGNRcjIYuKts8Tc+Qj+VwjU4cYqMQo0ai1xZQyjJEeXxITxIc0YfYkstvx3kOtODNC0KCkqB4wRu6jFjeFVucx0yNTgB2dzeCJ+JrMct+Ufyc16a9TZZytK3vJkXoh+V1sONOIO4pJB+vQggkEEEbR1OFeI0WAwih1iSGmkk+xZK+xQPkLOiVBQBSQQQCCO71jrzTLanXXEttpGalKIAA7pOlw4uWtSg43DdNRkj9hnab85pdN+V+51lEt/qUQHNEVrNLf8Aq+VqcAvh1e8Ux1mPQ3seCZ+HqbQxUrdvMtQ30CdBRtJbWditA5EL0oGJln1kIAniI+RtsycmtApKkhSSCDtjL8mX5bzxDpFsMraStMmoEZIjJPY91zkGlSqMyqT5M6Y6XH31la1H+w5AOIanCCm+wbKjukELmPuvnox83sW7NNGqxq0VGUKe55p87ZHDMCv1DV/pg9AdZijvFrnMa6VGpwH+G3B4hjUYnwRCvmtJCMkOuIeT3eqoCjqqVXq1R17OnVF+Nt5lLayEq5ydw6Q8Yr2jJyckxpPddYA6PYaHG+8Mvg9O80v19JGMd7ujJuTHY5jCT6eekDFy9Y0xl6RPEplKs3GFtNpCx4Up0acS6224ncWkKGfIfy4sbwqtzmOmRqcAOzubwRPxNZjlvyY8nM+mvU2WcrSt7yZF6IdZd0JUG6K5GKdiETXtiP4VKJTqqNedz0RIbgVV5triaVk42PAleYGjWNt3oSAtinu91bS/+K9DjldvFBpfmnfX0m4vXxK7Cc1GHGGWU/3XnpUazVqovZ1CoSZRBJHVXFLA8AJ2tXgD8NuHxLHWY9Dex4Jn4erpterdKOcCpyYwzzybcKUk90aRMXL3j9nOakdx1lH/AACdBjddvHDpvmnPX0cxsu5Y2o1OR3Q0v19KniLedTQUP1l5CPks5M9GAdCSSSSSTtnUxo70qSxGZTsnXnEtoTyqWcgNKXBaptNgwGdtuMwhpOfIgAZ/N6sUqFWKZKp0xrZsPp2Kh/ZQ7o4tLotudbVXep0ohWXumnQMg62dxQ4XgV+oav8ATB6A6zFHeLXOY10qNTgP8NuDxDGoxypZRPpNUA2nWVML8LZ2Y18H4DD8Q16I/LixvCq3OY6ZGpwA7O5vBE/E1mOW/Jjycz6a9TZZytK3vJkXoh1mM9KMK7vZYSdhOjNuZ/xo97I4TgF8Or3imOsx6G9jwTPw+E4RUE1S62pTjebFPT1dXjNxv5wXhaFOuqkqivgIfbzVGf42l/8Ao6Vqi1Kh1F+n1BgtPtn6lDiUk8YPCsCv1DV/pg9AdZijvFrnMa6VGpwH+G3B4hjUYjUE121J7DSNk+xlIY5zWvgDKFD8Qj0R+XFjeFVucx0yNTgB2dzeCJ+JrMct+THk5n016myzlaVveTIvRDrMZaGahbKJ7SM3qe7sz4pzaXwnAL4dXvFMdZj0N7Hgmfh8Jwvts0G12FPtlMucQ+9nupB7BHzhu+zaZddP6hK97fRmY8hIzW2fV0uO2Kxbc8w6kxsCcy24nbbdT8pB4TgZ+oqt9NHodZijvFrnMa6VGpwH+G3B4hjU4lWmq3LgdLTYTBmFTsbLi+Wj/TroXwOJ4hv0R+XFjeFVucx0yNTgB2dzeCJ+JrMct+THk5n016myzlaVveTIvRDrJEdiVHfjvthxp5tTbiDuKSsZEHS7Ldk25XptMezIbXm0v5bSuxVwjAL4dXvFMdZj0N7Hgmfh8IwxtA3DW0PyWc6fCIW9mNpxfE1846zQ6ZW4K4VSioeaPERtoPykndSdLxworNBDsuATPgAkkpHvrQ/jHB7asu4Lldyp8T3kHJclz3DSNLMtKPalJMFp8vLW4XXnSMs1kAbQ6zFHeLXOY10qNTgP8NuDxDGpuu2odzUR+nSMkKJ2bLoGZacG4rSt0Wo0OpP0+eyW3mj9SkncWk8aTrYXwOL4hv0R+XFjeFVucx0yNTgB2dzeCJ+JrMct+THk5n016myzlaVveTIvRDrcRbKbumkbOOkCpRAtUc/LHG0dHmXWHXGXm1NuNrKVoUMlJUnaII4jwGVElQ3epSo7jLmxCtg4koVkoZg5HlHXYBfDq94pjrMehvY8Ez8Pr6jaVdp1IgVd6KTCltJWl1G2EbPcC+QngFu2/UbhqrFOgt5rWc1r/ZaRxrV3BpbtvwLepTFOhIyQ3tqWeycWd1avnLdWF9uXAp19pBgTDmS8yNpfPRpceGl00JbijDMuMNx+Pmv+Ybo4HQLCuiv7BcOnrQwrb9kPe9taW5g1Q6ept+qumoPD9jsGRoywzHabZZaS22hIShCAEpSkbgAG4OtxOQVWHXu4210qdTgT8Nr/AIljVXfZlLuunliV71Jb+DyQNtv1hpclp1u2pXUKjHySr/tvo22nOarWQ/gUXxLfoj8uLG8Or+GP0ydTgB2dzeCJ+JrMbN90fyc16a9TZisrSt7yZF6IddiDhpFuUGfAKI9TSjbO4h8DiXpUaZPpcx2HPiuMPtnJSFj+o5R3ddbWHVy3D1N1mL7HiK//AJL/ALhJHKgbqtLVwzt63C3ILZmTR/nvDaTzEaY4Q1t3HTpX7D0EI+tpZ67AQZza/wCLY6zHwb2OZLPR9fSaW0xQKdTJDaXW2oTTDiVgELCUBJBB0u/Bht1T0u3XQhe6YbhyQfFK0qNMqNLlLiz4jsd9O6hxJSeTMco7uttWza1dEsNQmSGEnJ6Svabb0tS0qVa9O9iwkEuLyL76uzdV3e4OIfOiuWHatdC1zKa2H1bZfZHUnM+UlO7pWMDHhmuj1dC+RqUMj/OjSqYd3lTD79Rn3U59mwOr9Ho604y4pt1CkLSclJUMiD3Rq223HVpbbQpa1HIJSMyT3BpS8O7yqh95or7aONb46gB5zSkYGSSQur1ZCBxtRgVn+delDw7tOibBUemodeGXv7/vq8xxjPaTqKpT41Tp0uBIBLUllTawN0BYyzGlTwYu6K+tMIMTWeJxLga+0L0/RBf/AO6UfeGfW0/RBf8A+6UfeGfW0/RBf/7pR94Z9bT9EF//ALpR94Z9bT9EF/8A7pR94Z9bT9EF/wD7pR94Z9bQYSX4T+q0efa0w3sd+1IMwy3kLmSyguBvbQhCNwaubBhVCK5FmRkPsOABTbgCknLuHS5MEIrxW9QZoYP/ANK+SUfUvStWTdND2Zn0l9LSQSXkDqjYHdUjUIQtxaUIQVKUcgkDMnPSh4bXbV3mf+muxWFLAW++OphI5clZFWjaA22hsbiUhI+r8t20L2w25UqWlwNrfQC2s7gWhQWnR3CW/m3FoFIS4AezS+1kftVp+iTEL9x/7lj19P0SYhfuP/csevp+iTEL9x/7lj19P0SYhfuP/csevp+iTEL9x/7lj19BhNiAdyif7lj19DhLiD+4/wDcMevphjZcu1qfMVNWky5ikFaEHMIS3uDWYo4eVe4JkSqUoIddQx1F1hSwgkJJIKM9DhNiAndon+5Y9fT9EmIX7j/3LHr6fokxC/cf+5Y9fT9EmIX7j/3LHr6fokxC/cf+5Y9fT9EmIX7j/wByx6+n6JMQv3H/ALlj19IWEV7PyW2n4CIrZO28t5tQT9SCdKbBbp1OhQWlEtxWG2UE7pDaQkZ9fXrbodwRvY9ThJeCc9g5uLRzFDS4cEqpGK3aHLRMa4mXSG3fVOlSo1XpTnU6hT5EZWZA6q2UhWXyTuHU0uhVmrubCnU6RJOyyJbQSAT8o7g0ouCdfllC6pKZgo40D353SgYa2pQih1qF7KkJ2w/JyWQe4NwflxSsybc1NguU8IVLhrWQ2pWxC0OaHCu/hu0NfnmfW0/RXf24KGrzzPrafopv/wDcS/PM+voMKb+O5Qz59n19P0UYgfuI+fZ9fTC2yala8We/UskypZb95Sdl1NKOsxOsqVdNOgrgrR7MhlZShZyC0uaHCbEBO7RP9yx6+n6JMQv3H/uWPX0/RJiF+4/9yx6+n6JMQv3H/uWPX0/RJiF+4/8AcsevpbmEFzu1SKusRW4sJDoW7m4hwrCdsoAbJ/LVaLSazGMapQWpLW3tODbTnxoO6k90aV/A+I6Vu0Oolk8TD+a0fUsaVjD28KOT7IpDzjfE6wOrI2uZoQQSCNsaij2vcNbIFNpb76flhOxb8BWrJOltYJsNlD9flh7/AO2YJCP9a9IUKHBjNxYcZphlsZIbbSEJH1D52TKbT5bCm5sRiSgjsHW0rH9dJeG1izVKLtDZR4oqZ6MjSoYMWasksqmsdxDwPSBWl0WLSaQkmO/KVz1JP9kjT83MfKX/AE0/NzHyl/00/NzHyl/00/NzHyl/00oFuwqnM6i848lPKggH+oOlMwatRxtp51+e5yoLqAP6I0g4Z2RCVs0UVpxX/wDcpb39FkjSBSqfDaCIcJiK38lltKB/T4iqVrW3VMzOo8R5SxtrLYC/5xt6T8GrFeRk1HkxjytPk9Js9KxhPbsEZtS555y2/U0qdDiRJBbbW6R3SNKXQYcteTjjo5pH/rSkYQWzMZQ67LqH1ON+ppCwusWIA6KQHnE8bzq1jSFS6XT0KRAgR4qCexZaSj0fix5ttxpaHG0rSpO2lQzB0qeHFkT07N6hsIWeNnNjoyNKxg7azDLj7MiejkQHEEf1RpOpEaNLdZQtwpScgSRp+bmPlL/pp+bmPlL/AKaQqVHkSG21KcAUrI5EaUXB+1X2GZD7053lQXUhP9E6QsP7LppAjUOMo/LeBf6TPRASlCUpSEpG0EgZADhdRt+hVMn2fSoklW4FuNJUoA8h0mYQ2PJQoNw34yjxsvq/E2ely4ZUGktLUxKmqI+WtB/sjT83MfKX/TT83MfKX/TSi2/Dnz0xnXHgjlSQD/UaUnB201NtvvOTnuVC3QE//okaU+w7Opu3GocYqSQoKdHVlA9wuZ6JAAyAAA+NP//EACIRAQAABQQDAQEAAAAAAAAAAAEAETAxYAIgIUAQElBBsP/aAAgBAgEBPwD6wMGlj1gCJES8yiREiPWJZcESiRW4iREnKpEcdNCHTkxpjjroMI5EDAHbTIA7yY8HwUxsM8D4jCYub5kTOvM3piwUhY9o46KkTfJvTFQ43ttwxx4nEyJke0e0e0TImQJ5Uibu/N6c4mHNDVQnTFoFt6cYmWoPbLUE5xEOaOrtlqCcYiWotu3+UXGV4+Jqw8ifxBotsPKL3S2LlvjFFvh35QbfH1Yb+0dXx3DS9HV3y1Bthpejq75ag2w0vR1d/wDKDbDS9Ft3/wAoNsN/aLbvF6Lh358bTR1YcWo6julqLfDj4oUm+HESop8RtjSdkKWrEC1NOsDABTcQHnasTY9o42pCPRkwFReMSHjYjsHchEiPWkE49YArrziQ87U8jQe0vGKDxtTyO9aZXcaTnyMcdArLiw7U42zibE2qXqrjA7Xpl6jjQ7XS9Ivk47UIkR6x6xIhCVQvTVcdGi2qF6K5ALAm9tUL0FyP2jja2qF9ykK5NOOPLaoX2TI9sq9omQtWZEyJv9Or/8QAIREAAQMFAQEBAQEAAAAAAAAAAREgMQAQMEFgQFBwIYD/2gAIAQMBAT8A+wtFaUsU0FpaXsFo51peqXyKaXpl9C9Ivdr7lP8AlYn4i8+lJ50NIej2xO5EuRyUlJSWN0fvoh3o9Znoh3ontN/NHHmMKewjCJ5gfF3x5nBvtd4BPv3gHLD3754fHE8sPjieWHv3gE8sJ+OJ/S94N+44RxxnCPxknDvvRPIbxL8Mc2D26UlI3+0vvA5kjAtLjU0p6YHGBjT9pTuhLkHZkfga/gC0tLW+0T3IeoE9ujhPiTp08qdUhzpSUn+zEpDSGkNf2k7ZMBpPMlJSUjwKSkpKI8IFJSUlEcKZYng20y4Qw+EQwxxA8O2mXCGHwiGGPsRhBFKMWmBhhu2mXCGHwiGGPrhxOMFhYGGG7aZcIYfCIYY4kEUopWhhhu2mXCGHwiGGPr6YT5Rh20y4Qw+EQwxZKSkpKT6AlpnKGGLJSUMO2mXCGGww6YZsIZNI4j54nxCGGLCMe85sGGG6YZsI+0Gabp5mwhhiwjHvObBhhumGbCPtBmmbwGbCGGLA0rlpaW285sGGG6YZsIZFLcFpn5oZpm8BmwhhhgYYbvObBhhumGbCGFuvuKGmbCGGGBhhu2mcRsGGG6YZsIYWhh+aJaZcJaZsIYYYGGG7aZcIYbBhhumGbCGFohh+drEJaZsIYYYGGG7aZcIYbBhhumGbCGFohh+cIxCWmbCGGGBhhu2mXCGGwYYbphmwhhaPpBstEtM2EMMMDC3bTLhDDYYdMM2EMLdMM/VSkFIHGbCGGMJFIaQ220y4Qw2DSKQ0hpGmbCGpSUnBmbCGGMerbaZcIYbCcpmwjjBDDGPVttMuEMNxkM2EY1+oopQ8mlaopRSiiQ5aD1FKKUUooy4EUopRSiixWrS2BFKKUUTYIlKKUUSLLwB+aPn/AP/Z;clipPath=inset(0% 16.33% 0% 15.67%);" parent="1" vertex="1">
          <mxGeometry x="-320" y="40" width="80.19" height="68" as="geometry" />
        </mxCell>
        <mxCell id="CEkO3Uq_BOmMnPw9GR2j-16" value="" style="edgeStyle=orthogonalEdgeStyle;html=1;endArrow=block;elbow=vertical;startArrow=none;endFill=1;strokeColor=#545B64;rounded=0;exitX=0.5;exitY=1;exitDx=0;exitDy=0;entryX=0.468;entryY=0;entryDx=0;entryDy=0;entryPerimeter=0;" parent="1" source="CEkO3Uq_BOmMnPw9GR2j-3" edge="1">
          <mxGeometry width="100" relative="1" as="geometry">
            <mxPoint x="-140" y="590" as="sourcePoint" />
            <mxPoint x="-183.92367999999988" y="530" as="targetPoint" />
          </mxGeometry>
        </mxCell>
        <mxCell id="CEkO3Uq_BOmMnPw9GR2j-17" value="" style="edgeStyle=orthogonalEdgeStyle;html=1;endArrow=block;elbow=vertical;startArrow=none;endFill=1;strokeColor=#545B64;rounded=0;exitX=0.5;exitY=1;exitDx=0;exitDy=0;" parent="1" source="CEkO3Uq_BOmMnPw9GR2j-13" edge="1">
          <mxGeometry width="100" relative="1" as="geometry">
            <mxPoint x="-140" y="90" as="sourcePoint" />
            <mxPoint x="-280" y="190" as="targetPoint" />
          </mxGeometry>
        </mxCell>
        <mxCell id="CEkO3Uq_BOmMnPw9GR2j-18" value="" style="sketch=0;outlineConnect=0;fontColor=#232F3E;gradientColor=none;fillColor=#232F3D;strokeColor=none;dashed=0;verticalLabelPosition=bottom;verticalAlign=top;align=center;html=1;fontSize=12;fontStyle=0;aspect=fixed;pointerEvents=1;shape=mxgraph.aws4.user;" parent="1" vertex="1">
          <mxGeometry x="-70.74000000000001" y="50" width="48" height="48" as="geometry" />
        </mxCell>
        <mxCell id="CEkO3Uq_BOmMnPw9GR2j-19" value="" style="sketch=0;outlineConnect=0;fontColor=#232F3E;gradientColor=none;fillColor=#232F3D;strokeColor=none;dashed=0;verticalLabelPosition=bottom;verticalAlign=top;align=center;html=1;fontSize=12;fontStyle=0;aspect=fixed;pointerEvents=1;shape=mxgraph.aws4.client;" parent="1" vertex="1">
          <mxGeometry x="-120" y="50" width="49.26" height="48" as="geometry" />
        </mxCell>
        <mxCell id="CEkO3Uq_BOmMnPw9GR2j-20" value="Developer" style="text;html=1;strokeColor=none;fillColor=none;align=center;verticalAlign=middle;whiteSpace=wrap;rounded=0;" parent="1" vertex="1">
          <mxGeometry x="-100" y="98" width="60" height="30" as="geometry" />
        </mxCell>
        <mxCell id="CEkO3Uq_BOmMnPw9GR2j-21" value="" style="edgeStyle=orthogonalEdgeStyle;html=1;endArrow=block;elbow=vertical;startArrow=none;endFill=1;strokeColor=#545B64;rounded=0;" parent="1" source="CEkO3Uq_BOmMnPw9GR2j-19" target="CEkO3Uq_BOmMnPw9GR2j-13" edge="1">
          <mxGeometry width="100" relative="1" as="geometry">
            <mxPoint x="160" y="90" as="sourcePoint" />
            <mxPoint x="260" y="90" as="targetPoint" />
          </mxGeometry>
        </mxCell>
        <mxCell id="CEkO3Uq_BOmMnPw9GR2j-22" value="Push" style="text;html=1;strokeColor=none;fillColor=none;align=center;verticalAlign=middle;whiteSpace=wrap;rounded=0;" parent="1" vertex="1">
          <mxGeometry x="-207.24" y="50" width="60" height="30" as="geometry" />
        </mxCell>
        <mxCell id="CEkO3Uq_BOmMnPw9GR2j-23" value="infrastructure&lt;br&gt;as&lt;br&gt;code" style="text;html=1;strokeColor=none;fillColor=none;align=center;verticalAlign=middle;whiteSpace=wrap;rounded=0;" parent="1" vertex="1">
          <mxGeometry x="-164.48000000000002" y="270" width="100" height="50" as="geometry" />
        </mxCell>
        <mxCell id="CEkO3Uq_BOmMnPw9GR2j-24" value="setup server&lt;br&gt;and&lt;br&gt;app deploy" style="text;html=1;strokeColor=none;fillColor=none;align=center;verticalAlign=middle;whiteSpace=wrap;rounded=0;" parent="1" vertex="1">
          <mxGeometry x="-155.44" y="400" width="100" height="50" as="geometry" />
        </mxCell>
        <mxCell id="CEkO3Uq_BOmMnPw9GR2j-25" value="server test" style="text;html=1;strokeColor=none;fillColor=none;align=center;verticalAlign=middle;whiteSpace=wrap;rounded=0;" parent="1" vertex="1">
          <mxGeometry x="-155.44" y="520" width="100" height="20" as="geometry" />
        </mxCell>
        <mxCell id="sWpOQSRF8GIG0QyO_1Pz-3" value="" style="shape=image;verticalLabelPosition=bottom;labelBackgroundColor=default;verticalAlign=top;aspect=fixed;imageAspect=0;image=data:image/svg+xml,PHN2ZyB4bWxucz0iaHR0cDovL3d3dy53My5vcmcvMjAwMC9zdmciIGlkPSJzdmc4IiB2ZXJzaW9uPSIxLjEiIHZpZXdCb3g9IjAgMCA2OS4zMzIzODIgNzMuOTI0NTk4IiBoZWlnaHQ9IjczLjkyNDU5OW1tIiB3aWR0aD0iNjkuMzMyMzgybW0iPiYjeGE7ICA8ZGVmcyBpZD0iZGVmczIiLz4mI3hhOyAgJiN4YTsgICAgJiN4YTsgICAgJiN4YTsgICAgJiN4YTsgICAgJiN4YTsgICAgJiN4YTsgICAgJiN4YTsgICAgJiN4YTsgICAgJiN4YTsgICAgJiN4YTsgICAgJiN4YTsgICAgJiN4YTsgICAgJiN4YTsgICAgJiN4YTsgICAgJiN4YTsgICAgJiN4YTsgICAgJiN4YTsgICAgJiN4YTsgICAgJiN4YTsgICAgJiN4YTsgICAgJiN4YTsgICAgJiN4YTsgICAgJiN4YTsgICAgJiN4YTsgICYjeGE7ICA8bWV0YWRhdGEgaWQ9Im1ldGFkYXRhNSI+JiN4YTsgICAgJiN4YTsgICAgICAmI3hhOyAgICAgICAgaW1hZ2Uvc3ZnK3htbCYjeGE7ICAgICAgICAmI3hhOyAgICAgICAgJiN4YTsgICAgICAmI3hhOyAgICAmI3hhOyAgPC9tZXRhZGF0YT4mI3hhOyAgPGcgdHJhbnNmb3JtPSJ0cmFuc2xhdGUoLTc1LjMwOTI2NSwtMTguMTU2MjQ3KSIgaWQ9ImxheWVyMSI+JiN4YTsgICAgPHBhdGggaWQ9InBhdGgxNzUiIGQ9Ik0gMTA5LjgwMjA4LDIzLjE1NjI0NyA5OS4yMTg3NDksMzMuNzM5NTc5IFYgNjkuNDU4MzM0IEwgMTA5LjgwMjA5LDU4Ljg3NTAwMSBaIiBzdHlsZT0iZmlsbDojYzhkMTI5O2ZpbGwtb3BhY2l0eToxO2ZpbGwtcnVsZTpldmVub2RkO3N0cm9rZTpub25lO3N0cm9rZS13aWR0aDowLjI2NDU4MzMycHg7c3Ryb2tlLWxpbmVjYXA6YnV0dDtzdHJva2UtbGluZWpvaW46bWl0ZXI7c3Ryb2tlLW9wYWNpdHk6MSIvPiYjeGE7ICAgIDxwYXRoIGlkPSJwYXRoMTc3IiBkPSJtIDExMi40NDc5MiwyMy4xNTYyNDcgMTAuNTgzMzMsMTAuNTgzMzM1IFYgNjkuNDU4MzM0IEwgMTEyLjQ0NzkyLDU4Ljg3NTAwMSBaIiBzdHlsZT0iZmlsbDojZDU3YjI4O2ZpbGwtb3BhY2l0eToxO2ZpbGwtcnVsZTpldmVub2RkO3N0cm9rZTpub25lO3N0cm9rZS13aWR0aDowLjI2NDU4MzMycHg7c3Ryb2tlLWxpbmVjYXA6YnV0dDtzdHJva2UtbGluZWpvaW46bWl0ZXI7c3Ryb2tlLW9wYWNpdHk6MSIvPiYjeGE7ICAgIDxwYXRoIGlkPSJwYXRoMTgzIiBkPSJNIDk3Ljg5NTgyOSw1NC4zNzcwNzkgViAzOS44MjQ5OTUgTCA4NC42NjY2NjMsNTMuMDU0MTYyIHYgMTQuNTUyMDgzIHoiIHN0eWxlPSJmaWxsOiMwMDlkZTA7ZmlsbC1vcGFjaXR5OjE7ZmlsbC1ydWxlOmV2ZW5vZGQ7c3Ryb2tlOm5vbmU7c3Ryb2tlLXdpZHRoOjAuMjY0NTgzMzJweDtzdHJva2UtbGluZWNhcDpidXR0O3N0cm9rZS1saW5lam9pbjptaXRlcjtzdHJva2Utb3BhY2l0eToxIi8+JiN4YTsgICAgPHBhdGggaWQ9InBhdGgxODUiIGQ9Im0gODQuNjY2NjY2LDY5LjQ1ODMzNCA5LjI2MDQxNiwtOS4yNjA0MTcgaCA1LjI5MTY2NyB2IDkuMjYwNDE3IHoiIHN0eWxlPSJmaWxsOiM2ODY5NmI7ZmlsbC1vcGFjaXR5OjE7ZmlsbC1ydWxlOmV2ZW5vZGQ7c3Ryb2tlOm5vbmU7c3Ryb2tlLXdpZHRoOjAuMjY0NTgzMzJweDtzdHJva2UtbGluZWNhcDpidXR0O3N0cm9rZS1saW5lam9pbjptaXRlcjtzdHJva2Utb3BhY2l0eToxIi8+JiN4YTsgICAgPHBhdGggaWQ9InBhdGgxODciIGQ9Im0gMTAxLjg2NDU3LDY5LjQ1ODMzNCA5LjI2MDQzLC05LjI2MDQyNSA5LjI2MDQyLDkuMjYwNDE5IHoiIHN0eWxlPSJmaWxsOiM2ODY5NmI7ZmlsbC1vcGFjaXR5OjE7ZmlsbC1ydWxlOmV2ZW5vZGQ7c3Ryb2tlOm5vbmU7c3Ryb2tlLXdpZHRoOjAuMjY0NTgzMzJweDtzdHJva2UtbGluZWNhcDpidXR0O3N0cm9rZS1saW5lam9pbjptaXRlcjtzdHJva2Utb3BhY2l0eToxIi8+JiN4YTsgICAgPHBhdGggaWQ9InBhdGgxODkiIGQ9Im0gMTM3LjU4MzMzLDY5LjQ1ODMzNCAtOS4yNjA0MSwtOS4yNjA0MTcgaCAtNS4yOTE2NyB2IDkuMjYwNDE3IHoiIHN0eWxlPSJmaWxsOiM2ODY5NmI7ZmlsbC1vcGFjaXR5OjE7ZmlsbC1ydWxlOmV2ZW5vZGQ7c3Ryb2tlOm5vbmU7c3Ryb2tlLXdpZHRoOjAuMjY0NTgzMzJweDtzdHJva2UtbGluZWNhcDpidXR0O3N0cm9rZS1saW5lam9pbjptaXRlcjtzdHJva2Utb3BhY2l0eToxIi8+JiN4YTsgICAgPHBhdGggaWQ9InBhdGgxOTEiIGQ9Ik0gMTI0LjM1NDE3LDU0LjExMjQ5MiBWIDM5LjU2MDQxMSBsIDEzLjIyOTE2LDEzLjIyOTE2NyB2IDE0LjU1MjA4MyB6IiBzdHlsZT0iZmlsbDojYmYyYjFiO2ZpbGwtb3BhY2l0eToxO2ZpbGwtcnVsZTpldmVub2RkO3N0cm9rZTpub25lO3N0cm9rZS13aWR0aDowLjI2NDU4MzMycHg7c3Ryb2tlLWxpbmVjYXA6YnV0dDtzdHJva2UtbGluZWpvaW46bWl0ZXI7c3Ryb2tlLW9wYWNpdHk6MSIvPiYjeGE7ICAgIDxnIHRyYW5zZm9ybT0idHJhbnNsYXRlKC0xLjIxMzg5OTgsLTExLjA1NTgwNCkiIGlkPSJnMTAyOSI+JiN4YTsgICAgICA8dGV4dCB4bWw6c3BhY2U9InByZXNlcnZlIiBzdHlsZT0iZm9udC1zdHlsZTpub3JtYWw7Zm9udC12YXJpYW50Om5vcm1hbDtmb250LXdlaWdodDpub3JtYWw7Zm9udC1zdHJldGNoOm5vcm1hbDtmb250LXNpemU6MTQuMTExMTEwNjlweDtsaW5lLWhlaWdodDo2LjYxNDU4MzAycHg7Zm9udC1mYW1pbHk6J0JhZWttdWsgSGVhZGxpbmUnOy1pbmtzY2FwZS1mb250LXNwZWNpZmljYXRpb246J0JhZWttdWsgSGVhZGxpbmUsIE5vcm1hbCc7Zm9udC12YXJpYW50LWxpZ2F0dXJlczpub3JtYWw7Zm9udC12YXJpYW50LWNhcHM6bm9ybWFsO2ZvbnQtdmFyaWFudC1udW1lcmljOm5vcm1hbDtmb250LWZlYXR1cmUtc2V0dGluZ3M6bm9ybWFsO3RleHQtYWxpZ246c3RhcnQ7bGV0dGVyLXNwYWNpbmc6MHB4O3dvcmQtc3BhY2luZzowcHg7d3JpdGluZy1tb2RlOmxyLXRiO3RleHQtYW5jaG9yOnN0YXJ0O2ZpbGw6Izg2ODc4OTtmaWxsLW9wYWNpdHk6MTtzdHJva2U6bm9uZTtzdHJva2Utd2lkdGg6MC4yNjQ1ODMzMnB4O3N0cm9rZS1saW5lY2FwOmJ1dHQ7c3Ryb2tlLWxpbmVqb2luOm1pdGVyO3N0cm9rZS1vcGFjaXR5OjEiIHg9IjgxLjE3MDM4NyIgeT0iOTcuOTUzMjAxIiBpZD0idGV4dDEwMDAiPjx0c3BhbiBpZD0idHNwYW45OTgiIHg9IjgxLjE3MDM4NyIgeT0iOTcuOTUzMjAxIiBzdHlsZT0iZm9udC1zdHlsZTpub3JtYWw7Zm9udC12YXJpYW50Om5vcm1hbDtmb250LXdlaWdodDpub3JtYWw7Zm9udC1zdHJldGNoOm5vcm1hbDtmb250LXNpemU6MTQuMTExMTEwNjlweDtmb250LWZhbWlseTonQmFla211ayBIZWFkbGluZSc7LWlua3NjYXBlLWZvbnQtc3BlY2lmaWNhdGlvbjonQmFla211ayBIZWFkbGluZSwgTm9ybWFsJztmb250LXZhcmlhbnQtbGlnYXR1cmVzOm5vcm1hbDtmb250LXZhcmlhbnQtY2Fwczpub3JtYWw7Zm9udC12YXJpYW50LW51bWVyaWM6bm9ybWFsO2ZvbnQtZmVhdHVyZS1zZXR0aW5nczpub3JtYWw7dGV4dC1hbGlnbjpzdGFydDt3cml0aW5nLW1vZGU6bHItdGI7dGV4dC1hbmNob3I6c3RhcnQ7ZmlsbDojODY4Nzg5O2ZpbGwtb3BhY2l0eToxO3N0cm9rZS13aWR0aDowLjI2NDU4MzMycHgiPnRlc3Q8L3RzcGFuPjwvdGV4dD4mI3hhOyAgICAgIDx0ZXh0IHhtbDpzcGFjZT0icHJlc2VydmUiIHN0eWxlPSJmb250LXN0eWxlOm5vcm1hbDtmb250LXZhcmlhbnQ6bm9ybWFsO2ZvbnQtd2VpZ2h0Om5vcm1hbDtmb250LXN0cmV0Y2g6bm9ybWFsO2ZvbnQtc2l6ZToxNC4xMTExMTA2OXB4O2xpbmUtaGVpZ2h0OjYuNjE0NTgzMDJweDtmb250LWZhbWlseTonQmFla211ayBIZWFkbGluZSc7LWlua3NjYXBlLWZvbnQtc3BlY2lmaWNhdGlvbjonQmFla211ayBIZWFkbGluZSwgTm9ybWFsJztmb250LXZhcmlhbnQtbGlnYXR1cmVzOm5vcm1hbDtmb250LXZhcmlhbnQtY2Fwczpub3JtYWw7Zm9udC12YXJpYW50LW51bWVyaWM6bm9ybWFsO2ZvbnQtZmVhdHVyZS1zZXR0aW5nczpub3JtYWw7dGV4dC1hbGlnbjpzdGFydDtsZXR0ZXItc3BhY2luZzowcHg7d29yZC1zcGFjaW5nOjBweDt3cml0aW5nLW1vZGU6bHItdGI7dGV4dC1hbmNob3I6c3RhcnQ7ZmlsbDojMDA5ZGUwO2ZpbGwtb3BhY2l0eToxO3N0cm9rZTpub25lO3N0cm9rZS13aWR0aDowLjI2NDU4MzMycHg7c3Ryb2tlLWxpbmVjYXA6YnV0dDtzdHJva2UtbGluZWpvaW46bWl0ZXI7c3Ryb2tlLW9wYWNpdHk6MSIgeD0iMTEwLjg0MTUxIiB5PSI5Ny45OTU1MzciIGlkPSJ0ZXh0MTAyMyI+PHRzcGFuIGlkPSJ0c3BhbjEwMjEiIHg9IjExMC44NDE1MSIgeT0iOTcuOTk1NTM3IiBzdHlsZT0iZm9udC1zdHlsZTpub3JtYWw7Zm9udC12YXJpYW50Om5vcm1hbDtmb250LXdlaWdodDpub3JtYWw7Zm9udC1zdHJldGNoOm5vcm1hbDtmb250LXNpemU6MTQuMTExMTEwNjlweDtmb250LWZhbWlseTonQmFla211ayBIZWFkbGluZSc7LWlua3NjYXBlLWZvbnQtc3BlY2lmaWNhdGlvbjonQmFla211ayBIZWFkbGluZSwgTm9ybWFsJztmb250LXZhcmlhbnQtbGlnYXR1cmVzOm5vcm1hbDtmb250LXZhcmlhbnQtY2Fwczpub3JtYWw7Zm9udC12YXJpYW50LW51bWVyaWM6bm9ybWFsO2ZvbnQtZmVhdHVyZS1zZXR0aW5nczpub3JtYWw7dGV4dC1hbGlnbjpzdGFydDt3cml0aW5nLW1vZGU6bHItdGI7dGV4dC1hbmNob3I6c3RhcnQ7ZmlsbDojMDA5ZGUwO2ZpbGwtb3BhY2l0eToxO3N0cm9rZS13aWR0aDowLjI2NDU4MzMycHgiPmluZnJhPC90c3Bhbj48L3RleHQ+JiN4YTsgICAgPC9nPiYjeGE7ICA8L2c+JiN4YTs8L3N2Zz4=;" vertex="1" parent="1">
          <mxGeometry x="-221.78" y="530" width="74.59" height="80" as="geometry" />
        </mxCell>
      </root>
    </mxGraphModel>
  </diagram>
</mxfile>
